<svg width="20" height="19" viewBox="0 0 20 19" fill="none" xmlns="http://www.w3.org/2000/svg">
<path d="M19 7.00002H5V4.11302C5 3.11602 5.678 2.19002 6.661 2.02802C6.94813 1.97917 7.24245 1.99352 7.52347 2.07007C7.80448 2.14662 8.06542 2.28354 8.28809 2.47127C8.51077 2.65901 8.68982 2.89305 8.81277 3.15708C8.93573 3.42111 8.99962 3.70877 9 4.00003H11C10.9995 3.44132 10.8821 2.88891 10.6553 2.37833C10.4284 1.86774 10.0972 1.41029 9.68299 1.03541C9.26873 0.660525 8.78059 0.376509 8.24996 0.201633C7.71933 0.0267571 7.15797 -0.0351056 6.602 0.020025C4.523 0.222025 3 2.08902 3 4.17802V7.00002H1C0.734784 7.00002 0.48043 7.10538 0.292893 7.29292C0.105357 7.48045 0 7.73481 0 8.00002V10C0 12.606 1.674 14.823 4 15.65V19H6V16H14V19H16V15.65C18.326 14.823 20 12.606 20 10V8.00002C20 7.73481 19.8946 7.48045 19.7071 7.29292C19.5196 7.10538 19.2652 7.00002 19 7.00002Z" fill="#C4C4C4"/>
</svg>
