<svg width="19" height="19" viewBox="0 0 19 19" fill="none" xmlns="http://www.w3.org/2000/svg">
<path d="M4.75 0.59375C4.75 0.436278 4.68744 0.285255 4.57609 0.173905C4.46475 0.0625556 4.31372 0 4.15625 0C3.99878 0 3.84776 0.0625556 3.73641 0.173905C3.62506 0.285255 3.5625 0.436278 3.5625 0.59375V1.1875H2.375C1.74511 1.1875 1.14102 1.43772 0.695621 1.88312C0.250223 2.32852 0 2.93261 0 3.5625L0 4.75H19V3.5625C19 2.93261 18.7498 2.32852 18.3044 1.88312C17.859 1.43772 17.2549 1.1875 16.625 1.1875H15.4375V0.59375C15.4375 0.436278 15.3749 0.285255 15.2636 0.173905C15.1522 0.0625556 15.0012 0 14.8438 0C14.6863 0 14.5353 0.0625556 14.4239 0.173905C14.3126 0.285255 14.25 0.436278 14.25 0.59375V1.1875H4.75V0.59375ZM19 16.625V5.9375H0V16.625C0 17.2549 0.250223 17.859 0.695621 18.3044C1.14102 18.7498 1.74511 19 2.375 19H16.625C17.2549 19 17.859 18.7498 18.3044 18.3044C18.7498 17.859 19 17.2549 19 16.625ZM14.8438 8.3125H16.0312C16.1887 8.3125 16.3397 8.37506 16.4511 8.48641C16.5624 8.59776 16.625 8.74878 16.625 8.90625V10.0938C16.625 10.2512 16.5624 10.4022 16.4511 10.5136C16.3397 10.6249 16.1887 10.6875 16.0312 10.6875H14.8438C14.6863 10.6875 14.5353 10.6249 14.4239 10.5136C14.3126 10.4022 14.25 10.2512 14.25 10.0938V8.90625C14.25 8.74878 14.3126 8.59776 14.4239 8.48641C14.5353 8.37506 14.6863 8.3125 14.8438 8.3125Z" fill="#BDBDBD"/>
</svg>
