<svg width="95" height="93" viewBox="0 0 95 93" fill="none" xmlns="http://www.w3.org/2000/svg">
<path d="M92.5184 0.808105H2.48154C1.36239 0.808105 0.456543 1.71396 0.456543 2.83311V40.9369C0.456543 42.056 1.36239 42.9619 2.48154 42.9619H9.42459V90.1673C9.42459 91.2851 10.3304 92.1923 11.4496 92.1923H84.4117C85.5295 92.1923 86.4367 91.2851 86.4367 90.1673V42.9619H92.5184C93.6362 42.9619 94.5434 42.056 94.5434 40.9369V2.83311C94.5434 1.71396 93.6362 0.808105 92.5184 0.808105ZM82.3867 88.1423H13.4746V42.9619H35.2258C35.9021 42.9619 36.5353 42.6244 36.9106 42.0601L47.9306 25.5347L58.9507 42.0601C59.326 42.623 59.9591 42.9619 60.6355 42.9619H82.3853V88.1423H82.3867ZM90.4934 38.9119H61.7195L49.6154 20.7611C48.8635 19.6339 46.9964 19.6352 46.2458 20.7611L34.1417 38.9119H4.50654V4.85811H90.4934V38.9119V38.9119Z" fill="#C59C7E"/>
<path d="M57.2673 49.7148H38.5941C37.4749 49.7148 36.5691 50.622 36.5691 51.7398V79.7577C36.5691 80.8755 37.4749 81.7827 38.5941 81.7827H57.2686C58.3864 81.7827 59.2936 80.8755 59.2936 79.7577V51.7398C59.2923 50.622 58.3851 49.7148 57.2673 49.7148ZM55.2423 77.7327H40.6191V53.7648H55.2436V77.7327H55.2423Z" fill="#C59C7E"/>
</svg>
