<svg width="14" height="14" viewBox="0 0 14 14" fill="none" xmlns="http://www.w3.org/2000/svg">
<path d="M2.57833 12.0049C2.4974 12.0047 2.41738 11.9878 2.34336 11.955C2.26935 11.9223 2.20296 11.8745 2.14841 11.8147C2.09288 11.7554 2.0505 11.6851 2.02406 11.6083C1.99762 11.5315 1.98772 11.4499 1.99499 11.369L2.13791 9.79754L8.74008 3.1977L10.8033 5.26037L4.20291 11.8596L2.63141 12.0025C2.61376 12.0042 2.59605 12.0049 2.57833 12.0049ZM11.2152 4.84795L9.15249 2.78529L10.3897 1.54804C10.4439 1.4938 10.5083 1.45077 10.5791 1.42142C10.6499 1.39206 10.7258 1.37695 10.8025 1.37695C10.8791 1.37695 10.955 1.39206 11.0258 1.42142C11.0967 1.45077 11.161 1.4938 11.2152 1.54804L12.4524 2.78529C12.5066 2.83946 12.5497 2.9038 12.579 2.97461C12.6084 3.04543 12.6235 3.12134 12.6235 3.198C12.6235 3.27465 12.6084 3.35056 12.579 3.42138C12.5497 3.49219 12.5066 3.55653 12.4524 3.6107L11.2157 4.84737L11.2152 4.84795Z" fill="white"/>
</svg>
