<svg width="33" height="34" viewBox="0 0 33 34" fill="none" xmlns="http://www.w3.org/2000/svg">
<path d="M27.5529 23.6784C31.0612 20.5475 33 17 33 17C33 17 26.8125 5.65625 16.5 5.65625C14.5191 5.66307 12.5607 6.07581 10.7456 6.869L12.3337 8.45919C13.6691 7.97276 15.0788 7.72221 16.5 7.71875C20.8725 7.71875 24.5004 10.1277 27.159 12.7863C28.4385 14.0727 29.5855 15.4843 30.5827 17C30.4631 17.1794 30.3311 17.3774 30.1805 17.594C29.4896 18.584 28.4687 19.904 27.159 21.2137C26.8187 21.554 26.4639 21.8902 26.0927 22.2161L27.5529 23.6784Z" fill="#C4C4C4"/>
<path d="M23.3001 19.4264C23.7603 18.139 23.8456 16.7475 23.5458 15.4136C23.2461 14.0797 22.5738 12.8584 21.6071 11.8917C20.6404 10.925 19.4191 10.2526 18.0852 9.95294C16.7513 9.65324 15.3598 9.73847 14.0724 10.1987L15.7699 11.8962C16.5625 11.7827 17.3707 11.8554 18.1303 12.1085C18.89 12.3616 19.5803 12.7882 20.1465 13.3544C20.7127 13.9206 21.1392 14.6108 21.3923 15.3705C21.6454 16.1302 21.7181 16.9383 21.6047 17.731L23.3001 19.4264ZM17.2301 22.1055L18.9255 23.8009C17.6382 24.2612 16.2466 24.3464 14.9127 24.0467C13.5789 23.747 12.3575 23.0747 11.3908 22.108C10.4241 21.1413 9.75179 19.9199 9.45208 18.586C9.15238 17.2522 9.23762 15.8606 9.69787 14.5733L11.3953 16.2707C11.2819 17.0634 11.3546 17.8715 11.6077 18.6312C11.8608 19.3909 12.2873 20.0811 12.8535 20.6473C13.4197 21.2135 14.11 21.6401 14.8697 21.8932C15.6293 22.1463 16.4375 22.219 17.2301 22.1055Z" fill="#C4C4C4"/>
<path d="M6.90937 11.7825C6.53812 12.1125 6.18131 12.4466 5.841 12.7869C4.56152 14.0733 3.41451 15.485 2.41725 17.0006L2.81944 17.5946C3.51038 18.5846 4.53131 19.9046 5.841 21.2143C8.49956 23.8729 12.1296 26.2819 16.5 26.2819C17.9767 26.2819 19.3669 26.0076 20.6663 25.5394L22.2544 27.1316C20.4392 27.9248 18.4808 28.3375 16.5 28.3444C6.1875 28.3444 0 17.0006 0 17.0006C0 17.0006 1.93669 13.4511 5.44706 10.3223L6.90731 11.7846L6.90937 11.7825ZM28.1449 30.1058L3.39488 5.35576L4.85513 3.89551L29.6051 28.6455L28.1449 30.1058Z" fill="#C4C4C4"/>
</svg>
