<svg width="102" height="109" viewBox="0 0 102 109" fill="none" xmlns="http://www.w3.org/2000/svg">
<g clip-path="url(#clip0_76_436)">
<path d="M2.51855 107.203C2.14077 107.203 1.88892 106.964 1.88892 106.605V2.39578C1.88892 2.03644 2.14077 1.79688 2.51855 1.79688H50.3704C50.7482 1.79688 51 2.03644 51 2.39578V106.605C51 106.964 50.7482 107.203 50.3704 107.203H2.51855Z" fill="white"/>
<path d="M49.1111 3.59341V105.407H3.77778V3.59341H49.1111ZM50.3704 0H2.51852C1.13333 0 0 1.07802 0 2.3956V106.604C0 107.922 1.13333 109 2.51852 109H50.3704C51.7556 109 52.8889 107.922 52.8889 106.604V2.3956C52.8889 1.07802 51.7556 0 50.3704 0Z" fill="#C59C7E"/>
<path d="M17.8814 32.3406H34.2518C35.2592 32.3406 36.1407 31.5022 36.1407 30.5439V14.9725C36.1407 14.0142 35.2592 13.1758 34.2518 13.1758H17.8814C16.874 13.1758 15.9926 14.0142 15.9926 14.9725V30.5439C15.9926 31.5022 16.874 32.3406 17.8814 32.3406ZM19.7703 16.7692H32.3629V28.7472H19.7703V16.7692Z" fill="#C59C7E"/>
<path d="M17.8814 62.2859H34.2518C35.2592 62.2859 36.1407 61.4475 36.1407 60.4892V44.9178C36.1407 43.9596 35.2592 43.1211 34.2518 43.1211H17.8814C16.874 43.1211 15.9926 43.9596 15.9926 44.9178V60.4892C15.9926 61.4475 16.874 62.2859 17.8814 62.2859ZM19.7703 46.7145H32.3629V58.6925H19.7703V46.7145Z" fill="#C59C7E"/>
<path d="M51.6296 107.203C51.2519 107.203 51 106.964 51 106.605V2.39578C51 2.03644 51.2519 1.79688 51.6296 1.79688H99.4815C99.8593 1.79688 100.111 2.03644 100.111 2.39578V106.605C100.111 106.964 99.8593 107.203 99.4815 107.203H51.6296Z" fill="white"/>
<path d="M98.2222 3.59341V105.407H52.8889V3.59341H98.2222ZM99.4815 0H51.6296C50.2444 0 49.1111 1.07802 49.1111 2.3956V106.604C49.1111 107.922 50.2444 109 51.6296 109H99.4815C100.867 109 102 107.922 102 106.604V2.3956C102 1.07802 100.867 0 99.4815 0Z" fill="#C59C7E"/>
<path d="M67.3703 32.3406H83.7407C84.7481 32.3406 85.6296 31.5022 85.6296 30.5439V14.9725C85.6296 14.0142 84.7481 13.1758 83.7407 13.1758H67.3703C66.3629 13.1758 65.4814 14.0142 65.4814 14.9725V30.5439C65.4814 31.5022 66.3629 32.3406 67.3703 32.3406ZM69.2592 16.7692H81.8518V28.7472H69.2592V16.7692Z" fill="#C59C7E"/>
<path d="M67.3705 62.2859H83.7408C84.7482 62.2859 85.6297 61.4475 85.6297 60.4892V44.9178C85.6297 43.9596 84.7482 43.1211 83.7408 43.1211H67.3705C66.363 43.1211 65.4816 43.9596 65.4816 44.9178V60.4892C65.4816 61.4475 66.363 62.2859 67.3705 62.2859ZM69.2593 46.7145H81.8519V58.6925H69.2593V46.7145Z" fill="#C59C7E"/>
<path d="M18.2593 109.599H34.6296C35.637 109.599 36.5185 108.161 36.5185 106.365V78.6955C36.5185 76.8988 35.637 75.4614 34.6296 75.4614H18.2593C17.2518 75.4614 16.3704 76.8988 16.3704 78.6955V106.485C16.3704 108.161 17.2518 109.599 18.2593 109.599ZM20.1481 79.0548H32.7407V106.005H20.1481V79.0548Z" fill="#C59C7E"/>
<path d="M67.3703 92.2308H83.7407C84.7481 92.2308 85.6296 91.3923 85.6296 90.4341V74.8626C85.6296 73.9044 84.7481 73.0659 83.7407 73.0659H67.3703C66.3629 73.0659 65.4814 73.9044 65.4814 74.8626V90.4341C65.4814 91.3923 66.3629 92.2308 67.3703 92.2308ZM69.2592 76.6593H81.8518V88.6374H69.2592V76.6593Z" fill="#C59C7E"/>
</g>
<defs>
<clipPath id="clip0_76_436">
<rect width="102" height="109" fill="white"/>
</clipPath>
</defs>
</svg>
