<svg width="146" height="140" viewBox="0 0 146 140" fill="none" xmlns="http://www.w3.org/2000/svg">
<path d="M15.8889 123.165H32.2593C33.2667 123.165 34.1481 122.326 34.1481 121.368V105.797C34.1481 104.838 33.2667 104 32.2593 104H15.8889C14.8815 104 14 104.838 14 105.797V121.368C14 122.326 14.8815 123.165 15.8889 123.165ZM17.7778 107.593H30.3704V119.571H17.7778V107.593Z" fill="#C59C7E"/>
<path d="M15.8889 90.1648H32.2593C33.2667 90.1648 34.1481 89.3264 34.1481 88.3681V72.7967C34.1481 71.8385 33.2667 71 32.2593 71H15.8889C14.8815 71 14 71.8385 14 72.7967V88.3681C14 89.3264 14.8815 90.1648 15.8889 90.1648ZM17.7778 74.5934H30.3704V86.5714H17.7778V74.5934Z" fill="#C59C7E"/>
<path d="M48.0371 123.165H64.4074C65.4149 123.165 66.2963 122.326 66.2963 121.368V105.797C66.2963 104.838 65.4149 104 64.4074 104H48.0371C47.0297 104 46.1482 104.838 46.1482 105.797V121.368C46.1482 122.326 47.0297 123.165 48.0371 123.165ZM49.926 107.593H62.5186V119.571H49.926V107.593Z" fill="#C59C7E"/>
<path d="M48.0371 90.1648H64.4074C65.4149 90.1648 66.2963 89.3264 66.2963 88.3681V72.7967C66.2963 71.8385 65.4149 71 64.4074 71H48.0371C47.0297 71 46.1482 71.8385 46.1482 72.7967V88.3681C46.1482 89.3264 47.0297 90.1648 48.0371 90.1648ZM49.926 74.5934H62.5186V86.5714H49.926V74.5934Z" fill="#C59C7E"/>
<path d="M80.1852 123.165H96.5555C97.5629 123.165 98.4444 122.326 98.4444 121.368V105.797C98.4444 104.838 97.5629 104 96.5555 104H80.1852C79.1777 104 78.2963 104.838 78.2963 105.797V121.368C78.2963 122.326 79.1777 123.165 80.1852 123.165ZM82.074 107.593H94.6666V119.571H82.074V107.593Z" fill="#C59C7E"/>
<path d="M80.1852 90.1648H96.5555C97.5629 90.1648 98.4444 89.3264 98.4444 88.3681V72.7967C98.4444 71.8385 97.5629 71 96.5555 71H80.1852C79.1777 71 78.2963 71.8385 78.2963 72.7967V88.3681C78.2963 89.3264 79.1777 90.1648 80.1852 90.1648ZM82.074 74.5934H94.6666V86.5714H82.074V74.5934Z" fill="#C59C7E"/>
<path d="M112.333 123.165H128.704C129.711 123.165 130.592 122.326 130.592 121.368V105.797C130.592 104.838 129.711 104 128.704 104H112.333C111.326 104 110.444 104.838 110.444 105.797V121.368C110.444 122.326 111.326 123.165 112.333 123.165ZM114.222 107.593H126.815V119.571H114.222V107.593Z" fill="#C59C7E"/>
<path d="M112.333 90.1648H128.704C129.711 90.1648 130.592 89.3264 130.592 88.3681V72.7967C130.592 71.8385 129.711 71 128.704 71H112.333C111.326 71 110.444 71.8385 110.444 72.7967V88.3681C110.444 89.3264 111.326 90.1648 112.333 90.1648ZM114.222 74.5934H126.815V86.5714H114.222V74.5934Z" fill="#C59C7E"/>
<rect x="2" y="58" width="142" height="80" stroke="#C59C7E" stroke-width="3" stroke-linejoin="round"/>
<path d="M75 58H51L56 28H69.9231L75 58Z" stroke="#C59C7E" stroke-width="3" stroke-miterlimit="10" stroke-linejoin="round"/>
<path d="M46 58H22L27 28H40.9231L46 58Z" stroke="#C59C7E" stroke-width="3" stroke-miterlimit="10" stroke-linejoin="round"/>
<path d="M45.475 6.99989C74.7666 -10.0001 74.7666 18.9999 100.892 6.99989" stroke="#C59C7E" stroke-width="3" stroke-miterlimit="10"/>
<path d="M45.475 14.9999C74.7666 -2.00011 74.7666 26.9999 100.892 14.9999" stroke="#C59C7E" stroke-width="3" stroke-miterlimit="10"/>
</svg>
