<svg width="133" height="85" viewBox="0 0 133 85" fill="none" xmlns="http://www.w3.org/2000/svg">
<path d="M132.592 41.1739L123.131 27.5594C121.724 25.5403 119.844 23.8902 117.654 22.7503C115.464 21.6105 113.029 21.015 110.556 21.0148H86.1477V2.25158C86.1477 1.65443 85.9089 1.08173 85.4837 0.659474C85.0586 0.237221 84.4819 0 83.8807 0H2.26705C1.66579 0 1.08916 0.237221 0.664002 0.659474C0.238848 1.08173 0 1.65443 0 2.25158V72.8012C0 73.3983 0.238848 73.971 0.664002 74.3933C1.08916 74.8155 1.66579 75.0527 2.26705 75.0527H20.9928C21.3571 77.8044 22.7162 80.3307 24.8169 82.1608C26.9177 83.9909 29.6168 85 32.4112 85C35.2056 85 37.9047 83.9909 40.0054 82.1608C42.1062 80.3307 43.4653 77.8044 43.8295 75.0527H94.43C94.841 77.7643 96.2178 80.2395 98.3104 82.0283C100.403 83.8172 103.072 84.801 105.833 84.801C108.594 84.801 111.264 83.8172 113.356 82.0283C115.449 80.2395 116.826 77.7643 117.236 75.0527H130.733C131.334 75.0527 131.911 74.8155 132.336 74.3933C132.761 73.971 133 73.3983 133 72.8012V42.4498C133.001 41.9927 132.859 41.5466 132.592 41.1739ZM110.556 25.5179C112.296 25.5168 114.009 25.9357 115.55 26.7385C117.09 27.5413 118.41 28.7039 119.398 30.1262L126.637 40.5285H86.1477V25.5179H110.556ZM32.4036 80.3064C31.0147 80.3124 29.6553 79.9086 28.4978 79.1462C27.3403 78.3839 26.4367 77.2973 25.9018 76.0243C25.3668 74.7513 25.2245 73.3492 25.4929 71.9957C25.7613 70.6423 26.4283 69.3985 27.4093 68.422C28.3904 67.4455 29.6413 66.7804 31.0034 66.5109C32.3656 66.2414 33.7776 66.3797 35.0605 66.9083C36.3434 67.4369 37.4394 68.3319 38.2095 69.4799C38.9796 70.6279 39.3891 71.9771 39.3861 73.3566C39.3822 75.196 38.6457 76.9591 37.3375 78.2612C36.0293 79.5633 34.2557 80.2985 32.4036 80.3064ZM32.4036 61.8885C29.8254 61.8803 27.3183 62.7282 25.2809 64.2975C23.2435 65.8668 21.7927 68.0674 21.1591 70.5496H4.53409V4.50317H81.6136V70.5496H43.5575C42.9301 68.0811 41.4934 65.8901 39.474 64.322C37.4545 62.7538 34.967 61.8977 32.4036 61.8885ZM105.795 80.3064C104.408 80.3064 103.051 79.8976 101.898 79.1316C100.744 78.3656 99.8454 77.277 99.3151 76.0034C98.7848 74.7299 98.6468 73.3287 98.9186 71.9772C99.1904 70.6258 99.8598 69.3848 100.842 68.4113C101.824 67.4379 103.075 66.7757 104.437 66.5087C105.798 66.2416 107.208 66.3817 108.49 66.9111C109.771 67.4406 110.865 68.3356 111.634 69.483C112.402 70.6303 112.811 71.9784 112.808 73.3566C112.804 75.2012 112.064 76.9689 110.749 78.2718C109.434 79.5747 107.653 80.3064 105.795 80.3064ZM116.98 70.5496C116.359 68.0715 114.922 65.8707 112.897 64.2979C110.871 62.725 108.374 61.8705 105.803 61.8705C103.232 61.8705 100.735 62.725 98.7094 64.2979C96.6839 65.8707 95.2466 68.0715 94.6265 70.5496H86.1477V45.0317H128.466V70.5496H116.98Z" fill="#C59C7E"/>
</svg>
