<svg width="103" height="136" viewBox="0 0 103 136" fill="none" xmlns="http://www.w3.org/2000/svg">
<mask id="path-1-inside-1_86_476" fill="white">
<path fill-rule="evenodd" clip-rule="evenodd" d="M28.4587 81.2222C27.3542 81.2222 26.4587 82.1176 26.4587 83.2222V89.567V95.0858V131.043C26.4587 132.147 27.3542 133.043 28.4587 133.043H44.1951C45.2997 133.043 46.1951 132.147 46.1951 131.043V97.0858H49.4846V131.043C49.4846 132.147 50.38 133.043 51.4846 133.043H68.3174C69.4219 133.043 70.3174 132.147 70.3174 131.043V89.567C70.3174 89.5611 70.3173 89.5552 70.3173 89.5493V83.2222C70.3173 82.1176 69.4219 81.2222 68.3173 81.2222H28.4587Z"/>
</mask>
<path d="M46.1951 97.0858V94.0858H43.1951V97.0858H46.1951ZM49.4846 97.0858H52.4846V94.0858H49.4846V97.0858ZM70.3173 89.5493H67.3173V89.562L67.3174 89.5747L70.3173 89.5493ZM29.4587 83.2222C29.4587 83.7745 29.011 84.2222 28.4587 84.2222V78.2222C25.6973 78.2222 23.4587 80.4607 23.4587 83.2222H29.4587ZM29.4587 89.567V83.2222H23.4587V89.567H29.4587ZM23.4587 89.567V95.0858H29.4587V89.567H23.4587ZM23.4587 95.0858V131.043H29.4587V95.0858H23.4587ZM23.4587 131.043C23.4587 133.804 25.6973 136.043 28.4587 136.043V130.043C29.011 130.043 29.4587 130.49 29.4587 131.043H23.4587ZM28.4587 136.043H44.1951V130.043H28.4587V136.043ZM44.1951 136.043C46.9565 136.043 49.1951 133.804 49.1951 131.043H43.1951C43.1951 130.49 43.6428 130.043 44.1951 130.043V136.043ZM49.1951 131.043V97.0858H43.1951V131.043H49.1951ZM49.4846 94.0858H46.1951V100.086H49.4846V94.0858ZM46.4846 97.0858V131.043H52.4846V97.0858H46.4846ZM46.4846 131.043C46.4846 133.804 48.7231 136.043 51.4846 136.043V130.043C52.0368 130.043 52.4846 130.49 52.4846 131.043H46.4846ZM51.4846 136.043H68.3174V130.043H51.4846V136.043ZM68.3174 136.043C71.0788 136.043 73.3174 133.804 73.3174 131.043H67.3174C67.3174 130.49 67.7651 130.043 68.3174 130.043V136.043ZM73.3174 131.043V89.567H67.3174V131.043H73.3174ZM73.3174 89.567C73.3174 89.5521 73.3173 89.5377 73.3172 89.524L67.3174 89.5747C67.3174 89.5727 67.3174 89.5702 67.3174 89.567H73.3174ZM67.3173 83.2222V89.5493H73.3173V83.2222H67.3173ZM68.3173 84.2222C67.765 84.2222 67.3173 83.7745 67.3173 83.2222H73.3173C73.3173 80.4607 71.0787 78.2222 68.3173 78.2222V84.2222ZM28.4587 84.2222H68.3173V78.2222H28.4587V84.2222Z" fill="#C59C7E" mask="url(#path-1-inside-1_86_476)"/>
<path d="M48.4363 26.9384C54.7876 26.9384 59.9363 21.824 59.9363 15.5151C59.9363 9.20617 54.7876 4.0918 48.4363 4.0918C42.0851 4.0918 36.9363 9.20617 36.9363 15.5151C36.9363 21.824 42.0851 26.9384 48.4363 26.9384Z" stroke="#C59C7E" stroke-width="3.5" stroke-miterlimit="10"/>
<path d="M92.3399 117.276H60.1794C58.6398 117.276 57.4423 116.203 57.4423 114.825V97.0593C57.4423 95.681 58.6398 94.6089 60.1794 94.6089H92.3399C93.8795 94.6089 95.0769 95.681 95.0769 97.0593V114.825C95.0769 116.203 93.8795 117.276 92.3399 117.276Z" fill="white" stroke="#C59C7E" stroke-width="3.5" stroke-miterlimit="10"/>
<line x1="95.0769" y1="104.243" x2="57.4423" y2="104.243" stroke="#C59C7E" stroke-width="3.5"/>
<path d="M17.796 41.4682C17.8349 40.5247 18.3132 39.6563 19.1124 39.1533C21.8688 37.4182 28.6882 33.4422 34.7147 32.4731C42.4841 31.2237 51.9183 31.2239 59.1328 32.4731C64.7643 33.4483 73.2278 37.4687 76.6707 39.186C77.6275 39.6633 78.2365 40.6269 78.2807 41.6952L80.0922 85.5718C80.1625 87.2758 78.8001 88.6956 77.0947 88.6956H18.9725C17.2671 88.6956 15.9047 87.2758 15.9751 85.5718L17.796 41.4682Z" fill="white" stroke="#C59C7E" stroke-width="3.5" stroke-linejoin="round"/>
<path d="M28 88L28 48" stroke="#C59C7E" stroke-width="3.5" stroke-linejoin="round"/>
<path d="M40 88L39.5446 32" stroke="#C59C7E" stroke-width="3.5" stroke-linejoin="round"/>
<path d="M57.0179 87.2974L57.0179 32.1622" stroke="#C59C7E" stroke-width="3.5" stroke-linejoin="round"/>
<path d="M68.0367 88.7778L68.0367 47.2223" stroke="#C59C7E" stroke-width="3.5"/>
<rect x="70.4868" y="89.6812" width="12" height="4.96664" stroke="#C59C7E" stroke-width="3.5" stroke-linejoin="round"/>
<line x1="15.8461" y1="79.0615" x2="28.8461" y2="79.0615" stroke="#C59C7E" stroke-width="3.5"/>
<line x1="67.0917" y1="79.062" x2="80.0917" y2="79.062" stroke="#C59C7E" stroke-width="3.5"/>
</svg>
