<svg width="20" height="19" viewBox="0 0 20 19" fill="none" xmlns="http://www.w3.org/2000/svg">
<path d="M19.666 10.277C19.7328 10.058 19.7899 9.8361 19.837 9.61201C19.84 9.59501 19.841 9.57901 19.845 9.56201C19.865 9.46401 19.874 9.363 19.89 9.264C19.915 9.10701 19.945 8.951 19.96 8.793C20.079 7.61436 19.9341 6.424 19.5357 5.30834C19.1374 4.19268 18.4956 3.17973 17.657 2.343C16.9148 1.59921 16.033 1.00935 15.0622 0.60727C14.0914 0.205192 13.0508 -0.00117901 12 5.0665e-06V8H4.517L3.659 6.00001H0V8H2.341L4.169 12.266C3.52813 12.5301 2.97999 12.9783 2.5939 13.554C2.20781 14.1296 2.00113 14.8069 2 15.5C2 17.43 3.57 19 5.5 19C7.259 19 8.704 17.691 8.949 16H11.051C11.296 17.691 12.741 19 14.5 19C16.43 19 18 17.43 18 15.5C18 14.87 17.819 14.287 17.527 13.775C17.569 13.734 17.616 13.698 17.658 13.656C18.018 13.295 18.346 12.897 18.635 12.472C18.923 12.042 19.171 11.586 19.371 11.113C19.387 11.076 19.397 11.037 19.412 11H19.413L19.428 10.958C19.516 10.738 19.596 10.517 19.663 10.29L19.666 10.277ZM5.5 17C4.673 17 4 16.327 4 15.5C4 14.673 4.673 14 5.5 14C6.327 14 7 14.673 7 15.5C7 16.327 6.327 17 5.5 17ZM14.5 17C13.673 17 13 16.327 13 15.5C13 14.673 13.673 14 14.5 14C15.327 14 16 14.673 16 15.5C16 16.327 15.327 17 14.5 17Z" fill="#C4C4C4"/>
</svg>
