<svg width="22" height="22" viewBox="0 0 22 22" fill="none" xmlns="http://www.w3.org/2000/svg">
<path d="M16.18 10.4004L18.0987 8.48139L13.5159 3.89777L11.5973 5.81678L6.538 0.768692C5.5848 -0.1847 4.03279 -0.1847 3.07958 0.768692L0.757675 3.09106C-0.195529 4.04445 -0.195529 5.59677 0.757675 6.55016L5.80477 11.5982L0.183309 17.233C0.0611029 17.3553 0 17.5019 0 17.6731V21.3889C0 21.7311 0.268852 22 0.611028 22H4.32608C4.48495 22 4.64381 21.9389 4.7538 21.8167L10.3997 16.1696L15.4468 21.2177C17.0599 22.8312 18.8197 21.3033 18.9052 21.2177L21.2271 18.8954C22.1803 17.942 22.1803 16.3897 21.2271 15.4363L16.18 10.4004ZM7.55231 9.86258L2.493 4.8145L4.80268 2.49213L6.35469 4.04445L5.78033 4.64337C5.55183 4.87192 5.42346 5.18189 5.42346 5.5051C5.42346 5.8283 5.55183 6.13827 5.78033 6.36681C6.00882 6.59536 6.31873 6.72375 6.64188 6.72375C6.96502 6.72375 7.27493 6.59536 7.50343 6.36681L8.09001 5.78011L9.86199 7.55244L7.55231 9.86258ZM17.1821 19.5065L12.135 14.4584L14.4569 12.1361L16.2289 13.9084L15.6423 14.4951C15.5292 14.6083 15.4394 14.7426 15.3782 14.8905C15.317 15.0383 15.2855 15.1968 15.2855 15.3568C15.2855 15.5168 15.317 15.6753 15.3782 15.8232C15.4394 15.971 15.5292 16.1054 15.6423 16.2185C15.7555 16.3317 15.8898 16.4215 16.0376 16.4827C16.1854 16.5439 16.3439 16.5755 16.5039 16.5755C16.6639 16.5755 16.8223 16.5439 16.9701 16.4827C17.118 16.4215 17.2523 16.3317 17.3654 16.2185L17.952 15.6318L19.504 17.1841L17.1821 19.5065ZM21.6426 4.93673C21.7559 4.82365 21.8458 4.68933 21.9071 4.54146C21.9684 4.3936 22 4.23509 22 4.07501C22 3.91492 21.9684 3.75641 21.9071 3.60855C21.8458 3.46068 21.7559 3.32637 21.6426 3.21329L18.783 0.353111C18.2086 -0.221369 17.4143 -0.00135535 17.0599 0.353111L14.8235 2.58992L19.4063 7.17353L21.6426 4.93673Z" fill="#C59C7E"/>
</svg>
