<svg width="17" height="17" viewBox="0 0 17 17" fill="none" xmlns="http://www.w3.org/2000/svg">
<path d="M8.5 15.5837C11.4166 15.5837 13.8125 13.2724 13.8125 10.3059C13.8125 9.5777 13.7753 8.79712 13.3716 7.58374C12.9678 6.37037 12.8867 6.21383 12.4599 5.46441C12.2775 6.99335 11.3018 7.63085 11.0539 7.82139C11.0539 7.62306 10.4639 5.43183 9.56887 4.12035C8.69019 2.83366 7.49523 1.98968 6.79469 1.41699C6.79469 2.50428 6.48904 4.1207 6.05094 4.94449C5.61319 5.76793 5.53102 5.79803 4.98383 6.41074C4.437 7.02345 4.1859 7.21293 3.72831 7.95668C3.27108 8.70043 3.1875 9.69103 3.1875 10.4192C3.1875 13.3857 5.58344 15.5837 8.5 15.5837Z" stroke="#146492" stroke-width="2" stroke-linejoin="round"/>
</svg>
