<svg width="116" height="96" viewBox="0 0 116 96" fill="none" xmlns="http://www.w3.org/2000/svg">
<path d="M110.053 66.264L87.1314 59.1132L73.7737 46.4562C71.4185 44.2321 68.3031 42.9954 65.0667 43H38.8983C27.3366 43 21.6034 55.1922 20.1046 58.9821L10.1368 61.5921C8.10129 62.1187 6.29709 63.3059 5.00596 64.9682C3.71482 66.6306 3.00946 68.6746 3 70.781V80.1009C3 81.9563 3.73562 83.7357 5.04504 85.0477C6.35446 86.3597 8.13041 87.0968 9.98221 87.0968H15.9296C16.2869 89.5692 17.5211 91.83 19.4063 93.465C21.2915 95.1001 23.7014 96 26.1947 96C28.6881 96 31.098 95.1001 32.9832 93.465C34.8683 91.83 36.1026 89.5692 36.4599 87.0968H77.3064C77.6637 89.5692 78.8979 91.83 80.7831 93.465C82.6683 95.1001 85.0782 96 87.5715 96C90.0649 96 92.4748 95.1001 94.36 93.465C96.2451 91.83 97.4794 89.5692 97.8367 87.0968H109.018C110.87 87.0968 112.645 86.3597 113.955 85.0477C115.264 83.7357 116 81.9563 116 80.1009V74.3921C116.006 72.5783 115.431 70.8104 114.361 69.3476C113.291 67.8848 111.781 66.8041 110.053 66.264ZM38.934 46.5754H65.1024C67.4295 46.5713 69.6693 47.463 71.359 49.0663L81.3268 58.4935H24.2321C26.2899 54.2626 31.0597 46.5754 38.934 46.5754ZM26.2066 92.4599C24.8576 92.4622 23.5382 92.0634 22.4156 91.3139C21.2929 90.5645 20.4175 89.498 19.9001 88.2497C19.3828 87.0014 19.2468 85.6273 19.5094 84.3015C19.772 82.9757 20.4214 81.7578 21.3753 80.802C22.3292 79.8462 23.5448 79.1956 24.868 78.9324C26.1912 78.6693 27.5626 78.8056 28.8085 79.3239C30.0544 79.8423 31.1187 80.7194 31.8667 81.8443C32.6147 82.9691 33.0128 84.2911 33.0104 85.6427C33.0073 87.4498 32.2894 89.1819 31.0142 90.4597C29.7389 91.7375 28.0101 92.4567 26.2066 92.4599ZM87.5834 92.4599C86.2344 92.4622 84.915 92.0634 83.7924 91.3139C82.6697 90.5645 81.7943 89.498 81.277 88.2497C80.7596 87.0014 80.6236 85.6273 80.8863 84.3015C81.1489 82.9757 81.7982 81.7578 82.7521 80.802C83.706 79.8462 84.9216 79.1956 86.2448 78.9324C87.568 78.6693 88.9394 78.8056 90.1853 79.3239C91.4312 79.8423 92.4955 80.7194 93.2435 81.8443C93.9915 82.9691 94.3896 84.2911 94.3872 85.6427C94.3841 87.4498 93.6662 89.1819 92.391 90.4597C91.1157 91.7375 89.3869 92.4567 87.5834 92.4599ZM112.432 80.1009C112.428 81.0071 112.068 81.8753 111.428 82.516C110.789 83.1568 109.922 83.5182 109.018 83.5213H97.7296C97.2472 81.1792 95.9732 79.0754 94.1227 77.5649C92.2722 76.0543 89.9584 75.2295 87.5715 75.2295C85.1847 75.2295 82.8708 76.0543 81.0203 77.5649C79.1698 79.0754 77.8959 81.1792 77.4134 83.5213H36.3052C35.781 81.2276 34.4955 79.18 32.6588 77.7136C30.8222 76.2471 28.5432 75.4485 26.1947 75.4485C23.8462 75.4485 21.5673 76.2471 19.7306 77.7136C17.894 79.18 16.6084 81.2276 16.0842 83.5213H9.98221C9.07778 83.5182 8.21129 83.1568 7.57176 82.516C6.93223 81.8753 6.57155 81.0071 6.56842 80.1009V70.781C6.57454 69.471 7.01131 68.1995 7.81116 67.1633C8.61102 66.127 9.72939 65.3837 10.9933 65.0484L21.1751 62.4145C21.6432 62.4727 22.1157 62.349 22.4955 62.0689H85.145C85.3016 62.1939 85.4787 62.2907 85.6684 62.3549L108.982 69.6845C109.994 69.9987 110.877 70.6331 111.499 71.4926C112.121 72.352 112.448 73.3903 112.432 74.4517V80.1009Z" fill="#C59C7E"/>
<path fill-rule="evenodd" clip-rule="evenodd" d="M56.9715 5.06743L4.14483 32.0491C3.11711 32.5741 1.7727 32.2161 1.142 31.2497C0.511295 30.2833 0.833137 29.0744 1.86085 28.5495L55.8962 0.950398C56.2323 0.778746 56.6022 0.701498 56.97 0.709062C57.3387 0.701033 57.7097 0.778235 58.0466 0.950337L112.082 28.5494C113.11 29.0743 113.432 30.2833 112.801 31.2497C112.17 32.2161 110.826 32.574 109.798 32.0491L56.9715 5.06743Z" fill="#C59C7E"/>
</svg>
