<svg width="20" height="18" viewBox="0 0 20 18" fill="none" xmlns="http://www.w3.org/2000/svg">
<path d="M17.2969 13.1336C16.9532 12.1531 16.152 11.6563 15.3786 11.1758C14.7055 10.7574 14.07 10.3621 13.6544 9.65234C12.5087 7.68633 11.8794 6.5 10.0024 6.5C8.12546 6.5 7.49421 7.68672 6.34577 9.65195C5.92976 10.3633 5.29109 10.7594 4.61726 11.1785C3.84382 11.6594 3.04421 12.1551 2.69929 13.1336C2.56505 13.4864 2.49749 13.8612 2.50007 14.2387C2.50007 15.8301 3.76765 17.125 5.17195 17.125C6.57624 17.125 8.42624 16.4168 10.0063 16.4168C11.5864 16.4168 13.4106 17.125 14.8325 17.125C16.2544 17.125 17.5001 15.8301 17.5001 14.2387C17.5012 13.8609 17.4323 13.4862 17.2969 13.1336Z" fill="#C4C4C4"/>
<path d="M2.8125 10.25C4.02062 10.25 5 8.9908 5 7.4375C5 5.8842 4.02062 4.625 2.8125 4.625C1.60438 4.625 0.625 5.8842 0.625 7.4375C0.625 8.9908 1.60438 10.25 2.8125 10.25Z" fill="#C4C4C4"/>
<path d="M7.1875 6.5C8.39562 6.5 9.375 5.2408 9.375 3.6875C9.375 2.1342 8.39562 0.875 7.1875 0.875C5.97938 0.875 5 2.1342 5 3.6875C5 5.2408 5.97938 6.5 7.1875 6.5Z" fill="#C4C4C4"/>
<path d="M12.8125 6.5C14.0206 6.5 15 5.2408 15 3.6875C15 2.1342 14.0206 0.875 12.8125 0.875C11.6044 0.875 10.625 2.1342 10.625 3.6875C10.625 5.2408 11.6044 6.5 12.8125 6.5Z" fill="#C4C4C4"/>
<path d="M17.1875 10.25C18.3956 10.25 19.375 8.9908 19.375 7.4375C19.375 5.8842 18.3956 4.625 17.1875 4.625C15.9794 4.625 15 5.8842 15 7.4375C15 8.9908 15.9794 10.25 17.1875 10.25Z" fill="#C4C4C4"/>
</svg>
