<svg width="23" height="29" viewBox="0 0 23 29" fill="none" xmlns="http://www.w3.org/2000/svg">
<path d="M11.5 29C11.5 29 23 18.6941 23 10.875C23 7.99077 21.7884 5.22467 19.6317 3.18521C17.4751 1.14576 14.55 0 11.5 0C8.45001 0 5.52494 1.14576 3.36827 3.18521C1.2116 5.22467 4.54484e-08 7.99077 0 10.875C0 18.6941 11.5 29 11.5 29ZM11.5 16.3125C9.97501 16.3125 8.51247 15.7396 7.43414 14.7199C6.3558 13.7002 5.75 12.3171 5.75 10.875C5.75 9.43289 6.3558 8.04984 7.43414 7.03011C8.51247 6.01038 9.97501 5.4375 11.5 5.4375C13.025 5.4375 14.4875 6.01038 15.5659 7.03011C16.6442 8.04984 17.25 9.43289 17.25 10.875C17.25 12.3171 16.6442 13.7002 15.5659 14.7199C14.4875 15.7396 13.025 16.3125 11.5 16.3125Z" fill="#C59C7E"/>
</svg>
