<svg width="26" height="52" viewBox="0 0 26 52" fill="none" xmlns="http://www.w3.org/2000/svg">
<path d="M12.0489 2.92705C12.3483 2.00574 13.6517 2.00574 13.9511 2.92705L15.6942 8.29179C15.828 8.70382 16.212 8.98278 16.6452 8.98278H22.2861C23.2548 8.98278 23.6576 10.2224 22.8738 10.7918L18.3103 14.1074C17.9598 14.362 17.8132 14.8134 17.947 15.2254L19.6902 20.5902C19.9895 21.5115 18.935 22.2776 18.1513 21.7082L13.5878 18.3926C13.2373 18.138 12.7627 18.138 12.4122 18.3926L7.84869 21.7082C7.06498 22.2776 6.0105 21.5115 6.30985 20.5902L8.05296 15.2254C8.18683 14.8134 8.04018 14.362 7.68969 14.1074L3.12616 10.7918C2.34245 10.2224 2.74523 8.98278 3.71395 8.98278H9.35477C9.788 8.98278 10.172 8.70382 10.3058 8.2918L12.0489 2.92705Z" fill="#C4C4C4"/>
<path d="M12.0489 28.9271C12.3483 28.0057 13.6517 28.0057 13.9511 28.9271L15.6942 34.2918C15.828 34.7038 16.212 34.9828 16.6452 34.9828H22.2861C23.2548 34.9828 23.6576 36.2224 22.8738 36.7918L18.3103 40.1074C17.9598 40.362 17.8132 40.8134 17.947 41.2254L19.6902 46.5902C19.9895 47.5115 18.935 48.2776 18.1513 47.7082L13.5878 44.3926C13.2373 44.138 12.7627 44.138 12.4122 44.3926L7.84869 47.7082C7.06498 48.2776 6.0105 47.5115 6.30985 46.5902L8.05296 41.2254C8.18683 40.8134 8.04018 40.362 7.68969 40.1074L3.12616 36.7918C2.34245 36.2224 2.74523 34.9828 3.71395 34.9828H9.35477C9.788 34.9828 10.172 34.7038 10.3058 34.2918L12.0489 28.9271Z" fill="#165D85"/>
</svg>
