<svg width="13" height="15" viewBox="0 0 13 15" fill="none" xmlns="http://www.w3.org/2000/svg">
<path d="M6.15964 1.42955C4.65204 1.43204 3.19312 1.96347 2.03714 2.93122V0.664551H0.882552V5.26872H5.48672V4.10705H2.46214C3.26019 3.32731 4.28458 2.82019 5.38853 2.65835C6.49248 2.49652 7.61933 2.68827 8.60761 3.20614C9.59589 3.72401 10.3949 4.54142 10.8901 5.54123C11.3853 6.54105 11.5514 7.67197 11.3645 8.77195C11.1775 9.87193 10.6472 10.8845 9.8495 11.6646C9.05179 12.4447 8.02762 12.9523 6.92374 13.1146C5.81987 13.2769 4.69294 13.0857 3.70443 12.5682C2.71592 12.0508 1.91656 11.2337 1.42089 10.2341L0.386719 10.7512C0.898079 11.7815 1.67555 12.6565 2.63862 13.2854C3.6017 13.9143 4.71538 14.2744 5.86436 14.3283C7.01334 14.3822 8.15585 14.128 9.1736 13.5921C10.1914 13.0561 11.0473 12.2579 11.653 11.28C12.2586 10.3021 12.5918 9.18008 12.6181 8.03014C12.6444 6.8802 12.3629 5.74412 11.8027 4.73954C11.2425 3.73495 10.4239 2.89836 9.43172 2.3164C8.43956 1.73444 7.30988 1.42826 6.15964 1.42955V1.42955Z" fill="white"/>
</svg>
