<svg width="20" height="20" viewBox="0 0 20 20" fill="none" xmlns="http://www.w3.org/2000/svg">
<path d="M10 10C8.61193 10 7.42913 9.51267 6.45161 8.53801C5.4741 7.56335 4.98534 6.38402 4.98534 5C4.98534 3.61598 5.4741 2.43665 6.45161 1.46199C7.42913 0.487329 8.61193 0 10 0C11.3881 0 12.5709 0.487329 13.5484 1.46199C14.5259 2.43665 15.0147 3.61598 15.0147 5C15.0147 6.38402 14.5259 7.56335 13.5484 8.53801C12.5709 9.51267 11.3881 10 10 10ZM10 12.5146C11.2317 12.5146 12.5904 12.6901 14.0762 13.0409C15.5621 13.3918 16.9208 13.9669 18.1525 14.7661C19.3842 15.5653 20 16.4717 20 17.4854V20H0V17.4854C0 16.4717 0.615836 15.5653 1.84751 14.7661C3.07918 13.9669 4.43793 13.3918 5.92375 13.0409C7.40958 12.6901 8.76833 12.5146 10 12.5146Z" fill="#C59C7E"/>
</svg>
