<svg width="107" height="126" viewBox="0 0 107 126" fill="none" xmlns="http://www.w3.org/2000/svg">
<g clip-path="url(#clip0_3045_1958)">
<path fill-rule="evenodd" clip-rule="evenodd" d="M46.9288 1.97451L46.9302 1.97307C49.3891 -0.657689 53.4101 -0.657689 55.8675 1.97307L98.1015 47.1866C100.559 49.8173 100.559 54.1235 98.1015 56.7527V56.7542C95.6441 59.3849 91.6216 59.3865 89.1642 56.7542L46.9288 11.5423C44.4713 8.91003 44.4713 4.6053 46.9288 1.97453V1.97451Z" fill="#D46B25"/>
<path fill-rule="evenodd" clip-rule="evenodd" d="M93.6329 122.722H93.6314C90.155 122.722 87.312 119.677 87.312 115.956V52.0159C87.312 48.2955 90.1564 45.2505 93.6314 45.2505H93.6329C97.1082 45.2505 99.9526 48.294 99.9526 52.0159V115.956C99.9526 119.678 97.1093 122.722 93.6329 122.722Z" fill="#D46B25"/>
<path fill-rule="evenodd" clip-rule="evenodd" d="M8.29066 122.722H8.2893C4.81273 122.722 1.96973 119.677 1.96973 115.956V52.0159C1.96973 48.2955 4.81409 45.2505 8.2893 45.2505H8.29066C11.7659 45.2505 14.6103 48.294 14.6103 52.0159V115.956C14.6103 119.678 11.7672 122.722 8.29066 122.722Z" fill="#D46B25"/>
<path fill-rule="evenodd" clip-rule="evenodd" d="M99.9507 115.954V115.956C99.9507 119.677 97.0971 122.721 93.6313 122.721H8.29006C4.82426 122.721 1.97046 119.666 1.97046 115.956V115.954C1.97046 112.244 4.81345 109.189 8.29006 109.189H93.6313C97.1078 109.189 99.9507 112.233 99.9507 115.954Z" fill="#D46B25"/>
<path fill-rule="evenodd" clip-rule="evenodd" d="M3.80024 56.756L3.79892 56.7544C1.34144 54.1222 1.34144 49.8176 3.79892 47.1868L46.034 1.97478C48.4914 -0.65598 52.5142 -0.65598 54.9702 1.97478H54.9717C57.4291 4.60553 57.4305 8.91171 54.9717 11.5425L12.7377 56.756C10.2789 59.3867 6.25774 59.3867 3.80027 56.756H3.80024Z" fill="#D46B25"/>
<path fill-rule="evenodd" clip-rule="evenodd" d="M47.4915 104.002L47.4929 104.004C49.9518 106.635 53.9525 106.609 56.4303 104.004L104.36 53.6096C106.837 51.0048 106.816 46.6712 104.36 44.0431V44.042C101.903 41.4124 97.9013 41.4327 95.4221 44.042L47.4915 94.4347C45.0127 97.0437 45.0341 101.372 47.4915 104.002Z" fill="#0F6F90"/>
<path fill-rule="evenodd" clip-rule="evenodd" d="M28.15 72.9541H28.1486C25.6899 75.5863 25.7424 79.8493 28.1486 82.522L47.4916 104.005C49.8991 106.678 53.9783 106.63 56.429 104.005L56.4304 104.004C58.8825 101.38 58.8447 97.1159 56.4304 94.4359L37.0873 72.9541C34.6718 70.276 30.6075 70.3218 28.15 72.9541Z" fill="#0F6F90"/>
</g>
<defs>
<clipPath id="clip0_3045_1958">
<rect width="107" height="126" fill="white"/>
</clipPath>
</defs>
</svg>
