<svg class="fill" width="84" height="88" viewBox="0 0 84 88" fill="none"
     xmlns="http://www.w3.org/2000/svg">
    <path
          d="M43.147 66.9147H13.1234V24.4083L38.6111 3.17477L63.4873 23.5381V50.226C63.4873 50.9813 64.1264 51.5944 64.9161 51.5944C65.7057 51.5944 66.3449 50.9813 66.3449 50.226V25.8771L75.6425 33.488C75.912 33.7078 76.2416 33.8155 76.5702 33.8155C76.9732 33.8155 77.3742 33.6522 77.6571 33.3366C78.1705 32.7618 78.099 31.8989 77.4989 31.4071L39.5313 0.32854C38.9921 -0.11299 38.1987 -0.108429 37.6653 0.335838L0.491035 31.305C-0.104293 31.8012 -0.16716 32.6651 0.351014 33.2353C0.869188 33.8055 1.77028 33.8648 2.36656 33.3694L10.2659 26.7884V68.2822C10.2659 69.0376 10.905 69.6506 11.6946 69.6506H43.147C43.9367 69.6506 44.5758 69.0376 44.5758 68.2822C44.5758 67.5269 43.9367 66.9147 43.147 66.9147Z" fill="#C59C7E"/>
    <path
          d="M82.2016 80.8425L49.8396 45.3096C50.2351 41.5777 49.2111 38.5586 46.8233 36.569C43.9192 34.1495 41.2492 34.6095 37.2097 35.3031C36.6802 35.3944 36.1196 35.4911 35.5213 35.5879C33.997 35.8352 32.7116 34.3822 31.3147 32.6025C30.3256 31.3421 29.4705 30.2551 28.1351 30.5946C26.8345 30.9269 26.5316 32.3616 26.3494 33.6795C25.5443 39.5169 25.9294 47.6269 29.6603 51.273C32.7125 54.2665 36.9275 54.6864 39.0511 54.6864C39.3125 54.6864 39.5277 54.6791 39.7193 54.6708L76.8116 86.0557C77.9602 87.1518 79.3844 87.7797 80.7227 87.7788C80.7331 87.7788 80.7444 87.7788 80.7548 87.7788C81.6769 87.7724 82.5084 87.4493 83.0982 86.8689C84.5885 85.3995 84.1921 82.76 82.2016 80.8425ZM29.1166 34.3311C30.4644 36.0469 32.6974 38.8233 35.9865 38.2884C36.5953 38.1908 37.1663 38.0922 37.7043 38C41.705 37.311 43.1811 37.1485 44.9744 38.6444C46.6694 40.0572 47.348 42.2412 47.0186 45.1252L39.6022 51.9337C38.2951 51.9885 34.3037 51.9274 31.6743 49.35C28.9213 46.6567 28.421 39.7423 29.1166 34.3311ZM48.2805 47.7409L51.2233 50.9718L45.82 56.195L42.3081 53.2234L48.2805 47.7409ZM81.0776 84.9504C81.019 85.007 80.8822 85.0353 80.7236 85.0399C80.2857 85.0399 79.5231 84.7953 78.7379 84.0506L47.9558 58.0021L53.0986 53.0308L80.1092 82.687C80.1319 82.7117 80.1555 82.7363 80.18 82.7591C81.1502 83.6809 81.3144 84.7177 81.0776 84.9504Z" fill="#C59C7E"/>
</svg>