<svg width="29" height="29" viewBox="0 0 29 29" fill="none" xmlns="http://www.w3.org/2000/svg">
<g clip-path="url(#clip0_288_3695)">
<path d="M11.3995 26.8542C16.3796 21.9017 20.2752 17.9429 24.6083 13.6931C26.0388 12.199 26.9449 10.7366 27.3264 9.30609C27.994 6.6065 26.9675 4.26879 25.1805 2.43945C23.4639 0.722792 21.628 -0.0878543 19.6729 0.00753157C17.7178 0.102917 15.7866 1.08841 13.8792 2.96401L1.71946 15.1713L3.72225 17.1264L15.8819 4.96675C17.1297 3.78048 18.6145 2.66209 20.3166 2.82092C22.9101 3.18501 25.2005 6.3593 24.6083 8.59081C23.8575 10.5706 22.8223 11.4736 21.3896 12.9063C17.0314 17.2534 13.6332 20.615 9.39682 24.8513C7.80472 26.3062 6.77507 26.7 5.29593 25.3282C4.53296 24.5652 4.19917 23.8182 4.29454 23.087C4.40036 22.2339 4.88331 21.6439 5.43895 21.0842L16.5495 9.97362C17.0571 9.46516 18.2131 8.48919 18.6954 8.92457C19.0654 9.783 18.1125 10.6023 17.6463 11.0704L7.44171 21.275L9.39677 23.2778L19.649 13.0732C21.4149 11.2519 22.6836 9.02627 20.6981 6.96954C18.5023 5.08483 16.189 6.34306 14.5467 7.97093L3.43616 19.0815C2.29175 20.2259 1.64002 21.4657 1.4811 22.8009C1.35572 24.6728 2.19965 26.1753 3.3408 27.331C4.41344 28.3978 5.57225 28.9887 7.01258 29C8.74427 28.9307 10.447 27.7901 11.3995 26.8542Z" fill="#BDBDBD"/>
</g>
<defs>
<clipPath id="clip0_288_3695">
<rect width="29" height="29" fill="white"/>
</clipPath>
</defs>
</svg>
