<svg width="16" height="16" viewBox="0 0 16 16" fill="none" xmlns="http://www.w3.org/2000/svg">
<path d="M2.99993 2H12.9999L7.98993 8.3L2.99993 2ZM0.249934 1.61C2.26993 4.2 5.99993 9 5.99993 9V15C5.99993 15.55 6.44993 16 6.99993 16H8.99993C9.54993 16 9.99993 15.55 9.99993 15V9C9.99993 9 13.7199 4.2 15.7399 1.61C15.8545 1.46237 15.9254 1.28553 15.9444 1.09961C15.9635 0.913684 15.9299 0.726154 15.8476 0.558371C15.7652 0.390588 15.6374 0.249293 15.4787 0.150577C15.3201 0.0518598 15.1368 -0.000312035 14.9499 1.40404e-06H1.03993C0.209934 1.40404e-06 -0.260066 0.950002 0.249934 1.61Z" fill="#146492"/>
</svg>
