<svg width="203" height="203" viewBox="0 0 203 203" fill="none" xmlns="http://www.w3.org/2000/svg">
<path d="M202.41 108.229L188.789 88.6279C186.763 85.721 184.058 83.3452 180.905 81.7042C177.752 80.0632 174.245 79.2058 170.685 79.2055H135.544V52.1918C135.544 51.3321 135.2 50.5076 134.588 49.8997C133.976 49.2917 133.146 48.9502 132.28 48.9502H14.7795C13.9139 48.9502 13.0837 49.2917 12.4716 49.8997C11.8595 50.5076 11.5156 51.3321 11.5156 52.1918V153.763C11.5156 154.623 11.8595 155.447 12.4716 156.055C13.0837 156.663 13.9139 157.005 14.7795 157.005H41.7394C42.2637 160.966 44.2205 164.604 47.245 167.238C50.2695 169.873 54.1554 171.326 58.1786 171.326C62.2017 171.326 66.0876 169.873 69.1121 167.238C72.1366 164.604 74.0934 160.966 74.6177 157.005H147.468C148.06 160.909 150.042 164.472 153.055 167.048C156.067 169.623 159.91 171.04 163.885 171.04C167.86 171.04 171.704 169.623 174.716 167.048C177.729 164.472 179.711 160.909 180.303 157.005H199.734C200.6 157.005 201.43 156.663 202.042 156.055C202.654 155.447 202.998 154.623 202.998 153.763V110.066C203 109.408 202.794 108.765 202.41 108.229ZM170.685 85.6888C173.19 85.6872 175.657 86.2902 177.874 87.446C180.092 88.6018 181.993 90.2756 183.414 92.3233L193.837 107.3H135.544V85.6888H170.685ZM58.1677 164.569C56.168 164.577 54.2109 163.996 52.5444 162.898C50.8779 161.801 49.577 160.236 48.8068 158.404C48.0366 156.571 47.8317 154.552 48.2181 152.604C48.6045 150.655 49.5648 148.864 50.9773 147.458C52.3897 146.053 54.1907 145.095 56.1518 144.707C58.1129 144.319 60.1458 144.518 61.9928 145.279C63.8399 146.04 65.4178 147.329 66.5265 148.982C67.6352 150.634 68.2248 152.577 68.2205 154.563C68.2148 157.211 67.1545 159.75 65.2711 161.624C63.3877 163.499 60.8341 164.557 58.1677 164.569ZM58.1677 138.052C54.4557 138.04 50.8462 139.261 47.9129 141.52C44.9797 143.78 42.8909 146.948 41.9787 150.522H18.0434V55.4335H129.016V150.522H74.2261C73.3228 146.968 71.2544 143.813 68.3469 141.556C65.4395 139.298 61.8583 138.065 58.1677 138.052ZM163.831 164.569C161.833 164.569 159.88 163.98 158.22 162.877C156.559 161.774 155.265 160.207 154.501 158.374C153.738 156.54 153.539 154.523 153.93 152.577C154.322 150.631 155.285 148.845 156.7 147.443C158.114 146.042 159.915 145.088 161.875 144.704C163.835 144.319 165.865 144.521 167.71 145.283C169.554 146.046 171.13 147.334 172.236 148.986C173.343 150.638 173.932 152.579 173.927 154.563C173.922 157.219 172.855 159.764 170.963 161.639C169.07 163.515 166.505 164.569 163.831 164.569ZM179.933 150.522C179.04 146.954 176.971 143.785 174.055 141.521C171.139 139.256 167.544 138.026 163.842 138.026C160.14 138.026 156.545 139.256 153.629 141.521C150.713 143.785 148.644 146.954 147.751 150.522H135.544V113.783H196.47V150.522H179.933Z" fill="#C59C7E"/>
</svg>
