<svg width="23" height="23" viewBox="0 0 23 23" fill="none" xmlns="http://www.w3.org/2000/svg">
<path d="M11.5 21.0832C15.4459 21.0832 18.6875 17.9561 18.6875 13.9426C18.6875 12.9575 18.6372 11.9014 18.0909 10.2598C17.5447 8.61813 17.435 8.40634 16.8576 7.39242C16.6108 9.46098 15.2907 10.3235 14.9553 10.5813C14.9553 10.3129 14.157 7.34834 12.9461 5.57398C11.7573 3.83317 10.1406 2.69132 9.19281 1.9165C9.19281 3.38755 8.77929 5.57446 8.18656 6.689C7.59431 7.80307 7.48315 7.8438 6.74283 8.67275C6.003 9.50171 5.66327 9.75807 5.04419 10.7643C4.42558 11.7706 4.3125 13.1108 4.3125 14.096C4.3125 18.1095 7.55406 21.0832 11.5 21.0832Z" stroke="white" stroke-width="2" stroke-linejoin="round"/>
</svg>
