<svg width="113" height="116" viewBox="0 0 113 116" fill="none" xmlns="http://www.w3.org/2000/svg">
<g clip-path="url(#clip0_107_1932)">
<path d="M111.5 58C111.5 89.2414 86.8389 114.5 56.5 114.5C26.1611 114.5 1.5 89.2414 1.5 58C1.5 26.7586 26.1611 1.5 56.5 1.5C86.8389 1.5 111.5 26.7586 111.5 58Z" stroke="#C59C7E" stroke-width="3"/>
<path d="M35.2585 75.4386H41.0974L41.0642 94.7006L41.0642 94.7007C41.0632 95.5482 41.7301 96.2479 42.5704 96.25H42.571H42.5727C43.4111 96.25 44.0801 95.5525 44.0812 94.7066C44.0812 94.7066 44.0812 94.7065 44.0812 94.7065L44.1143 75.4386H67.3151C68.1548 75.4386 68.8236 74.7388 68.8236 73.8922C68.8236 73.0455 68.1548 72.3458 67.3151 72.3458H44.1211L44.137 63.2939H66.0499C76.6436 63.2939 85.25 54.4174 85.25 43.522C85.25 32.6266 76.6436 23.75 66.0499 23.75H35.2593C34.4188 23.75 33.7508 24.4489 33.7508 25.2964C33.7508 26.1439 34.4188 26.8428 35.2593 26.8428H41.1821L41.1242 60.2011H35.2794C34.4388 60.2011 33.771 60.901 33.771 61.7475C33.771 62.5941 34.4388 63.2939 35.2794 63.2939H41.1192L41.1033 72.3458H35.2585C34.4178 72.3458 33.75 73.0456 33.75 73.8922C33.75 74.7387 34.4178 75.4386 35.2585 75.4386ZM44.142 60.2011L44.1991 26.8428H66.0499C74.9659 26.8428 82.2331 34.3189 82.2331 43.5228C82.2331 52.7258 74.9659 60.2011 66.0499 60.2011H44.142Z" fill="#C59C7E" stroke="#C59C7E" stroke-width="0.5"/>
</g>
<defs>
<clipPath id="clip0_107_1932">
<rect width="113" height="116" fill="white"/>
</clipPath>
</defs>
</svg>
