<svg width="120" height="108" viewBox="0 0 120 108" fill="none" xmlns="http://www.w3.org/2000/svg">
<path d="M56.4798 49.0783H43.5124C40.1044 49.0783 37.3311 46.3065 37.3311 42.8999C37.3311 40.1508 38.8377 34.1627 40.1669 28.8788C41.2901 24.4158 42.3508 20.1998 42.747 17.2405C43.173 14.0867 42.1861 10.9542 39.9695 8.41948C37.3893 5.4673 33.4829 3.70508 29.5197 3.70508C25.5522 3.70508 21.6415 5.46872 19.0614 8.42232C16.8462 10.957 15.8636 14.0895 16.2896 17.2391C16.6943 20.2509 17.8232 24.5393 19.016 29.0791C20.3863 34.289 21.9397 40.1948 21.9397 42.8999C21.9397 46.3065 19.1665 49.0783 15.7585 49.0783H2.55248C1.37531 49.0783 0.422485 50.0312 0.422485 51.2083V104.926C0.422485 106.101 1.37531 107.056 2.55248 107.056H56.4784C57.6556 107.056 58.6084 106.101 58.6084 104.926V51.2083C58.6098 50.0326 57.657 49.0783 56.4798 49.0783ZM15.7599 53.3383C21.518 53.3383 26.2012 48.6552 26.2012 42.8999C26.2012 39.6439 24.713 33.9852 23.1368 27.9942C22.0278 23.7796 20.8818 19.4202 20.5112 16.6683C20.1789 14.2131 21.2837 12.3529 22.2692 11.2254C24.0257 9.21468 26.8032 7.96508 29.5183 7.96508C32.2291 7.96508 35.0052 9.21326 36.7617 11.2226C37.7486 12.3515 38.8562 14.2131 38.5239 16.6711C38.159 19.3932 37.0784 23.6873 36.0347 27.8394C34.5096 33.9 33.0711 39.6226 33.0711 42.8999C33.0711 48.6552 37.7543 53.3383 43.5124 53.3383H54.3498V64.714H4.68391V53.3383H15.7599ZM4.68391 102.796V68.974H54.3498V102.796H4.68391Z" fill="#C59C7E"/>
<path d="M36.1496 16.8204C36.1496 13.1639 33.1747 10.189 29.5182 10.189C25.8617 10.189 22.8868 13.1639 22.8868 16.8204C22.8868 20.4769 25.8617 23.4518 29.5182 23.4518C33.1747 23.4518 36.1496 20.4769 36.1496 16.8204ZM27.1468 16.8204C27.1468 15.5125 28.2104 14.449 29.5182 14.449C30.8261 14.449 31.8896 15.5125 31.8896 16.8204C31.8896 18.1282 30.8261 19.1918 29.5182 19.1918C28.2104 19.1918 27.1468 18.1282 27.1468 16.8204Z" fill="#C59C7E"/>
<path d="M118.727 19.3381L107.158 10.6207C106.789 10.3424 106.34 10.1919 105.877 10.1919H97.1188V3.07482C97.1188 1.89764 96.1646 0.944824 94.9888 0.944824H79.4739C78.2981 0.944824 77.3439 1.89764 77.3439 3.07482V10.1919H57.0166C55.8394 10.1919 54.8866 11.1447 54.8866 12.3219V28.9259C54.8866 30.1031 55.8394 31.0559 57.0166 31.0559H77.3439V104.926C77.3439 106.102 78.2981 107.056 79.4739 107.056H94.9888C96.1646 107.056 97.1188 106.102 97.1188 104.926V31.0559H117.446C118.622 31.0559 119.576 30.1031 119.576 28.9259V21.0392C119.576 20.3704 119.262 19.7414 118.727 19.3381ZM81.6039 5.20482H92.8588V10.1919H81.6039V5.20482ZM92.8588 102.796H81.6039V31.0559H92.8588V102.796ZM115.316 26.7959H59.1466V14.4519H105.165L115.316 22.1014V26.7959Z" fill="#C59C7E"/>
</svg>
