<svg width="146" height="146" viewBox="0 0 146 146" fill="none" xmlns="http://www.w3.org/2000/svg">
<path d="M26.4032 102.457C26.4032 109.749 32.3359 115.683 39.6294 115.683C46.9229 115.683 52.8556 109.749 52.8556 102.457C52.8556 95.1647 46.9229 89.2305 39.6294 89.2305C32.3359 89.2305 26.4032 95.1632 26.4032 102.457ZM48.5083 102.457C48.5083 107.352 44.5246 111.336 39.6294 111.336C34.7343 111.336 30.7506 107.352 30.7506 102.457C30.7506 97.5615 34.7343 93.5779 39.6294 93.5779C44.5246 93.5779 48.5083 97.5615 48.5083 102.457Z" fill="#C59C7E"/>
<path d="M130.739 53.0645C129.844 52.266 128.471 52.3428 127.67 53.2384L96.0977 88.6015L79.8443 72.3481C78.9951 71.4989 77.6199 71.4989 76.7707 72.3481C75.9215 73.1973 75.9215 74.5725 76.7707 75.4217L94.6515 93.3011C95.0602 93.7097 95.6123 93.9372 96.189 93.9372C96.2093 93.9372 96.2296 93.9372 96.2499 93.9358C96.8469 93.9184 97.4121 93.6576 97.8106 93.2112L130.915 56.1323C131.713 55.2382 131.635 53.863 130.739 53.0645Z" fill="#C59C7E"/>
<path d="M96.9383 99.3728C95.7369 99.3728 94.7646 100.347 94.7646 101.547V123.178H17.7954V21.7385H94.7646V67.2804C94.7646 68.4802 95.7369 69.4541 96.9383 69.4541C98.1396 69.4541 99.112 68.4802 99.112 67.2804V19.5648C99.112 18.3649 98.1396 17.3911 96.9383 17.3911H15.6217C14.4204 17.3911 13.448 18.3649 13.448 19.5648V125.351C13.448 126.551 14.4204 127.525 15.6217 127.525H96.9383C98.1396 127.525 99.112 126.551 99.112 125.351V101.547C99.112 100.347 98.1396 99.3728 96.9383 99.3728Z" fill="#C59C7E"/>
<path d="M71.5292 46.6999C72.7305 46.6999 73.7029 45.7261 73.7029 44.5262C73.7029 43.3264 72.7305 42.3525 71.5292 42.3525H27.8581C26.6568 42.3525 25.6844 43.3264 25.6844 44.5262C25.6844 45.7261 26.6568 46.6999 27.8581 46.6999H71.5292Z" fill="#C59C7E"/>
<path d="M74.2376 63.8631C74.2376 62.6633 73.2653 61.6895 72.064 61.6895H28.4045C27.2032 61.6895 26.2308 62.6633 26.2308 63.8631C26.2308 65.063 27.2032 66.0368 28.4045 66.0368H72.064C73.2653 66.0368 74.2376 65.063 74.2376 63.8631Z" fill="#C59C7E"/>
</svg>
