<svg width="122" height="97" viewBox="0 0 122 97" fill="none" xmlns="http://www.w3.org/2000/svg">
<path d="M87.0969 69.3048C87.0905 69.3048 87.0827 69.3048 87.0762 69.3048C86.3987 69.297 85.7743 68.9382 85.4271 68.3565L66.9569 37.3375C66.9051 37.2507 66.8611 37.1614 66.8235 37.0681C64.5202 33.2867 63.3051 28.9535 63.3051 24.5115C63.3284 11.1544 74.2048 0.30127 87.5555 0.30127C87.5659 0.30127 87.5749 0.30127 87.5853 0.30127C94.0663 0.310338 100.151 2.8416 104.719 7.42741C109.284 12.0093 111.792 18.1004 111.783 24.5763C111.783 28.9522 110.573 33.2621 108.28 37.0668C108.236 37.1911 108.177 37.3103 108.106 37.4256L88.746 68.3928C88.3885 68.9589 87.7654 69.3048 87.0969 69.3048ZM70.4753 35.6496L87.1371 63.6321L104.594 35.7092C104.638 35.59 104.694 35.4734 104.763 35.3633C106.812 32.0898 107.895 28.3589 107.895 24.575C107.895 24.5737 107.895 24.5737 107.895 24.5724C107.904 19.1316 105.798 14.0173 101.965 10.1685C98.1301 6.31982 93.0209 4.19532 87.5801 4.18626C87.5723 4.18626 87.5633 4.18626 87.5542 4.18626C76.3423 4.18626 67.2095 13.2996 67.1914 24.5141C67.1914 28.3408 68.2679 32.0742 70.303 35.3076C70.373 35.4151 70.43 35.5304 70.4753 35.6496Z" fill="#C59C7E"/>
<path d="M87.562 33.6145C87.5555 33.6145 87.549 33.6145 87.5412 33.6145C84.8053 33.6145 82.2287 32.5457 80.292 30.6052C78.3528 28.662 77.2879 26.0816 77.2931 23.3365C77.2957 20.6006 78.3657 18.0266 80.3063 16.0912C82.2442 14.1597 84.817 13.0962 87.5542 13.0962C87.5568 13.0962 87.5607 13.0962 87.5646 13.0962C93.2191 13.1027 97.8166 17.7118 97.8114 23.3715C97.8088 26.1113 96.7388 28.6867 94.7982 30.622C92.8616 32.5522 90.2927 33.6145 87.562 33.6145ZM87.5529 16.9825C85.8533 16.9825 84.2534 17.6431 83.05 18.844C81.8452 20.0449 81.1807 21.6434 81.1794 23.343C81.1768 25.0491 81.8388 26.6528 83.0435 27.8602C84.2457 29.0649 85.8455 29.7282 87.5451 29.7282C87.549 29.7282 87.5529 29.7282 87.5581 29.7282C89.2577 29.7282 90.8523 29.0688 92.0545 27.8705C93.2593 26.6697 93.9238 25.0698 93.9251 23.3689C93.9277 19.8531 91.0726 16.9877 87.5594 16.9838C87.5581 16.9825 87.5555 16.9825 87.5529 16.9825ZM95.8682 23.3702H95.8812H95.8682Z" fill="#C59C7E"/>
<path d="M119.287 96.8687H2.88251C2.22962 96.8687 1.62077 96.541 1.26064 95.9956C0.901807 95.4515 0.839626 94.7624 1.09612 94.1613L22.2699 44.6215C22.5756 43.9065 23.279 43.4414 24.0563 43.4414H74.0183C75.0922 43.4414 75.9614 44.3106 75.9614 45.3845C75.9614 46.4585 75.0922 47.3277 74.0183 47.3277H25.3387L5.82573 92.9811H116.343L97.4319 48.7423C97.0096 47.7552 97.4681 46.6139 98.4552 46.1916C99.4385 45.7706 100.584 46.2266 101.006 47.215L121.073 94.16C121.33 94.7611 121.268 95.4502 120.909 95.9943C120.549 96.541 119.94 96.8687 119.287 96.8687Z" fill="#C59C7E"/>
<path d="M87.3262 96.5202C86.3521 96.5202 85.5113 95.7896 85.3986 94.7973C85.387 94.7014 84.146 85.1412 70.7603 82.8703C69.5154 82.6591 67.5295 82.4661 65.2288 82.2446C52.5609 81.0191 41.0056 79.4283 38.7775 73.5044C37.3396 69.6828 39.4408 66.7694 41.1274 64.4286C42.9747 61.8662 43.5835 60.747 42.6405 59.1394C42.0433 58.1212 40.1416 57.2921 38.3021 56.4902C34.7008 54.9202 29.7678 52.7697 29.7419 46.8755C29.7367 45.8016 30.6034 44.9285 31.676 44.9233C31.6786 44.9233 31.6825 44.9233 31.685 44.9233C32.7551 44.9233 33.623 45.7874 33.6282 46.8574C33.6424 49.9923 35.991 51.2424 39.8566 52.9278C42.2661 53.9784 44.7572 55.0639 45.9943 57.1742C48.3067 61.1175 45.9801 64.3457 44.2818 66.7021C42.6884 68.9121 41.7453 70.3565 42.4164 72.1364C43.9774 76.2856 58.5846 77.6976 65.6045 78.3777C67.979 78.607 70.0297 78.8052 71.4106 79.0397C87.6449 81.7951 89.202 93.8464 89.2603 94.3581C89.3821 95.4243 88.6165 96.3868 87.5503 96.5085C87.4752 96.5163 87.4001 96.5202 87.3262 96.5202Z" fill="#C59C7E"/>
</svg>
