<?xml version="1.0" encoding="UTF-8"?>
<!DOCTYPE svg PUBLIC "-//W3C//DTD SVG 1.1//EN" "http://www.w3.org/Graphics/SVG/1.1/DTD/svg11.dtd">
<!-- Creator: CorelDRAW -->
<svg xmlns="http://www.w3.org/2000/svg" xml:space="preserve" width="54.849mm" height="14.1567mm" style="shape-rendering:geometricPrecision; text-rendering:geometricPrecision; image-rendering:optimizeQuality; fill-rule:evenodd; clip-rule:evenodd"
viewBox="0 0 43.3491 11.1885"
 xmlns:xlink="http://www.w3.org/1999/xlink">
 <defs>
  <style type="text/css">
   <![CDATA[
    .fil0 {fill:#0F6F90}
    .fil2 {fill:#D46B25}
    .fil1 {fill:#0F6F90;fill-rule:nonzero}
    .fil3 {fill:#D46B25;fill-rule:nonzero}
   ]]>
  </style>
 </defs>
 <g id="Слой_x0020_1">
  <metadata id="CorelCorpID_0Corel-Layer"/>
  <path class="fil0" d="M37.4362 6.89378l-0.160675 1.1252c-0.0123292,0.0979226 -0.0546912,0.182805 -0.12598,0.25109 -0.0785594,0.075161 -0.178853,0.106458 -0.286102,0.106458 -0.107407,0 -0.210071,-0.0320876 -0.277803,-0.119657 -0.0602236,-0.0778481 -0.0793497,-0.171424 -0.0670995,-0.269267l0.515536 -3.65562c0.0120921,-0.0754771 0.0232359,-0.165101 0.0158858,-0.241369 -0.00513718,-0.0531896 -0.0194423,-0.103613 -0.0428362,-0.151507 -0.0301118,-0.0501073 -0.0480524,-0.10551 -0.0480524,-0.16439 0,-0.110726 0.0444169,-0.206278 0.128904,-0.277882 0.0735012,-0.0621994 0.159964,-0.101637 0.257254,-0.101637 0.0762674,0 0.147872,0.021102 0.209913,0.065914 0.0256859,0.0185729 0.0488428,0.0396749 0.0695496,0.0628317 0.13736,-0.0643333 0.278277,-0.120842 0.422039,-0.169369 0.179959,-0.0607768 0.366558,-0.0932596 0.556555,-0.0932596 0.343796,0 0.660405,0.105431 0.849769,0.406786 0.186124,0.29606 0.205803,0.655426 0.157435,0.993531l-0.126928 0.868895c-0.0260021,0.194976 -0.0690754,0.388371 -0.13657,0.57331 -0.0615672,0.168658 -0.148109,0.326093 -0.266106,0.461951 -0.116812,0.134673 -0.260179,0.236627 -0.423146,0.308547 -0.18644,0.0821949 -0.393982,0.11041 -0.596467,0.11041 -0.128192,0 -0.256148,-0.0128034 -0.382206,-0.035328 -0.0817998,-0.0146212 -0.162888,-0.0331151 -0.24287,-0.0556397zm0.353754 -2.52283l-0.254804 1.82773c0.0727899,0.0285311 0.148899,0.0486057 0.225799,0.0622785 0.0950774,0.0169922 0.196873,0.0316134 0.29361,0.0316134 0.168104,0 0.342057,-0.0358813 0.454048,-0.171187 0.13167,-0.159016 0.18976,-0.424648 0.218291,-0.62397l0.127007 -0.869686c0.0523993,-0.366716 -0.000474202,-0.660879 -0.424648,-0.660879 -0.113966,0 -0.228012,0.0218923 -0.336762,0.0550864 -0.102032,0.0311392 -0.200587,0.0719206 -0.295032,0.121079 0.00165971,0.0237101 0.00300328,0.0473411 0.00410975,0.0710512 0.00252908,0.0525573 -0.000711302,0.105352 -0.0116179,0.156882z"/>
  <path class="fil0" d="M35.3064 6.11364c0.000553235,-0.0128825 0.00126454,-0.025844 0.00221294,-0.0387265 0.00229197,-0.032878 0.00576945,-0.0649656 0.0109857,-0.0958678l0.327515 -2.33995c0.0120921,-0.0961839 0.0521622,-0.18075 0.120842,-0.24943 0.0784804,-0.0783223 0.18241,-0.108276 0.291239,-0.108276 0.108987,0 0.216394,0.030586 0.283177,0.122344 0.0569042,0.0782433 0.0737383,0.170871 0.0617252,0.266501l-0.32791 2.34279c-0.00908886,0.0630688 -0.018889,0.133567 -0.018889,0.197347 0,0.030507 0.000948403,0.0656769 0.00742916,0.0957097 0.00158067,0.00735012 0.00466298,0.021102 0.00711302,0.025923 0.0178616,0.0248956 0.032878,0.0523202 0.0463927,0.0794288 0.0103534,0.0205487 0.0177826,0.0439427 0.0245004,0.0662302 0.0096421,0.0327199 0.0149373,0.0666253 0.0149373,0.100768 0,0.10472 -0.0454443,0.194265 -0.121949,0.264604 -0.077611,0.0714464 -0.172135,0.108197 -0.277645,0.108197 -0.0866208,0 -0.167551,-0.0255279 -0.232754,-0.0834595 -0.0271085,-0.0241052 -0.0511347,-0.0512928 -0.0724738,-0.0804562 -0.134831,0.0637801 -0.275827,0.112149 -0.422039,0.144473 -0.169764,0.0373829 -0.343401,0.0595913 -0.517354,0.0595913 -0.341583,0 -0.658824,-0.103139 -0.846687,-0.403625 -0.185176,-0.296297 -0.201615,-0.658982 -0.153957,-0.996139l0.274089 -1.95253c0.0122502,-0.0979226 0.0546122,-0.182963 0.126059,-0.251248 0.0784013,-0.0749238 0.178616,-0.106458 0.285944,-0.106458 0.107407,0 0.210071,0.0320876 0.277882,0.119578 0.0602236,0.0779271 0.0793497,0.171503 0.0670995,0.269346l-0.274405 1.95434c-0.0222875,0.159095 -0.0301118,0.367664 0.0572994,0.510399 0.0723948,0.118076 0.19466,0.150875 0.327199,0.150875 0.121712,0 0.241764,-0.0185729 0.358575,-0.0522412 0.10219,-0.0294795 0.20035,-0.0697867 0.293847,-0.120052z"/>
  <path class="fil0" d="M30.9141 3.56094c0.131512,-0.0814046 0.270453,-0.149769 0.41627,-0.202247 0.184148,-0.0663882 0.376516,-0.0973694 0.572124,-0.0973694 0.334786,0 0.666411,0.0855144 0.879881,0.360393 0.204934,0.263893 0.241052,0.589986 0.194344,0.912364l-0.23386 1.67077c-0.00624365,0.0528735 -0.0119341,0.110489 -0.00932596,0.163916 0.00110647,0.0223665 0.0113018,0.0397539 0.023473,0.0535848 0.044733,0.044733 0.0278198,0.0195213 0.0509767,0.0886757 0.0240262,0.0725528 0.0160438,0.0217342 0.0160438,0.100847 0,0.106853 -0.0435475,0.199244 -0.121949,0.271322 -0.077611,0.0714464 -0.172135,0.108197 -0.277645,0.108197 -0.0572203,0 -0.113966,-0.0113808 -0.168025,-0.0294795 -0.0738964,-0.0246585 -0.133646,-0.0727899 -0.180671,-0.134278 -0.0554026,-0.072948 -0.0837756,-0.166445 -0.0993452,-0.255516 -0.0222084,-0.12677 -0.00908886,-0.27235 0.00948403,-0.398566l0.234177 -1.65947c0.0194423,-0.13578 0.00924693,-0.276301 -0.0661511,-0.394536 -0.0723948,-0.113334 -0.205566,-0.139336 -0.331704,-0.139336 -0.133409,0 -0.261285,0.0338264 -0.38189,0.089466 -0.105036,0.0484476 -0.203116,0.110726 -0.285944,0.191261 0.00466298,0.0912048 0.00173874,0.182726 -0.0111437,0.273061l-0.294163 2.09305c-0.0120921,0.0961839 -0.0521622,0.18075 -0.120763,0.249351 -0.0784804,0.0784013 -0.182489,0.108355 -0.291318,0.108355 -0.108987,0 -0.216473,-0.030665 -0.283177,-0.122502 -0.0569042,-0.0781642 -0.0737383,-0.170792 -0.0617252,-0.266501l0.274484 -1.94162c0.0151745,-0.102349 0.0255279,-0.207068 0.0255279,-0.310681 0,-0.0700238 -0.00829853,-0.144315 -0.0348538,-0.209676 -0.0194423,-0.0479734 -0.0505815,-0.0836175 -0.0949984,-0.110252 -0.0601446,-0.0360393 -0.151665,-0.0433104 -0.22003,-0.0433104 -0.137677,0 -0.271876,0.0261601 -0.401096,0.0731851 -0.101953,0.0370668 -0.203828,0.082432 -0.296692,0.139889 0,0.0154906 0,0.0309812 0,0.0464718 0,0.0380942 -0.00245004,0.0761094 -0.00790336,0.113729l-0.320955 2.27356c-0.0120921,0.0961839 -0.0521622,0.18075 -0.120763,0.249351 -0.0784804,0.0784013 -0.182331,0.108355 -0.291239,0.108355 -0.109066,0 -0.216394,-0.030665 -0.283256,-0.122423 -0.0569042,-0.0782433 -0.0737383,-0.170792 -0.0617252,-0.26658l0.321272 -2.27561c0.00900983,-0.0631478 0.018889,-0.133725 0.018889,-0.197505 0,-0.030507 -0.000948403,-0.0655979 -0.00735012,-0.0954726 -0.00165971,-0.00742916 -0.00474202,-0.02126 -0.00735012,-0.0263182 -0.0177826,-0.0248165 -0.0327199,-0.0521622 -0.0462347,-0.0791917 -0.00806143,-0.0158858 -0.0152535,-0.0322457 -0.0224455,-0.0485266 -0.0348538,-0.0783223 -0.0237101,-0.0252117 -0.0237101,-0.118471 0,-0.107091 0.0437056,-0.199244 0.123925,-0.269663 0.0779271,-0.0686802 0.171819,-0.103218 0.275669,-0.103218 0.0825901,0 0.159411,0.0246585 0.223191,0.07769 0.0230778,0.0192842 0.0439427,0.0405442 0.0628317,0.063464 0.134515,-0.0721577 0.275511,-0.130959 0.421881,-0.176087 0.180908,-0.0555606 0.367427,-0.0855144 0.556792,-0.0855144 0.169606,0 0.352648,0.0219713 0.505499,0.0999775 0.0984759,0.0501863 0.182726,0.117365 0.25267,0.199639z"/>
  <path class="fil0" d="M25.6651 6.89378l-0.160675 1.1252c-0.0123292,0.0979226 -0.0546912,0.182805 -0.12598,0.25109 -0.0785594,0.075161 -0.178853,0.106458 -0.286102,0.106458 -0.107407,0 -0.210071,-0.0320876 -0.277803,-0.119657 -0.0602236,-0.0778481 -0.0793497,-0.171424 -0.0670995,-0.269267l0.515536 -3.65562c0.0120921,-0.0754771 0.0232359,-0.165101 0.0158858,-0.241369 -0.00513718,-0.0531896 -0.0194423,-0.103613 -0.0428362,-0.151507 -0.0301118,-0.0501073 -0.0480524,-0.10551 -0.0480524,-0.16439 0,-0.110726 0.0444169,-0.206278 0.128904,-0.277882 0.0735012,-0.0621994 0.159964,-0.101637 0.257254,-0.101637 0.0762674,0 0.147872,0.021102 0.209913,0.065914 0.0256859,0.0185729 0.0488428,0.0396749 0.0695496,0.0628317 0.13736,-0.0643333 0.278277,-0.120842 0.422039,-0.169369 0.179959,-0.0607768 0.366558,-0.0932596 0.556555,-0.0932596 0.343796,0 0.660405,0.105431 0.849769,0.406786 0.186124,0.29606 0.205803,0.655426 0.157435,0.993531l-0.126928 0.868895c-0.0260021,0.194976 -0.0690754,0.388371 -0.13657,0.57331 -0.0615672,0.168658 -0.148109,0.326093 -0.266106,0.461951 -0.116812,0.134673 -0.260179,0.236627 -0.423146,0.308547 -0.18644,0.0821949 -0.393982,0.11041 -0.596467,0.11041 -0.128192,0 -0.256148,-0.0128034 -0.382206,-0.035328 -0.0817998,-0.0146212 -0.162888,-0.0331151 -0.24287,-0.0556397zm0.353754 -2.52283l-0.254804 1.82773c0.0727899,0.0285311 0.148899,0.0486057 0.225799,0.0622785 0.0950774,0.0169922 0.196873,0.0316134 0.29361,0.0316134 0.168104,0 0.342057,-0.0358813 0.454048,-0.171187 0.13167,-0.159016 0.18976,-0.424648 0.218291,-0.62397l0.127007 -0.869686c0.0523993,-0.366716 -0.000474202,-0.660879 -0.424648,-0.660879 -0.113966,0 -0.228012,0.0218923 -0.336762,0.0550864 -0.102032,0.0311392 -0.200587,0.0719206 -0.295032,0.121079 0.00165971,0.0237101 0.00300328,0.0473411 0.00410975,0.0710512 0.00252908,0.0525573 -0.000711302,0.105352 -0.0116179,0.156882z"/>
  <path class="fil0" d="M20.5578 5.10146c0.0663092,0.049475 0.124399,0.109462 0.170713,0.181777 0.0887547,0.138467 0.125821,0.295349 0.125821,0.45879 0,0.176403 -0.0339844,0.347432 -0.107881,0.50787 -0.0723157,0.157119 -0.176403,0.291081 -0.310444,0.400384 -0.140048,0.114045 -0.301829,0.195213 -0.472858,0.251564 -0.196952,0.0648075 -0.405758,0.0895451 -0.61251,0.0895451 -0.203353,0 -0.413741,-0.0254488 -0.603342,-0.102349 -0.158146,-0.0641753 -0.301987,-0.156566 -0.413583,-0.287129 -0.106379,-0.124636 -0.175297,-0.2699 -0.209755,-0.430101 -0.0359603,-0.166682 -0.037699,-0.337552 -0.0148583,-0.506605l0.160438 -1.11674c0.023552,-0.179169 0.0759513,-0.350751 0.159727,-0.510873 0.0829062,-0.158541 0.193158,-0.296771 0.329017,-0.413109 0.141391,-0.121238 0.303884,-0.210387 0.479102,-0.272666 0.197031,-0.0700238 0.406628,-0.0972113 0.615118,-0.0972113 0.302936,0 0.625472,0.0601446 0.851666,0.277329 0.199876,0.191973 0.290686,0.435317 0.290686,0.711144 0,0.204065 -0.0415717,0.403308 -0.147398,0.579632 -0.0716044,0.119341 -0.173321,0.209834 -0.289658,0.278751zm-1.6586 0.344191l-0.0332731 0.251643c-0.0189681,0.143683 -0.0181777,0.322615 0.0866208,0.435949 0.110884,0.119815 0.332969,0.139257 0.485108,0.139257 0.168816,0 0.36553,-0.0239472 0.50787,-0.12266 0.126533,-0.0878063 0.156487,-0.242554 0.156487,-0.387739 0,-0.0420459 -0.00735012,-0.0832224 -0.0207068,-0.123134 -0.011776,-0.0354071 -0.0335102,-0.0638591 -0.0618043,-0.0879644 -0.0405442,-0.0348538 -0.0950774,-0.0580897 -0.145659,-0.0739754 -0.0825901,-0.0260021 -0.182963,-0.0313763 -0.268951,-0.0313763l-0.705691 0zm0.0996614 -0.678741l0.686328 0c0.131196,0 0.342057,-0.0151745 0.437056,-0.121159 0.0817207,-0.0912048 0.113571,-0.200903 0.113571,-0.322378 0,-0.0995823 -0.0210229,-0.200666 -0.106853,-0.260969 -0.102586,-0.0719996 -0.248245,-0.0888338 -0.370114,-0.0888338 -0.178774,0 -0.38189,0.030507 -0.518697,0.156091 -0.128034,0.117602 -0.189602,0.275195 -0.213786,0.444722l-0.0275037 0.192526z"/>
  <path class="fil0" d="M15.9917 4.73348l0.221373 0 1.01479 -1.27323c0.0804562,-0.101953 0.187073,-0.172135 0.320481,-0.172135 0.0864628,0 0.167077,0.0254488 0.233544,0.0813256 0.0719996,0.0606978 0.105826,0.144473 0.105826,0.23797 0,0.0385684 -0.00766626,0.0784013 -0.0169132,0.115626 -0.0128825,0.0516089 -0.0365926,0.098792 -0.0733432,0.13736l-1.05763 1.29338 0.686644 1.2907c0.035249,0.070498 0.0432314,0.149532 0.0309021,0.229435 -0.0185729,0.0931806 -0.0655979,0.173558 -0.140522,0.232043 -0.0727899,0.0570623 -0.15783,0.0854353 -0.250299,0.0854353 -0.136965,0 -0.242475,-0.0703399 -0.306018,-0.191024l-0.71644 -1.38815 -0.146054 0 -0.172767 1.2149c-0.0120131,0.102349 -0.0576945,0.191973 -0.136175,0.261127 -0.0780062,0.0686802 -0.171898,0.103139 -0.275748,0.103139 -0.104008,0 -0.198295,-0.0350909 -0.267055,-0.114678 -0.0680479,-0.0787175 -0.0901773,-0.177035 -0.0779271,-0.280648l0.414768 -2.95032c0.0128825,-0.102744 0.0620414,-0.189206 0.139415,-0.25757 0.0790336,-0.0699447 0.173716,-0.106774 0.279305,-0.106774 0.106142,0 0.20122,0.0380152 0.267292,0.122423 0.0618043,0.0789546 0.0834595,0.173242 0.0709722,0.27314l-0.148425 1.05652z"/>
  <path class="fil1" d="M13.5441 4.79955l0.04007 -0.319928c0.0535057,-0.426702 -0.142814,-0.640014 -0.588879,-0.640014 -0.0969742,0 -0.178142,0.0096421 -0.243582,0.0290844 -0.0655189,0.0194423 -0.131196,0.0412555 -0.197268,0.0654398l-0.145501 0.0581687c-0.0515299,0.0242633 -0.1161,0.0364345 -0.193632,0.0364345 -0.106695,0 -0.178774,-0.0340635 -0.216315,-0.101874 -0.03762,-0.0678899 -0.0515299,-0.140601 -0.0418088,-0.218212 0.0120921,-0.0969742 0.0551655,-0.179327 0.129141,-0.247217 0.0739754,-0.0679689 0.165812,-0.123688 0.275511,-0.167314 0.109699,-0.0436265 0.233623,-0.075161 0.371853,-0.0946032 0.138151,-0.0192842 0.277566,-0.0290053 0.418246,-0.0290053 0.494513,0 0.832698,0.12598 1.0144,0.378176 0.181777,0.252117 0.242238,0.620572 0.181461,1.10544l-0.184939 1.47635c-0.0115389,0.0921532 -0.00197584,0.151507 0.0286102,0.178221 0.030586,0.0266343 0.0719206,0.0448911 0.124083,0.0546122 0.141786,0.0290053 0.203591,0.116258 0.185334,0.261759 -0.0254488,0.203591 -0.181303,0.305465 -0.467326,0.305465 -0.252117,0 -0.432393,-0.109066 -0.540827,-0.327278 -0.295823,0.232754 -0.640093,0.349091 -1.03281,0.349091 -0.397618,0 -0.684194,-0.101874 -0.859965,-0.305465 -0.175692,-0.20367 -0.242238,-0.47515 -0.199718,-0.81452 0.105668,-0.843288 0.743785,-1.12006 1.50029,-1.12006 0.227854,0 0.44243,0.0291634 0.643571,0.0872531zm-0.696523 0.509134c-0.12598,0 -0.230699,0.0133567 -0.31408,0.04007 -0.0833014,0.0266343 -0.14969,0.0629107 -0.199086,0.109066 -0.049396,0.0460766 -0.0853563,0.10061 -0.107802,0.1636 -0.0223665,0.0629898 -0.0378571,0.12843 -0.0463927,0.196398l-0.00276618 0.0218133c-0.0181777,0.145422 0.00774529,0.258124 0.07769,0.338185 0.0699447,0.079982 0.206752,0.119973 0.410421,0.119973 0.126059,0 0.247296,-0.0193632 0.363634,-0.0582478 0.116337,-0.0387265 0.236073,-0.104166 0.359129,-0.196319l0.0819578 -0.654556c-0.103534,-0.0241843 -0.210229,-0.0436265 -0.319928,-0.0581687 -0.109699,-0.0144631 -0.210546,-0.0218133 -0.302778,-0.0218133z"/>
  <path class="fil1" d="M23.4622 4.79955l0.04007 -0.319928c0.0535057,-0.426702 -0.142814,-0.640014 -0.588879,-0.640014 -0.0969742,0 -0.178142,0.0096421 -0.243582,0.0290844 -0.0655189,0.0194423 -0.131196,0.0412555 -0.197268,0.0654398l-0.145501 0.0581687c-0.0515299,0.0242633 -0.1161,0.0364345 -0.193632,0.0364345 -0.106695,0 -0.178774,-0.0340635 -0.216315,-0.101874 -0.03762,-0.0678899 -0.0515299,-0.140601 -0.0418088,-0.218212 0.0120921,-0.0969742 0.0551655,-0.179327 0.129141,-0.247217 0.0739754,-0.0679689 0.165812,-0.123688 0.275511,-0.167314 0.109699,-0.0436265 0.233623,-0.075161 0.371853,-0.0946032 0.138151,-0.0192842 0.277566,-0.0290053 0.418246,-0.0290053 0.494513,0 0.832698,0.12598 1.0144,0.378176 0.181777,0.252117 0.242238,0.620572 0.181461,1.10544l-0.184939 1.47635c-0.0115389,0.0921532 -0.00197584,0.151507 0.0286102,0.178221 0.030586,0.0266343 0.0719206,0.0448911 0.124083,0.0546122 0.141786,0.0290053 0.203591,0.116258 0.185334,0.261759 -0.0254488,0.203591 -0.181303,0.305465 -0.467326,0.305465 -0.252117,0 -0.432393,-0.109066 -0.540827,-0.327278 -0.295823,0.232754 -0.640093,0.349091 -1.03281,0.349091 -0.397618,0 -0.684194,-0.101874 -0.859965,-0.305465 -0.175692,-0.20367 -0.242238,-0.47515 -0.199718,-0.81452 0.105668,-0.843288 0.743785,-1.12006 1.50029,-1.12006 0.227854,0 0.44243,0.0291634 0.643571,0.0872531zm-0.696523 0.509134c-0.12598,0 -0.230699,0.0133567 -0.31408,0.04007 -0.0833014,0.0266343 -0.14969,0.0629107 -0.199086,0.109066 -0.049396,0.0460766 -0.0853563,0.10061 -0.107802,0.1636 -0.0223665,0.0629898 -0.0378571,0.12843 -0.0463927,0.196398l-0.00276618 0.0218133c-0.0181777,0.145422 0.00774529,0.258124 0.07769,0.338185 0.0699447,0.079982 0.206752,0.119973 0.410421,0.119973 0.126059,0 0.247296,-0.0193632 0.363634,-0.0582478 0.116337,-0.0387265 0.236073,-0.104166 0.359129,-0.196319l0.0819578 -0.654556c-0.103534,-0.0241843 -0.210229,-0.0436265 -0.319928,-0.0581687 -0.109699,-0.0144631 -0.210546,-0.0218133 -0.302778,-0.0218133z"/>
  <path class="fil1" d="M42.144 4.79955l0.04007 -0.319928c0.0535057,-0.426702 -0.142814,-0.640014 -0.588879,-0.640014 -0.0969742,0 -0.178142,0.0096421 -0.243582,0.0290844 -0.0655189,0.0194423 -0.131196,0.0412555 -0.197268,0.0654398l-0.145501 0.0581687c-0.0515299,0.0242633 -0.1161,0.0364345 -0.193632,0.0364345 -0.106695,0 -0.178774,-0.0340635 -0.216315,-0.101874 -0.03762,-0.0678899 -0.0515299,-0.140601 -0.0418088,-0.218212 0.0120921,-0.0969742 0.0551655,-0.179327 0.129141,-0.247217 0.0739754,-0.0679689 0.165812,-0.123688 0.275511,-0.167314 0.109699,-0.0436265 0.233623,-0.075161 0.371853,-0.0946032 0.138151,-0.0192842 0.277566,-0.0290053 0.418246,-0.0290053 0.494513,0 0.832698,0.12598 1.0144,0.378176 0.181777,0.252117 0.242238,0.620572 0.181461,1.10544l-0.184939 1.47635c-0.0115389,0.0921532 -0.00197584,0.151507 0.0286102,0.178221 0.030586,0.0266343 0.0719206,0.0448911 0.124083,0.0546122 0.141786,0.0290053 0.203591,0.116258 0.185334,0.261759 -0.0254488,0.203591 -0.181303,0.305465 -0.467326,0.305465 -0.252117,0 -0.432393,-0.109066 -0.540827,-0.327278 -0.295823,0.232754 -0.640093,0.349091 -1.03281,0.349091 -0.397618,0 -0.684194,-0.101874 -0.859965,-0.305465 -0.175692,-0.20367 -0.242238,-0.47515 -0.199718,-0.81452 0.105668,-0.843288 0.743785,-1.12006 1.50029,-1.12006 0.227854,0 0.44243,0.0291634 0.643571,0.0872531zm-0.696523 0.509134c-0.12598,0 -0.230699,0.0133567 -0.31408,0.04007 -0.0833014,0.0266343 -0.14969,0.0629107 -0.199086,0.109066 -0.049396,0.0460766 -0.0853563,0.10061 -0.107802,0.1636 -0.0223665,0.0629898 -0.0378571,0.12843 -0.0463927,0.196398l-0.00276618 0.0218133c-0.0181777,0.145422 0.00774529,0.258124 0.07769,0.338185 0.0699447,0.079982 0.206752,0.119973 0.410421,0.119973 0.126059,0 0.247296,-0.0193632 0.363634,-0.0582478 0.116337,-0.0387265 0.236073,-0.104166 0.359129,-0.196319l0.0819578 -0.654556c-0.103534,-0.0241843 -0.210229,-0.0436265 -0.319928,-0.0581687 -0.109699,-0.0144631 -0.210546,-0.0218133 -0.302778,-0.0218133z"/>
  <path class="fil1" d="M10.6666 3.20489c0.123134,0 0.205408,0.0402281 0.24698,0.120763 0.0415717,0.0804562 0.0558768,0.160991 0.0429943,0.241448l-0.415243 2.59214 0.120684 0c0.123134,0 0.205645,0.0390426 0.247612,0.117207 0.0419668,0.0780852 0.05643,0.157356 0.0435475,0.237891l-0.14558 0.908965c-0.0144631,0.0900193 -0.0655979,0.172846 -0.153404,0.24864 -0.0879644,0.0757142 -0.18399,0.113571 -0.288156,0.113571 -0.142023,0 -0.233702,-0.0485266 -0.274958,-0.14558 -0.0412555,-0.0970533 -0.0516089,-0.209518 -0.0311392,-0.337315l0.0818788 -0.511347 -2.17311 0 -0.0819578 0.511347c-0.0196794,0.123134 -0.0670995,0.234335 -0.142181,0.333759 -0.075161,0.0994243 -0.181303,0.149136 -0.318663,0.149136 -0.108829,0 -0.194502,-0.0343006 -0.256938,-0.102902 -0.0623575,-0.0687592 -0.0851982,-0.155143 -0.0685221,-0.259309l0.145659 -0.908965c0.0135938,-0.0852773 0.0561139,-0.165733 0.127402,-0.241527 0.0713673,-0.0757142 0.163837,-0.113571 0.277487,-0.113571l0.127797 0c0.108118,-0.11365 0.203749,-0.274642 0.286813,-0.482974 0.0831433,-0.208254 0.155301,-0.459185 0.216473,-0.752716l0.282308 -1.36349c0.0222875,-0.108987 0.0750819,-0.195371 0.158699,-0.259309 0.0836966,-0.0639382 0.163362,-0.0958678 0.239077,-0.0958678l1.70444 0zm-0.892289 2.95435l0.370905 -2.31521 -0.916078 0 -0.21671 1.08655c-0.0496331,0.251011 -0.11365,0.480524 -0.192052,0.688936 -0.0783223,0.208333 -0.169843,0.388134 -0.274563,0.53972l1.2285 0z"/>
  <g id="_120012664">
   <path id="_120012976" class="fil2" d="M2.96052 0.108118l7.90336e-005 -7.90336e-005c0.144157,-0.144078 0.379914,-0.144078 0.523993,0l2.47612 2.4762c0.144078,0.144078 0.144078,0.379914 0,0.523914l0 7.90336e-005c-0.144078,0.144078 -0.379914,0.144157 -0.523993,0l-2.4762 -2.47612c-0.144078,-0.144157 -0.144078,-0.379914 0,-0.523993z"/>
   <path id="_120012904" class="fil2" d="M5.69872 6.72102l-7.90336e-005 0c-0.203828,0 -0.37051,-0.166761 -0.37051,-0.37051l0 -3.50182c0,-0.203749 0.166761,-0.37051 0.37051,-0.37051l7.90336e-005 0c0.203749,0 0.37051,0.166682 0.37051,0.37051l0 3.50182c0,0.203828 -0.166682,0.37051 -0.37051,0.37051z"/>
   <path id="_120012832" class="fil2" d="M0.69518 6.72102l-7.90336e-005 0c-0.203828,0 -0.37051,-0.166761 -0.37051,-0.37051l0 -3.50182c0,-0.203749 0.166761,-0.37051 0.37051,-0.37051l7.90336e-005 0c0.203749,0 0.37051,0.166682 0.37051,0.37051l0 3.50182c0,0.203828 -0.166682,0.37051 -0.37051,0.37051z"/>
   <path id="_120012760" class="fil2" d="M6.06915 6.35043l0 7.90336e-005c0,0.203828 -0.167314,0.37051 -0.37051,0.37051l-5.00346 0c-0.203195,0 -0.37051,-0.167314 -0.37051,-0.37051l0 -7.90336e-005c0,-0.203195 0.166682,-0.37051 0.37051,-0.37051l5.00346 0c0.203828,0 0.37051,0.166682 0.37051,0.37051z"/>
   <path id="_120012688" class="fil2" d="M0.431919 3.10831l-7.90336e-005 -7.90336e-005c-0.144078,-0.144157 -0.144078,-0.379914 0,-0.523993l2.4762 -2.47612c0.144078,-0.144078 0.379914,-0.144078 0.523914,0l7.90336e-005 0c0.144078,0.144078 0.144157,0.379914 0,0.523993l-2.47612 2.4762c-0.144157,0.144078 -0.379914,0.144078 -0.523993,0z"/>
  </g>
  <g id="_120012496">
   <path id="_120012592" class="fil0" d="M2.99348 5.69587l7.90336e-005 7.90336e-005c0.144157,0.144078 0.378729,0.142656 0.523993,0l2.81004 -2.75993c0.145264,-0.142656 0.143999,-0.379994 0,-0.523914l0 -7.90336e-005c-0.143999,-0.143999 -0.37865,-0.142893 -0.523993,0l-2.81012 2.75985c-0.145343,0.142893 -0.144078,0.379914 0,0.523993z"/>
   <path id="_120012520" class="fil0" d="M1.8595 3.99546l-7.90336e-005 0c-0.144157,0.144157 -0.141075,0.377623 0,0.523993l1.13405 1.17657c0.141154,0.14637 0.38031,0.143762 0.523993,0l7.90336e-005 -7.90336e-005c0.143762,-0.143683 0.141549,-0.377227 0,-0.523993l-1.13405 -1.17649c-0.141628,-0.146686 -0.379914,-0.144157 -0.523993,0z"/>
  </g>
  <path class="fil3" d="M1.56882 8.8671l0 1.24336 0.239235 0 0 0.87585 -0.371853 0 0 -0.55039 -1.00736 0 0 0.55039 -0.371932 0 0 -0.87585 0.110015 0c0.0679689,-0.0723948 0.129852,-0.148109 0.185097,-0.227143 0.0557977,-0.0795868 0.103297,-0.1685 0.14313,-0.266343 0.0403071,-0.0983178 0.0718415,-0.208333 0.0955516,-0.330439 0.0237891,-0.122107 0.0392797,-0.261917 0.0453653,-0.419431l0.932755 0zm-0.615039 0.318822c-0.0121712,0.108355 -0.028215,0.205013 -0.0486057,0.291792 -0.0204697,0.0862257 -0.0459185,0.165259 -0.0757142,0.237101 -0.0293215,0.0718415 -0.063543,0.139257 -0.101716,0.202247 -0.0380942,0.0629898 -0.0806933,0.125426 -0.127086,0.186756l0 0.00663882 0.584612 0 0 -0.924535 -0.231489 0z"/>
  <path id="1" class="fil3" d="M2.92243 10.1674c0.0746077,0 0.151982,-0.00774529 0.233228,-0.0226826 0.0806143,-0.0154116 0.162967,-0.0369877 0.245874,-0.0652027l0 0.306176c-0.0497121,0.0214971 -0.12598,0.0419668 -0.228249,0.0618833 -0.102744,0.0193632 -0.208886,0.0286892 -0.318822,0.0286892 -0.111042,0 -0.216631,-0.0143051 -0.316609,-0.0425201 -0.100057,-0.0287682 -0.186835,-0.075161 -0.261443,-0.138704 -0.0745287,-0.063543 -0.133725,-0.146449 -0.177351,-0.247533 -0.0436265,-0.101716 -0.065756,-0.224376 -0.065756,-0.369166 0,-0.142577 0.0204697,-0.266896 0.0618833,-0.374066 0.0409394,-0.106695 0.0961839,-0.195055 0.165259,-0.265237 0.0690754,-0.0701818 0.148109,-0.122739 0.237022,-0.158067 0.0889918,-0.0348538 0.18075,-0.0524783 0.275748,-0.0524783 0.0995033,0 0.190629,0.0149373 0.274642,0.0452863 0.0834595,0.0304279 0.155854,0.0773739 0.216631,0.142577 0.0613301,0.0646495 0.108829,0.148109 0.142577,0.249746 0.0342215,0.102269 0.0513718,0.222717 0.0513718,0.361974 -0.00110647,0.054138 -0.00276618,0.0999775 -0.00497912,0.137597l-1.02839 0c0.00553235,0.0723948 0.0215762,0.134278 0.0486847,0.18565 0.0270295,0.0508186 0.0624365,0.0928645 0.106063,0.12432 0.0436265,0.0320876 0.0950774,0.0553235 0.153088,0.0696286 0.0580107,0.0143841 0.121554,0.0221294 0.189523,0.0221294zm-0.154195 -1.03945c-0.0480524,0 -0.091679,0.00885176 -0.129299,0.0265553 -0.037541,0.0177035 -0.0701818,0.0419668 -0.0977646,0.072948 -0.0276618,0.0309021 -0.0497912,0.0668624 -0.065756,0.107723 -0.0160438,0.0409394 -0.0271085,0.0845659 -0.0320876,0.130959l0.616699 0c0,-0.0463927 -0.00608559,-0.0900193 -0.01881,-0.130959 -0.0121712,-0.0408604 -0.0309021,-0.0768207 -0.0546912,-0.107723 -0.0243423,-0.0309812 -0.0546912,-0.0552445 -0.0912048,-0.072948 -0.0358813,-0.0177035 -0.0784013,-0.0265553 -0.127086,-0.0265553z"/>
  <polygon id="12" class="fil3" points="4.27714,9.19588 4.27714,10.4359 3.89367,10.4359 3.89367,8.8671 5.26301,8.8671 5.26301,10.4359 4.87946,10.4359 4.87946,9.19588 "/>
  <path id="123" class="fil3" d="M6.68624 10.269l-0.00663882 0c-0.0214971,0.0226826 -0.0474992,0.0459185 -0.0778481,0.0696286 -0.0298747,0.0237891 -0.0647285,0.0464718 -0.103376,0.0674157 -0.0386474,0.0210229 -0.0817998,0.0381732 -0.129299,0.0508976 -0.0474992,0.0131986 -0.0989501,0.0192842 -0.154195,0.0192842 -0.0746077,0 -0.143683,-0.0115389 -0.208886,-0.0347748 -0.0646495,-0.0232359 -0.119894,-0.056351 -0.166287,-0.100057 -0.0464718,-0.0436265 -0.0829062,-0.0966581 -0.109462,-0.159095 -0.0264763,-0.0618833 -0.0397539,-0.130959 -0.0397539,-0.207779 0,-0.0840127 0.0154906,-0.159727 0.0463927,-0.226589 0.0304279,-0.0668624 0.0735012,-0.123767 0.128192,-0.170159 0.0553235,-0.0464718 0.121079,-0.0817998 0.197821,-0.106142 0.0768207,-0.0242633 0.161387,-0.0364345 0.254251,-0.0364345 0.0679689,0 0.130405,0.00442588 0.187863,0.0132776 0.0569042,0.00877273 0.10717,0.018731 0.150322,0.0309021l0 -0.063543c0,-0.0364345 -0.00608559,-0.0718415 -0.01881,-0.106063 -0.0121712,-0.0337473 -0.0320876,-0.0640962 -0.0596704,-0.0906515 -0.0276618,-0.0265553 -0.063543,-0.0474992 -0.107802,-0.0629898 -0.0441798,-0.0154906 -0.0983178,-0.0232359 -0.161861,-0.0232359 -0.0773739,0 -0.155301,0.00829853 -0.233228,0.0254488 -0.0773739,0.0177035 -0.161861,0.0436265 -0.252512,0.0779271l0 -0.299537c0.0790336,-0.0342215 0.162493,-0.0607768 0.250853,-0.0790336 0.0889918,-0.018731 0.181856,-0.028136 0.278514,-0.0292424 0.114441,0 0.214971,0.0138309 0.300644,0.0419668 0.0855934,0.028215 0.157435,0.0668624 0.214971,0.115468 0.0580107,0.0492379 0.101084,0.107249 0.129852,0.174111 0.0286892,0.0668624 0.0425201,0.13981 0.0425201,0.218844l0 0.590697c0,0.10385 0.00110647,0.192842 0.00331941,0.26745 0.00221294,0.0740545 0.00442588,0.140917 0.00663882,0.198928l-0.346483 0 -0.0160438 -0.166919zm-0.0309021 -0.501705c-0.0365135,-0.00885176 -0.0784804,-0.0165971 -0.12598,-0.0232359 -0.0475782,-0.00719206 -0.0956307,-0.0105115 -0.144236,-0.0105115 -0.0939709,0 -0.168025,0.0182568 -0.222717,0.0558768 -0.0546912,0.0369877 -0.0817998,0.0938919 -0.0817998,0.170713 0,0.0354071 0.00608559,0.0663092 0.01881,0.0928645 0.0121712,0.0264763 0.0292424,0.0486057 0.0502654,0.065756 0.0210229,0.0170713 0.0453653,0.0297957 0.0735012,0.0386474 0.028215,0.00885176 0.0574574,0.0132776 0.0889918,0.0132776 0.0386474,0 0.0757142,-0.00553235 0.109936,-0.0154906 0.0348538,-0.0105115 0.0663092,-0.0232359 0.0956307,-0.0392007 0.0292424,-0.0154906 0.0552445,-0.0331941 0.0784804,-0.0524783 0.0231568,-0.0193632 0.0430733,-0.0381732 0.0591171,-0.05643l0 -0.239788z"/>
  <path id="1234" class="fil3" d="M8.28414 9.13565c-0.0668624,0.00110647 -0.130405,0.0177035 -0.191182,0.0497121 -0.0602236,0.0315344 -0.113808,0.0746077 -0.16028,0.128825l0 0.698973c0.0160438,0.01881 0.0359603,0.0370668 0.0585639,0.0552445 0.0226826,0.0182568 0.0481315,0.0348538 0.0757142,0.0503444 0.028215,0.0148583 0.0591171,0.0275827 0.0934177,0.0369877 0.0336683,0.00995823 0.0690754,0.0149373 0.106063,0.0149373 0.0591171,0 0.112228,-0.0127244 0.15862,-0.0381732 0.0463927,-0.0253698 0.0851192,-0.0613301 0.115468,-0.107723 0.0309812,-0.0463927 0.054138,-0.101637 0.0707351,-0.165733 0.0160438,-0.0647285 0.0243423,-0.135938 0.0243423,-0.214971 0,-0.0840127 -0.00829853,-0.158067 -0.0254488,-0.22161 -0.0165971,-0.063543 -0.0403071,-0.116575 -0.0712883,-0.15862 -0.0303489,-0.0419668 -0.0674157,-0.0740545 -0.110489,-0.0955516 -0.0430733,-0.0215762 -0.0912048,-0.0326409 -0.144236,-0.0326409zm0.0502654 1.34057c-0.0844869,0 -0.160754,-0.0154116 -0.229276,-0.0458395 -0.0685221,-0.0309021 -0.125426,-0.0690754 -0.170792,-0.114362l-0.00663882 0c0.00110647,0.0214971 0.00221294,0.0519251 0.00331941,0.091679 0.00110647,0.0392797 0.00165971,0.082353 0.00165971,0.128825l0 0.652027 -0.383471 0 0 -2.32145 0.336525 0 0.0165971 0.176324 0.00608559 0c0.0474992,-0.0624365 0.108829,-0.113887 0.182884,-0.154195 0.0746077,-0.0409394 0.160833,-0.0607768 0.259151,-0.0607768 0.0851192,0 0.169132,0.0160438 0.251959,0.0474992 0.082353,0.0320876 0.155301,0.0806933 0.219397,0.146449 0.063543,0.0663092 0.114362,0.149215 0.152535,0.249746 0.0386474,0.100057 0.0574574,0.219397 0.0574574,0.357548 0,0.145896 -0.0204697,0.271876 -0.0613301,0.377939 -0.0409394,0.106142 -0.0950774,0.194502 -0.16194,0.26413 -0.0668624,0.0696286 -0.140917,0.121079 -0.222638,0.154195 -0.0812465,0.0337473 -0.165259,0.0502654 -0.251485,0.0502654z"/>
  <polygon id="12345" class="fil3" points="9.77369,9.1909 9.27364,9.1909 9.27364,8.8671 10.6573,8.8671 10.6573,9.1909 10.1572,9.1909 10.1572,10.4359 9.77369,10.4359 "/>
  <path id="123456" class="fil3" d="M11.9026 10.269l-0.00663882 0c-0.0214971,0.0226826 -0.0474992,0.0459185 -0.0778481,0.0696286 -0.0298747,0.0237891 -0.0647285,0.0464718 -0.103376,0.0674157 -0.0386474,0.0210229 -0.0817998,0.0381732 -0.129299,0.0508976 -0.0474992,0.0131986 -0.0989501,0.0192842 -0.154195,0.0192842 -0.0746077,0 -0.143683,-0.0115389 -0.208886,-0.0347748 -0.0646495,-0.0232359 -0.119894,-0.056351 -0.166287,-0.100057 -0.0464718,-0.0436265 -0.0829062,-0.0966581 -0.109462,-0.159095 -0.0264763,-0.0618833 -0.0397539,-0.130959 -0.0397539,-0.207779 0,-0.0840127 0.0154906,-0.159727 0.0463927,-0.226589 0.0304279,-0.0668624 0.0735012,-0.123767 0.128192,-0.170159 0.0553235,-0.0464718 0.121079,-0.0817998 0.197821,-0.106142 0.0768207,-0.0242633 0.161387,-0.0364345 0.254251,-0.0364345 0.0679689,0 0.130405,0.00442588 0.187863,0.0132776 0.0569042,0.00877273 0.10717,0.018731 0.150322,0.0309021l0 -0.063543c0,-0.0364345 -0.00608559,-0.0718415 -0.01881,-0.106063 -0.0121712,-0.0337473 -0.0320876,-0.0640962 -0.0596704,-0.0906515 -0.0276618,-0.0265553 -0.063543,-0.0474992 -0.107802,-0.0629898 -0.0441798,-0.0154906 -0.0983178,-0.0232359 -0.161861,-0.0232359 -0.0773739,0 -0.155301,0.00829853 -0.233228,0.0254488 -0.0773739,0.0177035 -0.161861,0.0436265 -0.252512,0.0779271l0 -0.299537c0.0790336,-0.0342215 0.162493,-0.0607768 0.250853,-0.0790336 0.0889918,-0.018731 0.181856,-0.028136 0.278514,-0.0292424 0.114441,0 0.214971,0.0138309 0.300644,0.0419668 0.0855934,0.028215 0.157435,0.0668624 0.214971,0.115468 0.0580107,0.0492379 0.101084,0.107249 0.129852,0.174111 0.0286892,0.0668624 0.0425201,0.13981 0.0425201,0.218844l0 0.590697c0,0.10385 0.00110647,0.192842 0.00331941,0.26745 0.00221294,0.0740545 0.00442588,0.140917 0.00663882,0.198928l-0.346483 0 -0.0160438 -0.166919zm-0.0309021 -0.501705c-0.0365135,-0.00885176 -0.0784804,-0.0165971 -0.12598,-0.0232359 -0.0475782,-0.00719206 -0.0956307,-0.0105115 -0.144236,-0.0105115 -0.0939709,0 -0.168025,0.0182568 -0.222717,0.0558768 -0.0546912,0.0369877 -0.0817998,0.0938919 -0.0817998,0.170713 0,0.0354071 0.00608559,0.0663092 0.01881,0.0928645 0.0121712,0.0264763 0.0292424,0.0486057 0.0502654,0.065756 0.0210229,0.0170713 0.0453653,0.0297957 0.0735012,0.0386474 0.028215,0.00885176 0.0574574,0.0132776 0.0889918,0.0132776 0.0386474,0 0.0757142,-0.00553235 0.109936,-0.0154906 0.0348538,-0.0105115 0.0663092,-0.0232359 0.0956307,-0.0392007 0.0292424,-0.0154906 0.0552445,-0.0331941 0.0784804,-0.0524783 0.0231568,-0.0193632 0.0430733,-0.0381732 0.0591171,-0.05643l0 -0.239788z"/>
  <path id="1234567" class="fil3" d="M13.6464 9.9165c0.0613301,-0.218291 0.138704,-0.463611 0.231489,-0.736593l0.108355 -0.312815 0.529367 0 0 1.56882 -0.369166 0 0 -0.563668c0,-0.138151 0.00663882,-0.328227 0.0193632,-0.571334l-0.0127244 0c-0.0314554,0.0983178 -0.0718415,0.218291 -0.121,0.360235 -0.0491589,0.142023 -0.106616,0.307836 -0.174032,0.497912l-0.0967371 0.276855 -0.241448 0 -0.0989501 -0.278514c-0.0668624,-0.187863 -0.12432,-0.352016 -0.172372,-0.492933 -0.0481315,-0.140917 -0.0878854,-0.261917 -0.120447,-0.363555l-0.0127244 0c0.0127244,0.228723 0.0192842,0.419431 0.0192842,0.571334l0 0.563668 -0.369087 0 0 -1.56882 0.529367 0 0.108276 0.312815c0.10061,0.295586 0.17743,0.540985 0.231568,0.736593l0.0116179 0z"/>
  <path id="12345678" class="fil3" d="M15.8239 10.1674c0.0746077,0 0.151982,-0.00774529 0.233228,-0.0226826 0.0806143,-0.0154116 0.162967,-0.0369877 0.245874,-0.0652027l0 0.306176c-0.0497121,0.0214971 -0.12598,0.0419668 -0.228249,0.0618833 -0.102744,0.0193632 -0.208886,0.0286892 -0.318822,0.0286892 -0.111042,0 -0.216631,-0.0143051 -0.316609,-0.0425201 -0.100057,-0.0287682 -0.186835,-0.075161 -0.261443,-0.138704 -0.0745287,-0.063543 -0.133725,-0.146449 -0.177351,-0.247533 -0.0436265,-0.101716 -0.065756,-0.224376 -0.065756,-0.369166 0,-0.142577 0.0204697,-0.266896 0.0618833,-0.374066 0.0409394,-0.106695 0.0961839,-0.195055 0.165259,-0.265237 0.0690754,-0.0701818 0.148109,-0.122739 0.237022,-0.158067 0.0889918,-0.0348538 0.18075,-0.0524783 0.275748,-0.0524783 0.0995033,0 0.190629,0.0149373 0.274642,0.0452863 0.0834595,0.0304279 0.155854,0.0773739 0.216631,0.142577 0.0613301,0.0646495 0.108829,0.148109 0.142577,0.249746 0.0342215,0.102269 0.0513718,0.222717 0.0513718,0.361974 -0.00110647,0.054138 -0.00276618,0.0999775 -0.00497912,0.137597l-1.02839 0c0.00553235,0.0723948 0.0215762,0.134278 0.0486847,0.18565 0.0270295,0.0508186 0.0624365,0.0928645 0.106063,0.12432 0.0436265,0.0320876 0.0950774,0.0553235 0.153088,0.0696286 0.0580107,0.0143841 0.121554,0.0221294 0.189523,0.0221294zm-0.154195 -1.03945c-0.0480524,0 -0.091679,0.00885176 -0.129299,0.0265553 -0.037541,0.0177035 -0.0701818,0.0419668 -0.0977646,0.072948 -0.0276618,0.0309021 -0.0497912,0.0668624 -0.065756,0.107723 -0.0160438,0.0409394 -0.0271085,0.0845659 -0.0320876,0.130959l0.616699 0c0,-0.0463927 -0.00608559,-0.0900193 -0.01881,-0.130959 -0.0121712,-0.0408604 -0.0309021,-0.0768207 -0.0546912,-0.107723 -0.0243423,-0.0309812 -0.0546912,-0.0552445 -0.0912048,-0.072948 -0.0358813,-0.0177035 -0.0784013,-0.0265553 -0.127086,-0.0265553z"/>
  <polygon id="123456789" class="fil3" points="17.812,10.4359 17.812,9.78831 17.1787,9.78831 17.1787,10.4359 16.7952,10.4359 16.7952,8.8671 17.1787,8.8671 17.1787,9.46277 17.812,9.46277 17.812,8.8671 18.1954,8.8671 18.1954,10.4359 "/>
  <polygon id="12345678910" class="fil3" points="19.018,9.1909 18.518,9.1909 18.518,8.8671 19.9016,8.8671 19.9016,9.1909 19.4015,9.1909 19.4015,10.4359 19.018,10.4359 "/>
  <polygon id="1234567891011" class="fil3" points="21.9239,10.4359 21.9239,9.78831 21.2906,9.78831 21.2906,10.4359 20.9072,10.4359 20.9072,8.8671 21.2906,8.8671 21.2906,9.46277 21.9239,9.46277 21.9239,8.8671 22.3074,8.8671 22.3074,10.4359 "/>
  <path id="123456789101112" class="fil3" d="M23.6157 10.1674c0.0746077,0 0.151982,-0.00774529 0.233228,-0.0226826 0.0806143,-0.0154116 0.162967,-0.0369877 0.245874,-0.0652027l0 0.306176c-0.0497121,0.0214971 -0.12598,0.0419668 -0.228249,0.0618833 -0.102744,0.0193632 -0.208886,0.0286892 -0.318822,0.0286892 -0.111042,0 -0.216631,-0.0143051 -0.316609,-0.0425201 -0.100057,-0.0287682 -0.186835,-0.075161 -0.261443,-0.138704 -0.0745287,-0.063543 -0.133725,-0.146449 -0.177351,-0.247533 -0.0436265,-0.101716 -0.065756,-0.224376 -0.065756,-0.369166 0,-0.142577 0.0204697,-0.266896 0.0618833,-0.374066 0.0409394,-0.106695 0.0961839,-0.195055 0.165259,-0.265237 0.0690754,-0.0701818 0.148109,-0.122739 0.237022,-0.158067 0.0889918,-0.0348538 0.18075,-0.0524783 0.275748,-0.0524783 0.0995033,0 0.190629,0.0149373 0.274642,0.0452863 0.0834595,0.0304279 0.155854,0.0773739 0.216631,0.142577 0.0613301,0.0646495 0.108829,0.148109 0.142577,0.249746 0.0342215,0.102269 0.0513718,0.222717 0.0513718,0.361974 -0.00110647,0.054138 -0.00276618,0.0999775 -0.00497912,0.137597l-1.02839 0c0.00553235,0.0723948 0.0215762,0.134278 0.0486847,0.18565 0.0270295,0.0508186 0.0624365,0.0928645 0.106063,0.12432 0.0436265,0.0320876 0.0950774,0.0553235 0.153088,0.0696286 0.0580107,0.0143841 0.121554,0.0221294 0.189523,0.0221294zm-0.154195 -1.03945c-0.0480524,0 -0.091679,0.00885176 -0.129299,0.0265553 -0.037541,0.0177035 -0.0701818,0.0419668 -0.0977646,0.072948 -0.0276618,0.0309021 -0.0497912,0.0668624 -0.065756,0.107723 -0.0160438,0.0409394 -0.0271085,0.0845659 -0.0320876,0.130959l0.616699 0c0,-0.0463927 -0.00608559,-0.0900193 -0.01881,-0.130959 -0.0121712,-0.0408604 -0.0309021,-0.0768207 -0.0546912,-0.107723 -0.0243423,-0.0309812 -0.0546912,-0.0552445 -0.0912048,-0.072948 -0.0358813,-0.0177035 -0.0784013,-0.0265553 -0.127086,-0.0265553z"/>
  <path id="12345678910111213" class="fil3" d="M25.9452 8.8671l0 1.24336 0.239235 0 0 0.87585 -0.371853 0 0 -0.55039 -1.00736 0 0 0.55039 -0.371932 0 0 -0.87585 0.110015 0c0.0679689,-0.0723948 0.129852,-0.148109 0.185097,-0.227143 0.0557977,-0.0795868 0.103297,-0.1685 0.14313,-0.266343 0.0403071,-0.0983178 0.0718415,-0.208333 0.0955516,-0.330439 0.0237891,-0.122107 0.0392797,-0.261917 0.0453653,-0.419431l0.932755 0zm-0.615039 0.318822c-0.0121712,0.108355 -0.028215,0.205013 -0.0486057,0.291792 -0.0204697,0.0862257 -0.0459185,0.165259 -0.0757142,0.237101 -0.0293215,0.0718415 -0.063543,0.139257 -0.101716,0.202247 -0.0380942,0.0629898 -0.0806933,0.125426 -0.127086,0.186756l0 0.00663882 0.584612 0 0 -0.924535 -0.231489 0z"/>
  <path id="1234567891011121314" class="fil3" d="M27.7973 9.27823c0,0.0779271 -0.0204697,0.145896 -0.0613301,0.203907 -0.0414926,0.0585639 -0.0989501,0.102269 -0.173558,0.131512l0 0.00608559c0.0928645,0.0248956 0.162493,0.065756 0.209439,0.12266 0.047025,0.056351 0.0707351,0.127086 0.0707351,0.211099 0,0.101716 -0.0303489,0.190629 -0.0906515,0.268003 -0.0607768,0.0768207 -0.150243,0.134278 -0.269109,0.172451 -0.0441798,0.0137518 -0.0949984,0.0242633 -0.152456,0.0314554 -0.0580107,0.00719206 -0.127639,0.0105115 -0.209992,0.0105115l-0.61338 0 0 -1.56882 0.691307 0c0.0580107,0 0.111042,0.00276618 0.157435,0.00885176 0.047025,0.00608559 0.0895451,0.0149373 0.127086,0.0271085 0.102823,0.0309021 0.18075,0.0795078 0.234335,0.145343 0.0530315,0.065756 0.0801401,0.142498 0.0801401,0.22983zm-0.637722 0.861466c0.0409394,0 0.075161,-0.00221294 0.103376,-0.00553235 0.028136,-0.00379361 0.0513718,-0.00932596 0.0696286,-0.0170713 0.0386474,-0.0154906 0.0674157,-0.0365135 0.0855934,-0.0640962 0.0182568,-0.0276618 0.0276618,-0.0602236 0.0276618,-0.0978436 0,-0.0336683 -0.00829853,-0.0629898 -0.0248956,-0.0889918 -0.0170713,-0.025923 -0.0408604,-0.0458395 -0.0723948,-0.0602236 -0.0170713,-0.00719206 -0.0364345,-0.0131986 -0.0580107,-0.016518 -0.0214971,-0.00387265 -0.0486057,-0.00608559 -0.0811675,-0.00608559l-0.325539 0 0 0.356362 0.275748 0zm0.0160438 -0.65258c0.063543,0 0.111042,-0.00829853 0.142577,-0.0260021 0.0275827,-0.0148583 0.0486057,-0.0347748 0.0618833,-0.0596704 0.0138309,-0.0248165 0.0204697,-0.0524783 0.0204697,-0.082274 0,-0.0608559 -0.0260021,-0.104482 -0.0779271,-0.131591 -0.0298747,-0.0159648 -0.0784804,-0.0242633 -0.145343,-0.0242633l-0.293452 0 0 0.323801 0.291792 0z"/>
  <path id="123456789101112131415" class="fil3" d="M29.7123 8.8671l0 1.56882 -0.383471 0 0 -0.454759c0,-0.20612 0.00442588,-0.392323 0.0143841,-0.558688l-0.00663882 0c-0.065756,0.113255 -0.166366,0.262471 -0.301197,0.447014l-0.420459 0.566434 -0.353122 0 0 -1.56882 0.383471 0 0 0.454759c0,0.22493 -0.00497912,0.411133 -0.0143841,0.558688l0.00663882 0c0.0624365,-0.107723 0.162493,-0.256938 0.300644,-0.446461l0.421091 -0.566987 0.353043 0z"/>
  <polygon id="12345678910111213141516" class="fil3" points="31.4057,9.549 31.414,9.549 31.9225,8.8671 32.3756,8.8671 31.7622,9.64131 32.4065,10.4359 31.9528,10.4359 31.4124,9.75124 31.4057,9.75124 31.4057,10.4359 31.0223,10.4359 31.0223,9.75124 31.0156,9.75124 30.4746,10.4359 30.0182,10.4359 30.6658,9.64131 30.0558,8.8671 30.5056,8.8671 31.014,9.549 31.0223,9.549 31.0223,8.8671 31.4057,8.8671 "/>
  <path id="1234567891011121314151617" class="fil3" d="M34.1629 8.8671l0 1.56882 -0.383471 0 0 -0.454759c0,-0.20612 0.00442588,-0.392323 0.0143841,-0.558688l-0.00663882 0c-0.065756,0.113255 -0.166366,0.262471 -0.301197,0.447014l-0.420459 0.566434 -0.353122 0 0 -1.56882 0.383471 0 0 0.454759c0,0.22493 -0.00497912,0.411133 -0.0143841,0.558688l0.00663882 0c0.0624365,-0.107723 0.162493,-0.256938 0.300644,-0.446461l0.421091 -0.566987 0.353043 0z"/>
  <path id="123456789101112131415161718" class="fil3" d="M35.5442 9.9165c0.0613301,-0.218291 0.138704,-0.463611 0.231489,-0.736593l0.108355 -0.312815 0.529367 0 0 1.56882 -0.369166 0 0 -0.563668c0,-0.138151 0.00663882,-0.328227 0.0193632,-0.571334l-0.0127244 0c-0.0314554,0.0983178 -0.0718415,0.218291 -0.121,0.360235 -0.0491589,0.142023 -0.106616,0.307836 -0.174032,0.497912l-0.0967371 0.276855 -0.241448 0 -0.0989501 -0.278514c-0.0668624,-0.187863 -0.12432,-0.352016 -0.172372,-0.492933 -0.0481315,-0.140917 -0.0878854,-0.261917 -0.120447,-0.363555l-0.0127244 0c0.0127244,0.228723 0.0192842,0.419431 0.0192842,0.571334l0 0.563668 -0.369087 0 0 -1.56882 0.529367 0 0.108276 0.312815c0.10061,0.295586 0.17743,0.540985 0.231568,0.736593l0.0116179 0z"/>
  <path id="12345678910111213141516171819" class="fil3" d="M38.0129 9.65237c0,-0.0829062 -0.009405,-0.156407 -0.0293215,-0.21995 -0.0193632,-0.0640962 -0.0463927,-0.117128 -0.0806933,-0.16028 -0.0347748,-0.0436265 -0.0762674,-0.0757142 -0.124873,-0.0972113 -0.0486057,-0.0215762 -0.101084,-0.0326409 -0.15862,-0.0326409 -0.0557977,0 -0.108276,0.0110647 -0.156328,0.0326409 -0.0475782,0.0214971 -0.0889918,0.0535848 -0.123767,0.0972113 -0.0343006,0.0431523 -0.0613301,0.0961839 -0.0806933,0.16028 -0.0193632,0.063543 -0.0293215,0.137044 -0.0293215,0.21995 0,0.0828272 0.00995823,0.156328 0.0293215,0.219871 0.0193632,0.0640962 0.0463927,0.117207 0.0817998,0.159727 0.0347748,0.0425201 0.0767416,0.075161 0.12432,0.0972904 0.0480524,0.0220504 0.101084,0.0331151 0.157988,0.0331151 0.0575365,0 0.109462,-0.0110647 0.156961,-0.0331151 0.0474992,-0.0221294 0.0884386,-0.0547703 0.123213,-0.0972904 0.0343006,-0.0425201 0.0613301,-0.0956307 0.0806933,-0.159727 0.0199165,-0.063543 0.0293215,-0.137044 0.0293215,-0.219871zm0.396749 0c0,0.123213 -0.0182568,0.235362 -0.0552445,0.336525 -0.0365135,0.101637 -0.0889918,0.188416 -0.157514,0.260811 -0.0685221,0.0723948 -0.151428,0.128192 -0.24864,0.167393 -0.0972904,0.0398329 -0.205566,0.0591171 -0.325539,0.0591171 -0.123213,0 -0.233149,-0.0192842 -0.330993,-0.0591171 -0.0977646,-0.0392007 -0.180671,-0.0949984 -0.24864,-0.167393 -0.0679689,-0.0723948 -0.119894,-0.159174 -0.155854,-0.260811 -0.0364345,-0.101163 -0.0546912,-0.213312 -0.0546912,-0.336525 0,-0.123292 0.01881,-0.235441 0.0552445,-0.336525 0.0365135,-0.101716 0.0895451,-0.188495 0.158067,-0.26089 0.0685221,-0.0723948 0.151428,-0.128192 0.248086,-0.167393 0.0972904,-0.0398329 0.205566,-0.0591171 0.32546,-0.0591171 0.123292,0 0.233781,0.0192842 0.331072,0.0591171 0.0977646,0.0392007 0.180671,0.0949984 0.24864,0.167393 0.0679689,0.0723948 0.119894,0.159174 0.156407,0.26089 0.0358813,0.101084 0.054138,0.213233 0.054138,0.336525z"/>
  <path id="1234567891011121314151617181920" class="fil3" d="M39.9589 10.4017c-0.0486057,0.0209439 -0.108276,0.0380942 -0.177905,0.0530315 -0.0701818,0.0143841 -0.144236,0.0214971 -0.222163,0.0214971 -0.113255,0 -0.218844,-0.0159648 -0.317162,-0.0486057 -0.0983968,-0.0320086 -0.18399,-0.0812465 -0.257491,-0.147002 -0.0735012,-0.065756 -0.130959,-0.149215 -0.173005,-0.250299 -0.0425201,-0.101163 -0.063543,-0.218844 -0.063543,-0.353675 0,-0.150875 0.0243423,-0.280727 0.072948,-0.38845 0.0486057,-0.107723 0.111595,-0.195608 0.188969,-0.263024 0.0768207,-0.0674157 0.1636,-0.117128 0.260258,-0.149215 0.0967371,-0.0314554 0.191815,-0.0474992 0.285706,-0.0474992 0.0701818,0 0.137597,0.00608559 0.2028,0.018731 0.0646495,0.0121712 0.123213,0.0293215 0.176324,0.0508976l0 0.312183c-0.0475782,-0.0204697 -0.0978436,-0.0369877 -0.151428,-0.0491589 -0.0535848,-0.0127244 -0.111121,-0.01881 -0.172451,-0.01881 -0.0613301,0 -0.120447,0.009405 -0.176245,0.028215 -0.056351,0.0192842 -0.106063,0.0491589 -0.149215,0.0900193 -0.0430733,0.0409394 -0.0773739,0.0950774 -0.102744,0.162493 -0.0254488,0.0679689 -0.0381732,0.149215 -0.0381732,0.243661 0,0.0690754 0.00995823,0.134278 0.0293215,0.195055 0.0193632,0.0614091 0.0474992,0.113334 0.0851192,0.156407 0.0369877,0.0431523 0.0844869,0.0779271 0.142498,0.104482 0.0575365,0.0264763 0.126059,0.0397539 0.20446,0.0397539 0.0701818,0 0.133725,-0.00719206 0.191261,-0.0210229 0.0569042,-0.0143051 0.111042,-0.0314554 0.161861,-0.0519251l0 0.312262z"/>
  <polygon id="123456789101112131415161718192021" class="fil3" points="40.6925,9.1909 40.1925,9.1909 40.1925,8.8671 41.5761,8.8671 41.5761,9.1909 41.076,9.1909 41.076,10.4359 40.6925,10.4359 "/>
  <path id="12345678910111213141516171819202122" class="fil3" d="M43.3491 8.8671l0 1.56882 -0.383471 0 0 -0.454759c0,-0.20612 0.00442588,-0.392323 0.0143841,-0.558688l-0.00663882 0c-0.065756,0.113255 -0.166366,0.262471 -0.301197,0.447014l-0.420459 0.566434 -0.353122 0 0 -1.56882 0.383471 0 0 0.454759c0,0.22493 -0.00497912,0.411133 -0.0143841,0.558688l0.00663882 0c0.0624365,-0.107723 0.162493,-0.256938 0.300644,-0.446461l0.421091 -0.566987 0.353043 0z"/>
 </g>
</svg>
