<svg width="23" height="23" viewBox="0 0 23 23" fill="none" xmlns="http://www.w3.org/2000/svg">
<path d="M2 1.5H21V-1.5H2V1.5ZM21.5 2V21H24.5V2H21.5ZM21 21.5H2V24.5H21V21.5ZM1.5 21V2H-1.5V21H1.5ZM2 21.5C1.72386 21.5 1.5 21.2761 1.5 21H-1.5C-1.5 22.933 0.0670024 24.5 2 24.5V21.5ZM21.5 21C21.5 21.2761 21.2761 21.5 21 21.5V24.5C22.933 24.5 24.5 22.933 24.5 21H21.5ZM21 1.5C21.2761 1.5 21.5 1.72386 21.5 2H24.5C24.5 0.067004 22.933 -1.5 21 -1.5V1.5ZM2 -1.5C0.067004 -1.5 -1.5 0.0670024 -1.5 2H1.5C1.5 1.72386 1.72386 1.5 2 1.5V-1.5Z" fill="#C59C7E"/>
<path d="M17.0473 5.85246C17.3255 5.59159 17.6958 5.44737 18.0799 5.45024C18.464 5.4531 18.832 5.60282 19.1062 5.86781C19.3803 6.13279 19.5393 6.49232 19.5494 6.87052C19.5596 7.24872 19.4202 7.61602 19.1606 7.8949L11.2803 17.6014C11.1448 17.7451 10.9812 17.8605 10.7994 17.9405C10.6176 18.0206 10.4213 18.0637 10.2222 18.0674C10.0231 18.071 9.82525 18.0351 9.64056 17.9617C9.45587 17.8883 9.2881 17.779 9.14728 17.6403L3.9214 12.4933C3.77587 12.3598 3.65914 12.1987 3.57818 12.0197C3.49722 11.8408 3.45369 11.6476 3.45018 11.4517C3.44667 11.2558 3.48326 11.0613 3.55776 10.8796C3.63226 10.6979 3.74314 10.5329 3.8838 10.3944C4.02446 10.2559 4.19201 10.1466 4.37645 10.0733C4.56089 9.99989 4.75845 9.96386 4.95734 9.96732C5.15623 9.97077 5.35238 10.0136 5.53408 10.0934C5.71578 10.1731 5.87931 10.2881 6.01491 10.4314L10.1506 14.5027L17.0098 5.89526C17.0222 5.88028 17.0353 5.866 17.0493 5.85246H17.0473Z" fill="#146492"/>
</svg>
