<svg width="30" height="33" viewBox="0 0 30 33" fill="none" xmlns="http://www.w3.org/2000/svg">
<path fill-rule="evenodd" clip-rule="evenodd" d="M13.1576 0.517133L13.158 0.516755C13.8474 -0.172252 14.9748 -0.172252 15.6638 0.516755L27.5051 12.3584C28.1941 13.0474 28.1941 14.1752 27.5051 14.8638V14.8642C26.8161 15.5532 25.6883 15.5536 24.9993 14.8642L13.1576 3.02297C12.4686 2.33358 12.4686 1.20615 13.1576 0.517138L13.1576 0.517133Z" fill="#D46B25"/>
<path fill-rule="evenodd" clip-rule="evenodd" d="M26.2522 32.1414H26.2518C25.2771 32.1414 24.48 31.3439 24.48 30.3695V13.6232C24.48 12.6488 25.2775 11.8513 26.2518 11.8513H26.2522C27.2266 11.8513 28.0241 12.6484 28.0241 13.6232V30.3695C28.0241 31.3443 27.2269 32.1414 26.2522 32.1414Z" fill="#D46B25"/>
<path fill-rule="evenodd" clip-rule="evenodd" d="M2.32447 32.1414H2.32409C1.34935 32.1414 0.552246 31.3439 0.552246 30.3695V13.6232C0.552246 12.6488 1.34973 11.8513 2.32409 11.8513H2.32447C3.29884 11.8513 4.09632 12.6484 4.09632 13.6232V30.3695C4.09632 31.3443 3.29921 32.1414 2.32447 32.1414Z" fill="#D46B25"/>
<path fill-rule="evenodd" clip-rule="evenodd" d="M28.0236 30.369V30.3694C28.0236 31.3441 27.2235 32.1412 26.2518 32.1412H2.32434C1.35262 32.1412 0.55249 31.3411 0.55249 30.3694V30.369C0.55249 29.3973 1.34959 28.5972 2.32434 28.5972H26.2518C27.2265 28.5972 28.0236 29.3943 28.0236 30.369Z" fill="#D46B25"/>
<path fill-rule="evenodd" clip-rule="evenodd" d="M1.06547 14.8647L1.0651 14.8643C0.376088 14.1749 0.376088 13.0475 1.0651 12.3585L12.9067 0.517244C13.5957 -0.171764 14.7236 -0.171764 15.4122 0.517244H15.4126C16.1016 1.20625 16.102 2.33406 15.4126 3.02307L3.57131 14.8647C2.88192 15.5537 1.75449 15.5537 1.06548 14.8647L1.06547 14.8647Z" fill="#D46B25"/>
<path fill-rule="evenodd" clip-rule="evenodd" d="M13.3154 27.2387L13.3158 27.2391C14.0052 27.9281 15.1269 27.9213 15.8216 27.2391L29.2598 14.0406C29.9544 13.3584 29.9484 12.2234 29.2598 11.5351V11.5348C28.5711 10.8461 27.449 10.8514 26.7539 11.5348L13.3154 24.7329C12.6204 25.4162 12.6264 26.5497 13.3154 27.2387L13.3154 27.2387Z" fill="#0F6F90"/>
<path fill-rule="evenodd" clip-rule="evenodd" d="M7.89252 19.107H7.89214C7.20276 19.7964 7.2175 20.9129 7.89214 21.6129L13.3154 27.2394C13.9904 27.9394 15.1341 27.9269 15.8212 27.2394L15.8216 27.2391C16.5091 26.5519 16.4985 25.4351 15.8216 24.7332L10.3983 19.107C9.72106 18.4056 8.58153 18.4176 7.89252 19.107V19.107Z" fill="#0F6F90"/>
</svg>
