<svg width="23" height="20" viewBox="0 0 23 20" fill="none" xmlns="http://www.w3.org/2000/svg">
<path d="M21.5625 3.75H15.8125V2.3125C15.8125 1.52187 15.1656 0.875 14.375 0.875H8.625C7.83437 0.875 7.1875 1.52187 7.1875 2.3125V3.75H1.4375C0.646875 3.75 0 4.39687 0 5.1875V18.125C0 18.9156 0.646875 19.5625 1.4375 19.5625H21.5625C22.3531 19.5625 23 18.9156 23 18.125V5.1875C23 4.39687 22.3531 3.75 21.5625 3.75ZM8.625 2.31538C8.62644 2.31394 8.62644 2.31394 8.62787 2.3125H14.3721C14.3736 2.31394 14.3736 2.31394 14.375 2.31538V3.75H8.625V2.31538ZM21.5625 9.5H18.6875V11.6562C18.6875 12.0516 18.3641 12.375 17.9688 12.375H16.5312C16.1359 12.375 15.8125 12.0516 15.8125 11.6562V9.5H7.1875V11.6562C7.1875 12.0516 6.86406 12.375 6.46875 12.375H5.03125C4.63594 12.375 4.3125 12.0516 4.3125 11.6562V9.5H1.4375V8.0625H21.5625V9.5Z" fill="#C59C7E"/>
</svg>
