<svg width="23" height="23" viewBox="0 0 23 23" fill="none" xmlns="http://www.w3.org/2000/svg">
<path d="M12.2183 2.51562V6.41988L12.2859 6.417C12.7344 6.39975 13.3525 6.394 13.7967 6.48313C14.1992 6.56363 14.5773 6.74187 14.8576 6.89712C15.25 7.11562 15.5131 7.45056 15.6626 7.82L15.8523 7.80275C16.3008 7.76825 16.9937 7.74812 17.5169 7.958C18.0488 8.17075 18.5074 8.65806 18.7819 8.98725C18.8898 9.11662 18.9846 9.23881 19.0623 9.34375H19.8989C20.3005 9.34377 20.6977 9.42795 21.0649 9.59086C21.432 9.75378 21.761 9.99183 22.0305 10.2896C22.3 10.5875 22.5041 10.9385 22.6297 11.32C22.7552 11.7015 22.7995 12.1051 22.7595 12.5048L22.3685 16.4076C22.2983 17.1106 22.0808 17.7909 21.7302 18.4043L19.7249 21.9132C19.5364 22.2433 19.264 22.5176 18.9353 22.7085C18.6067 22.8993 18.2334 22.9999 17.8533 23H8.79419C8.39354 23 8.00081 22.8883 7.66006 22.6776C7.31931 22.4669 7.04402 22.1653 6.86506 21.8069L5.1185 18.3137L1.53769 12.3467C1.26589 11.8904 1.16994 11.3506 1.26785 10.8286C1.36577 10.3066 1.65081 9.83832 2.06949 9.51156C2.48817 9.18481 3.01171 9.02207 3.54185 9.0539C4.07199 9.08573 4.5723 9.30993 4.94888 9.68444L7.18706 11.9212V2.51562C7.18706 1.84844 7.4521 1.20858 7.92387 0.736809C8.39564 0.265038 9.0355 0 9.70269 0C10.3699 0 11.0097 0.265038 11.4815 0.736809C11.9533 1.20858 12.2183 1.84844 12.2183 2.51562Z" fill="#C59C7E"/>
</svg>
