<svg width="28" height="22" viewBox="0 0 28 22" fill="none" xmlns="http://www.w3.org/2000/svg">
<path d="M18.6693 11.9375H9.23572V10.0625H18.6693V1.39062C18.6693 1.20414 18.5952 1.0253 18.4634 0.89344C18.3315 0.761579 18.1527 0.6875 17.9662 0.6875H1.55994C1.37346 0.6875 1.19461 0.761579 1.06275 0.89344C0.930891 1.0253 0.856812 1.20414 0.856812 1.39062V20.6094C0.856812 20.7959 0.930891 20.9747 1.06275 21.1066C1.19461 21.2384 1.37346 21.3125 1.55994 21.3125H17.9662C18.1527 21.3125 18.3315 21.2384 18.4634 21.1066C18.5952 20.9747 18.6693 20.7959 18.6693 20.6094V11.9375Z" fill="#C59C7E"/>
<path d="M23.5543 11.9373L19.8043 15.6873L21.1302 17.0133L27.1431 10.9998L21.1302 4.98633L19.8043 6.3123L23.5543 10.0623H18.6693V11.9373H23.5543Z" fill="#C59C7E"/>
</svg>
