<svg width="10" height="20" viewBox="0 0 10 20" fill="none" xmlns="http://www.w3.org/2000/svg">
<path d="M0.625 3.75C0.625 2.9212 0.95424 2.12634 1.54029 1.54029C2.12634 0.95424 2.9212 0.625 3.75 0.625C4.5788 0.625 5.37366 0.95424 5.95971 1.54029C6.54576 2.12634 6.875 2.9212 6.875 3.75V15C6.875 15.4973 6.67746 15.9742 6.32583 16.3258C5.97419 16.6775 5.49728 16.875 5 16.875C4.50272 16.875 4.02581 16.6775 3.67417 16.3258C3.32254 15.9742 3.125 15.4973 3.125 15V6.25C3.125 6.08424 3.19085 5.92527 3.30806 5.80806C3.42527 5.69085 3.58424 5.625 3.75 5.625C3.91576 5.625 4.07473 5.69085 4.19194 5.80806C4.30915 5.92527 4.375 6.08424 4.375 6.25V15C4.375 15.1658 4.44085 15.3247 4.55806 15.4419C4.67527 15.5592 4.83424 15.625 5 15.625C5.16576 15.625 5.32473 15.5592 5.44194 15.4419C5.55915 15.3247 5.625 15.1658 5.625 15V3.75C5.625 3.50377 5.5765 3.25995 5.48227 3.03247C5.38805 2.80498 5.24994 2.59828 5.07583 2.42417C4.90172 2.25006 4.69502 2.11195 4.46753 2.01773C4.24005 1.9235 3.99623 1.875 3.75 1.875C3.50377 1.875 3.25995 1.9235 3.03247 2.01773C2.80498 2.11195 2.59828 2.25006 2.42417 2.42417C2.25006 2.59828 2.11195 2.80498 2.01773 3.03247C1.9235 3.25995 1.875 3.50377 1.875 3.75V15C1.875 15.8288 2.20424 16.6237 2.79029 17.2097C3.37634 17.7958 4.1712 18.125 5 18.125C5.8288 18.125 6.62366 17.7958 7.20971 17.2097C7.79576 16.6237 8.125 15.8288 8.125 15V6.25C8.125 6.08424 8.19085 5.92527 8.30806 5.80806C8.42527 5.69085 8.58424 5.625 8.75 5.625C8.91576 5.625 9.07473 5.69085 9.19194 5.80806C9.30915 5.92527 9.375 6.08424 9.375 6.25V15C9.375 16.1603 8.91406 17.2731 8.09359 18.0936C7.27312 18.9141 6.16032 19.375 5 19.375C3.83968 19.375 2.72688 18.9141 1.90641 18.0936C1.08594 17.2731 0.625 16.1603 0.625 15V3.75Z" fill="#4F4F4F"/>
</svg>
