<svg width="14" height="18" viewBox="0 0 14 18" fill="none" xmlns="http://www.w3.org/2000/svg">
<path d="M7 18C7 18 14 11.6033 14 6.75C14 4.95979 13.2625 3.2429 11.9497 1.97703C10.637 0.711159 8.85652 0 7 0C5.14348 0 3.36301 0.711159 2.05025 1.97703C0.737498 3.2429 2.76642e-08 4.95979 0 6.75C0 11.6033 7 18 7 18ZM7 10.125C6.07174 10.125 5.1815 9.76942 4.52513 9.13649C3.86875 8.50355 3.5 7.64511 3.5 6.75C3.5 5.85489 3.86875 4.99645 4.52513 4.36351C5.1815 3.73058 6.07174 3.375 7 3.375C7.92826 3.375 8.8185 3.73058 9.47487 4.36351C10.1313 4.99645 10.5 5.85489 10.5 6.75C10.5 7.64511 10.1313 8.50355 9.47487 9.13649C8.8185 9.76942 7.92826 10.125 7 10.125Z" fill="#C59C7E"/>
</svg>
