<svg width="206" height="206" viewBox="0 0 206 206" fill="none" xmlns="http://www.w3.org/2000/svg">
<path d="M97.8949 95.8603H79.083C74.139 95.8603 70.1158 91.8392 70.1158 86.8972C70.1158 82.9091 72.3014 74.2221 74.2296 66.5568C75.8591 60.0822 77.3979 53.9661 77.9726 49.673C78.5906 45.0978 77.1589 40.5534 73.9433 36.8763C70.2002 32.5936 64.5332 30.0371 58.7837 30.0371C53.0281 30.0371 47.3548 32.5956 43.6118 36.8804C40.3982 40.5575 38.9727 45.1019 39.5907 49.671C40.1778 54.0402 41.8155 60.2614 43.5459 66.8473C45.5338 74.4054 47.7874 82.9729 47.7874 86.8972C47.7874 91.8392 43.7643 95.8603 38.8203 95.8603H19.6623C17.9545 95.8603 16.5723 97.2426 16.5723 98.9503V176.878C16.5723 178.584 17.9545 179.968 19.6623 179.968H97.8928C99.6005 179.968 100.983 178.584 100.983 176.878V98.9503C100.985 97.2446 99.6026 95.8603 97.8949 95.8603ZM38.8223 102.04C47.1756 102.04 53.9695 95.2464 53.9695 86.8972C53.9695 82.1737 51.8106 73.9646 49.524 65.2734C47.9152 59.1593 46.2527 52.8351 45.7151 48.8428C45.233 45.2811 46.8357 42.5825 48.2654 40.9469C50.8136 38.0299 54.8429 36.2171 58.7817 36.2171C62.7142 36.2171 66.7415 38.0279 69.2897 40.9428C70.7214 42.5805 72.3282 45.2811 71.8462 48.847C71.3168 52.796 69.7491 59.0254 68.235 65.0489C66.0226 73.841 63.9358 82.1428 63.9358 86.8972C63.9358 95.2464 70.7297 102.04 79.083 102.04H94.8049V118.543H22.7543V102.04H38.8223ZM22.7543 173.788V124.723H94.8049V173.788H22.7543Z" fill="#C59C7E"/>
<path d="M68.4025 49.0626C68.4025 43.7581 64.0868 39.4424 58.7823 39.4424C53.4778 39.4424 49.1621 43.7581 49.1621 49.0626C49.1621 54.3671 53.4778 58.6828 58.7823 58.6828C64.0868 58.6828 68.4025 54.3671 68.4025 49.0626ZM55.3421 49.0626C55.3421 47.1653 56.8851 45.6224 58.7823 45.6224C60.6796 45.6224 62.2225 47.1653 62.2225 49.0626C62.2225 50.9598 60.6796 52.5028 58.7823 52.5028C56.8851 52.5028 55.3421 50.9598 55.3421 49.0626Z" fill="#C59C7E"/>
<path d="M188.197 52.7154L171.415 40.0691C170.879 39.6653 170.228 39.4469 169.557 39.4469H156.85V29.1222C156.85 27.4145 155.466 26.0322 153.76 26.0322H131.253C129.547 26.0322 128.163 27.4145 128.163 29.1222V39.4469H98.674C96.9662 39.4469 95.584 40.8292 95.584 42.5369V66.6245C95.584 68.3323 96.9662 69.7145 98.674 69.7145H128.163V176.878C128.163 178.583 129.547 179.968 131.253 179.968H153.76C155.466 179.968 156.85 178.583 156.85 176.878V69.7145H186.339C188.045 69.7145 189.429 68.3323 189.429 66.6245V55.1833C189.429 54.213 188.974 53.3004 188.197 52.7154ZM134.343 32.2122H150.67V39.4469H134.343V32.2122ZM150.67 173.788H134.343V69.7145H150.67V173.788ZM183.249 63.5345H101.764V45.6269H168.522L183.249 56.7242V63.5345Z" fill="#C59C7E"/>
</svg>
