<svg width="38" height="38" viewBox="0 0 38 38" fill="none" xmlns="http://www.w3.org/2000/svg">
<path d="M4.09369 2.50043C3.89491 2.40101 3.67221 2.35937 3.45092 2.38025C3.22964 2.40114 3.01866 2.4837 2.84199 2.61856C2.66531 2.75342 2.53003 2.93516 2.45153 3.1431C2.37303 3.35104 2.35446 3.57684 2.39794 3.79481L5.73007 15.3136C5.7922 15.5282 5.91364 15.721 6.08043 15.8697C6.24722 16.0184 6.4526 16.1171 6.67294 16.1543L20.1867 18.4177C20.8232 18.5436 20.8232 19.4556 20.1867 19.5814L6.67294 21.8448C6.4526 21.882 6.24722 21.9807 6.08043 22.1294C5.91364 22.2781 5.7922 22.4709 5.73007 22.6856L2.39794 34.2043C2.35446 34.4223 2.37303 34.6481 2.45153 34.856C2.53003 35.064 2.66531 35.2457 2.84199 35.3806C3.01866 35.5154 3.22964 35.598 3.45092 35.6189C3.67221 35.6397 3.89491 35.5981 4.09369 35.4987L34.9687 20.0612C35.1657 19.9625 35.3313 19.8109 35.4471 19.6234C35.5628 19.4359 35.6241 19.2199 35.6241 18.9996C35.6241 18.7792 35.5628 18.5632 35.4471 18.3757C35.3313 18.1882 35.1657 18.0367 34.9687 17.9379L4.09369 2.50043Z" fill="#146492"/>
</svg>
