<svg width="76" height="77" viewBox="0 0 76 77" fill="none" xmlns="http://www.w3.org/2000/svg">
<g clip-path="url(#clip0_209_2240)">
<path d="M38 77C38 77 66.5 49.6361 66.5 28.875C66.5 21.2169 63.4973 13.8724 58.1525 8.45729C52.8078 3.04218 45.5587 0 38 0C30.4413 0 23.1922 3.04218 17.8475 8.45729C12.5027 13.8724 9.5 21.2169 9.5 28.875C9.5 49.6361 38 77 38 77Z" fill="#C59C7E"/>
<path d="M29.0734 46.255C29.3734 45.975 29.7034 45.7475 30.0634 45.5725C30.4234 45.3975 30.8459 45.31 31.3309 45.31C31.7509 45.31 32.1234 45.3825 32.4484 45.5275C32.7734 45.6675 33.0434 45.8675 33.2584 46.1275C33.4784 46.3825 33.6434 46.69 33.7534 47.05C33.8684 47.405 33.9259 47.7975 33.9259 48.2275V53.125H32.0734V48.2275C32.0734 47.7575 31.9659 47.395 31.7509 47.14C31.5359 46.88 31.2084 46.75 30.7684 46.75C30.4484 46.75 30.1484 46.8225 29.8684 46.9675C29.5884 47.1125 29.3234 47.31 29.0734 47.56V53.125H27.2209V41.98H29.0734V46.255ZM39.0927 45.31C39.6627 45.31 40.1802 45.4025 40.6452 45.5875C41.1152 45.7725 41.5152 46.035 41.8452 46.375C42.1802 46.715 42.4377 47.13 42.6177 47.62C42.7977 48.11 42.8877 48.6575 42.8877 49.2625C42.8877 49.8725 42.7977 50.4225 42.6177 50.9125C42.4377 51.4025 42.1802 51.82 41.8452 52.165C41.5152 52.51 41.1152 52.775 40.6452 52.96C40.1802 53.145 39.6627 53.2375 39.0927 53.2375C38.5177 53.2375 37.9952 53.145 37.5252 52.96C37.0552 52.775 36.6527 52.51 36.3177 52.165C35.9877 51.82 35.7302 51.4025 35.5452 50.9125C35.3652 50.4225 35.2752 49.8725 35.2752 49.2625C35.2752 48.6575 35.3652 48.11 35.5452 47.62C35.7302 47.13 35.9877 46.715 36.3177 46.375C36.6527 46.035 37.0552 45.7725 37.5252 45.5875C37.9952 45.4025 38.5177 45.31 39.0927 45.31ZM39.0927 51.8125C39.7327 51.8125 40.2052 51.5975 40.5102 51.1675C40.8202 50.7375 40.9752 50.1075 40.9752 49.2775C40.9752 48.4475 40.8202 47.815 40.5102 47.38C40.2052 46.945 39.7327 46.7275 39.0927 46.7275C38.4427 46.7275 37.9602 46.9475 37.6452 47.3875C37.3352 47.8225 37.1802 48.4525 37.1802 49.2775C37.1802 50.1025 37.3352 50.7325 37.6452 51.1675C37.9602 51.5975 38.4427 51.8125 39.0927 51.8125ZM46.7195 53.245C46.0495 53.245 45.5345 53.0575 45.1745 52.6825C44.8195 52.3025 44.642 51.78 44.642 51.115V46.8175H43.8545C43.7545 46.8175 43.6695 46.785 43.5995 46.72C43.5295 46.655 43.4945 46.5575 43.4945 46.4275V45.6925L44.732 45.49L45.122 43.39C45.147 43.29 45.1945 43.2125 45.2645 43.1575C45.3345 43.1025 45.4245 43.075 45.5345 43.075H46.4945V45.4975H48.5495V46.8175H46.4945V50.9875C46.4945 51.2275 46.552 51.415 46.667 51.55C46.787 51.685 46.9495 51.7525 47.1545 51.7525C47.2695 51.7525 47.3645 51.74 47.4395 51.715C47.5195 51.685 47.587 51.655 47.642 51.625C47.702 51.595 47.7545 51.5675 47.7995 51.5425C47.8445 51.5125 47.8895 51.4975 47.9345 51.4975C47.9895 51.4975 48.0345 51.5125 48.0695 51.5425C48.1045 51.5675 48.142 51.6075 48.182 51.6625L48.737 52.5625C48.467 52.7875 48.157 52.9575 47.807 53.0725C47.457 53.1875 47.0945 53.245 46.7195 53.245Z" fill="white"/>
<path d="M37.5628 34.4163C42.3586 34.4163 46.2984 30.6095 46.2984 25.7235C46.2984 24.5242 46.2373 23.2385 45.5734 21.24C44.9094 19.2415 44.7761 18.9837 44.0743 17.7493C43.7744 20.2676 42.17 21.3176 41.7623 21.6314C41.7623 21.3048 40.7921 17.6957 39.3204 15.5356C37.8755 13.4163 35.9106 12.0263 34.7586 11.083C34.7586 12.8738 34.2561 15.5362 33.5357 16.893C32.8158 18.2493 32.6807 18.2988 31.781 19.308C30.8818 20.3172 30.4689 20.6293 29.7164 21.8543C28.9646 23.0793 28.8271 24.7108 28.8271 25.9102C28.8271 30.7962 32.7669 34.4163 37.5628 34.4163Z" stroke="white" stroke-width="2" stroke-linejoin="round"/>
</g>
<defs>
<clipPath id="clip0_209_2240">
<rect width="76" height="77" fill="white"/>
</clipPath>
</defs>
</svg>
