<svg width="53" height="70" viewBox="0 0 53 70" fill="none" xmlns="http://www.w3.org/2000/svg">
<g clip-path="url(#clip0_209_2244)">
<path d="M26.5551 69.8542C26.5551 69.8542 52.9999 45.0297 52.9999 26.1953C52.9999 19.2479 50.2138 12.585 45.2544 7.67243C40.2951 2.75986 33.5687 0 26.5551 0C19.5415 0 12.8152 2.75986 7.85585 7.67243C2.89649 12.585 0.110352 19.2479 0.110352 26.1953C0.110352 45.0297 26.5551 69.8542 26.5551 69.8542Z" fill="#146492"/>
<path d="M24.8557 41.155L20.4757 52H18.6532L14.2732 41.155H15.8932C16.0682 41.155 16.2107 41.1975 16.3207 41.2825C16.4307 41.3675 16.5132 41.4775 16.5682 41.6125L19.1257 48.2275C19.2107 48.4425 19.2907 48.68 19.3657 48.94C19.4457 49.195 19.5207 49.4625 19.5907 49.7425C19.6507 49.4625 19.7157 49.195 19.7857 48.94C19.8557 48.68 19.9332 48.4425 20.0182 48.2275L22.5607 41.6125C22.6007 41.4975 22.6782 41.3925 22.7932 41.2975C22.9132 41.2025 23.0582 41.155 23.2282 41.155H24.8557ZM28.0032 52H25.9782V41.155H28.0032V52ZM33.9564 46.6075C34.3264 46.6075 34.6489 46.5625 34.9239 46.4725C35.1989 46.3775 35.4264 46.245 35.6064 46.075C35.7914 45.9 35.9289 45.69 36.0189 45.445C36.1089 45.195 36.1539 44.9175 36.1539 44.6125C36.1539 44.3225 36.1089 44.06 36.0189 43.825C35.9289 43.59 35.7939 43.39 35.6139 43.225C35.4339 43.06 35.2064 42.935 34.9314 42.85C34.6564 42.76 34.3314 42.715 33.9564 42.715H32.4489V46.6075H33.9564ZM33.9564 41.155C34.6814 41.155 35.3089 41.24 35.8389 41.41C36.3689 41.58 36.8064 41.8175 37.1514 42.1225C37.4964 42.4275 37.7514 42.7925 37.9164 43.2175C38.0864 43.6425 38.1714 44.1075 38.1714 44.6125C38.1714 45.1375 38.0839 45.62 37.9089 46.06C37.7339 46.495 37.4714 46.87 37.1214 47.185C36.7714 47.5 36.3314 47.745 35.8014 47.92C35.2764 48.095 34.6614 48.1825 33.9564 48.1825H32.4489V52H30.4314V41.155H33.9564Z" fill="white"/>
<path d="M17 30H37V32H17V30ZM17 16L22 19.5L27 13L32 19.5L37 16V28H17V16ZM19 19.841V26H35V19.841L31.58 22.235L27 16.28L22.42 22.235L19 19.84V19.841Z" fill="white"/>
</g>
<defs>
<clipPath id="clip0_209_2244">
<rect width="53" height="70" fill="white"/>
</clipPath>
</defs>
</svg>
