<svg width="57" height="76" viewBox="0 0 57 76" fill="none" xmlns="http://www.w3.org/2000/svg">
<path d="M28.12 75.8585C28.12 75.8585 56.2399 48.9003 56.2399 28.4469C56.2399 20.9023 53.2773 13.6668 48.0038 8.33192C42.7303 2.99708 35.5779 0 28.12 0C20.6621 0 13.5097 2.99708 8.23615 8.33192C2.96263 13.6668 1.11131e-07 20.9023 0 28.4469C0 48.9003 28.12 75.8585 28.12 75.8585ZM28.12 42.6704C24.391 42.6704 20.8148 41.1719 18.1781 38.5045C15.5413 35.837 14.06 32.2192 14.06 28.4469C14.06 24.6746 15.5413 21.0569 18.1781 18.3894C20.8148 15.722 24.391 14.2235 28.12 14.2235C31.8489 14.2235 35.4251 15.722 38.0619 18.3894C40.6986 21.0569 42.18 24.6746 42.18 28.4469C42.18 32.2192 40.6986 35.837 38.0619 38.5045C35.4251 41.1719 31.8489 42.6704 28.12 42.6704Z" fill="#f26065"/>
</svg>
