<svg width="19" height="22" viewBox="0 0 19 22" fill="none" xmlns="http://www.w3.org/2000/svg">
<path d="M18.6729 14.8328L17.2394 13.9949L18.3421 13.6941C18.6899 13.5996 18.8977 13.2344 18.8044 12.882L18.6347 12.2418C18.5414 11.8895 18.181 11.6789 17.8332 11.7734L14.8305 12.5898L12.1205 11L14.8263 9.41445L17.8289 10.2309C18.1767 10.3254 18.5372 10.1148 18.6305 9.7625L18.8001 9.12227C18.8934 8.76992 18.6856 8.40469 18.3379 8.31016L17.2352 8.00937L18.6687 7.17148C18.9825 6.98672 19.0885 6.58281 18.9104 6.26484L18.253 5.11328C18.0707 4.79531 17.672 4.68789 17.3582 4.86836L15.9247 5.70625L16.2216 4.58906C16.3149 4.23672 16.1071 3.87148 15.7593 3.77695L15.1274 3.60508C14.7796 3.51055 14.4191 3.72109 14.3258 4.07344L13.52 7.11563L10.8566 8.67109V5.34102L13.1341 3.03359C13.397 2.76719 13.397 2.32891 13.1341 2.0625L12.6548 1.57695C12.3919 1.31055 11.9593 1.31055 11.6964 1.57695L10.8566 2.42344V0.6875C10.8566 0.309375 10.5513 0 10.1781 0H8.82091C8.44769 0 8.14234 0.309375 8.14234 0.6875V2.42344L7.30685 1.57695C7.0439 1.31055 6.61131 1.31055 6.34837 1.57695L5.86488 2.0625C5.5977 2.32891 5.5977 2.76719 5.86488 3.03359L8.14234 5.34102V8.67109L5.47895 7.11563L4.67314 4.07344C4.57984 3.72109 4.21935 3.51055 3.87158 3.60508L3.23966 3.77695C2.89189 3.87148 2.68408 4.23672 2.77738 4.58906L3.07426 5.70625L1.64078 4.86836C1.32694 4.68359 0.928278 4.79531 0.745912 5.11328L0.0885462 6.26055C-0.0938198 6.57852 0.016448 6.98242 0.330287 7.16719L1.76377 8.00508L0.661091 8.30586C0.309082 8.40039 0.101269 8.76562 0.194573 9.12227L0.364216 9.7625C0.457519 10.1148 0.81801 10.3254 1.16578 10.2309L4.16846 9.41445L6.87426 11L4.16846 12.5855L1.16578 11.7691C0.81801 11.6746 0.457519 11.8852 0.364216 12.2375L0.194573 12.8777C0.101269 13.2301 0.309082 13.5953 0.65685 13.6898L1.75953 13.9906L0.326046 14.8328C0.0122069 15.0176 -0.0938198 15.4215 0.0843051 15.7395L0.741671 16.891C0.924037 17.209 1.3227 17.3164 1.63654 17.1359L3.07002 16.298L2.77314 17.4152C2.67984 17.7676 2.88765 18.1328 3.23542 18.2273L3.86734 18.3992C4.21511 18.4937 4.5756 18.2832 4.6689 17.9309L5.47471 14.8887L8.1381 13.3332V16.6633L5.86064 18.9707C5.59345 19.2371 5.59345 19.6754 5.86064 19.9418L6.33988 20.4273C6.60283 20.6938 7.03542 20.6938 7.29837 20.4273L8.13386 19.5809V21.3125C8.13386 21.6906 8.43921 22 8.81243 22H10.1696C10.5428 22 10.8481 21.6906 10.8481 21.3125V19.5766L11.6836 20.423C11.9466 20.6895 12.3792 20.6895 12.6421 20.423L13.1214 19.9375C13.3843 19.6711 13.3843 19.2328 13.1214 18.9664L10.8566 16.659V13.3289L13.52 14.8844L14.3258 17.9266C14.4191 18.2789 14.7796 18.4895 15.1274 18.3949L15.7593 18.223C16.1071 18.1285 16.3149 17.7633 16.2216 17.4109L15.9247 16.2938L17.3582 17.1316C17.672 17.3164 18.0707 17.2047 18.253 16.8867L18.9104 15.7352C19.0928 15.4215 18.9868 15.0133 18.6729 14.8328Z" fill="#C4C4C4"/>
</svg>
