<svg width="24" height="20" viewBox="0 0 24 20" fill="none" xmlns="http://www.w3.org/2000/svg">
<g clip-path="url(#clip0_46_402)">
<path d="M21.92 5.07933L12 11.2301L2.07998 5.07933V2.61901L12 8.7698L21.92 2.61901V5.07933ZM21.92 0.158691H2.07998C0.703576 0.158691 -0.400024 1.25353 -0.400024 2.61901V17.3809C-0.400024 18.0334 -0.13874 18.6592 0.326351 19.1206C0.791441 19.582 1.42224 19.8412 2.07998 19.8412H21.92C22.5777 19.8412 23.2085 19.582 23.6736 19.1206C24.1387 18.6592 24.4 18.0334 24.4 17.3809V2.61901C24.4 1.96649 24.1387 1.3407 23.6736 0.879301C23.2085 0.417903 22.5777 0.158691 21.92 0.158691Z" fill="#C59C7E"/>
</g>
<defs>
<clipPath id="clip0_46_402">
<rect width="24" height="20" fill="white"/>
</clipPath>
</defs>
</svg>
