<svg width="20" height="16" viewBox="0 0 20 16" fill="none" xmlns="http://www.w3.org/2000/svg">
<path d="M3 4.15V2C3 0.9 3.9 0 5 0H15C16.1 0 17 0.9 17 2V4.16C15.84 4.57 15 5.67 15 6.97V9H5V6.96C5 5.67 4.16 4.56 3 4.15ZM18 5C16.9 5 16 5.9 16 7V10H4V7C4 6.46957 3.78929 5.96086 3.41421 5.58579C3.03914 5.21071 2.53043 5 2 5C1.46957 5 0.960859 5.21071 0.585786 5.58579C0.210714 5.96086 0 6.46957 0 7V12C0 13.1 0.9 14 2 14V16H4V14H16V16H18V14C19.1 14 20 13.1 20 12V7C20 5.9 19.1 5 18 5Z" fill="#C4C4C4"/>
</svg>
