<svg width="119" height="111" viewBox="0 0 119 111" fill="none" xmlns="http://www.w3.org/2000/svg">
<path d="M13.4032 85.4567C13.4032 92.7487 19.3359 98.6829 26.6294 98.6829C33.9229 98.6829 39.8556 92.7487 39.8556 85.4567C39.8556 78.1647 33.9229 72.2305 26.6294 72.2305C19.3359 72.2305 13.4032 78.1632 13.4032 85.4567ZM35.5083 85.4567C35.5083 90.3519 31.5246 94.3355 26.6294 94.3355C21.7343 94.3355 17.7506 90.3519 17.7506 85.4567C17.7506 80.5615 21.7343 76.5779 26.6294 76.5779C31.5246 76.5779 35.5083 80.5615 35.5083 85.4567Z" fill="#C59C7E"/>
<path d="M117.739 36.0645C116.844 35.266 115.471 35.3428 114.67 36.2384L83.0977 71.6015L66.8443 55.3481C65.9951 54.4989 64.6199 54.4989 63.7707 55.3481C62.9215 56.1973 62.9215 57.5725 63.7707 58.4217L81.6515 76.3011C82.0602 76.7097 82.6123 76.9372 83.189 76.9372C83.2093 76.9372 83.2296 76.9372 83.2499 76.9358C83.8469 76.9184 84.4121 76.6576 84.8106 76.2112L117.915 39.1323C118.713 38.2382 118.635 36.863 117.739 36.0645Z" fill="#C59C7E"/>
<path d="M83.9383 82.3728C82.7369 82.3728 81.7646 83.3466 81.7646 84.5465V106.178H4.79539V4.73851H81.7646V50.2804C81.7646 51.4802 82.7369 52.4541 83.9383 52.4541C85.1396 52.4541 86.112 51.4802 86.112 50.2804V2.56481C86.112 1.36493 85.1396 0.391113 83.9383 0.391113H2.6217C1.42037 0.391113 0.447998 1.36493 0.447998 2.56481V108.351C0.447998 109.551 1.42037 110.525 2.6217 110.525H83.9383C85.1396 110.525 86.112 109.551 86.112 108.351V84.5465C86.112 83.3466 85.1396 82.3728 83.9383 82.3728Z" fill="#C59C7E"/>
<path d="M58.5292 29.6999C59.7305 29.6999 60.7029 28.7261 60.7029 27.5262C60.7029 26.3264 59.7305 25.3525 58.5292 25.3525H14.8581C13.6568 25.3525 12.6844 26.3264 12.6844 27.5262C12.6844 28.7261 13.6568 29.6999 14.8581 29.6999H58.5292Z" fill="#C59C7E"/>
<path d="M61.2376 46.8631C61.2376 45.6633 60.2653 44.6895 59.064 44.6895H15.4045C14.2032 44.6895 13.2308 45.6633 13.2308 46.8631C13.2308 48.063 14.2032 49.0368 15.4045 49.0368H59.064C60.2653 49.0368 61.2376 48.063 61.2376 46.8631Z" fill="#C59C7E"/>
</svg>
