<svg width="130" height="130" viewBox="0 0 130 130" fill="none" xmlns="http://www.w3.org/2000/svg">
<path d="M65.8705 96.9617H25.0984V36.6895L59.7107 6.58126L93.4926 35.4555V73.2978C93.4926 74.3688 94.3606 75.2381 95.4329 75.2381C96.5052 75.2381 97.3732 74.3688 97.3732 73.2978V38.7721L109.999 49.564C110.365 49.8758 110.813 50.0284 111.259 50.0284C111.806 50.0284 112.351 49.7969 112.735 49.3493C113.432 48.5344 113.335 47.3107 112.52 46.6135L60.9603 2.54544C60.2281 1.91937 59.1506 1.92584 58.4262 2.55579L7.94356 46.4686C7.1351 47.1723 7.04973 48.3973 7.75341 49.2057C8.45709 50.0142 9.68077 50.0983 10.4905 49.3959L21.2178 40.0643V98.9007C21.2178 99.9717 22.0857 100.841 23.1581 100.841H65.8705C66.9429 100.841 67.8108 99.9717 67.8108 98.9007C67.8108 97.8296 66.9429 96.9617 65.8705 96.9617Z" fill="#C59C7E"/>
<path d="M119.609 117.445L75.2551 67.0839C75.7971 61.7947 74.3936 57.5157 71.121 54.6958C67.1408 51.2666 63.4814 51.9186 57.9451 52.9016C57.2194 53.031 56.4511 53.1681 55.631 53.3052C53.5419 53.6558 51.7801 51.5965 49.8657 49.0741C48.5101 47.2877 47.3381 45.7471 45.5078 46.2283C43.7253 46.6992 43.3101 48.7326 43.0604 50.6005C41.957 58.8739 42.4848 70.3682 47.5981 75.5359C51.7814 79.7787 57.5583 80.3737 60.4688 80.3737C60.8271 80.3737 61.122 80.3633 61.3846 80.3517L112.222 124.834C113.796 126.387 115.748 127.277 117.582 127.276C117.596 127.276 117.612 127.276 117.626 127.276C118.89 127.267 120.029 126.809 120.838 125.986C122.88 123.904 122.337 120.163 119.609 117.445ZM46.8531 51.524C48.7002 53.9559 51.7607 57.8908 56.2687 57.1328C57.103 56.9944 57.8856 56.8547 58.6229 56.724C64.1062 55.7474 66.1293 55.5172 68.587 57.6373C70.9102 59.6397 71.8402 62.7351 71.3888 66.8226L61.2242 76.4724C59.4327 76.55 53.9623 76.4633 50.3585 72.8104C46.5853 68.9932 45.8997 59.1934 46.8531 51.524ZM73.1182 70.5299L77.1515 75.109L69.746 82.5119L64.9328 78.3001L73.1182 70.5299ZM118.068 123.267C117.988 123.347 117.801 123.387 117.583 123.394C116.983 123.394 115.938 123.047 114.862 121.992L72.6732 85.0731L79.7217 78.0272L116.741 120.059C116.772 120.094 116.805 120.129 116.838 120.161C118.168 121.468 118.393 122.937 118.068 123.267Z" fill="#C59C7E"/>
</svg>
