<svg width="25" height="29" viewBox="0 0 25 29" fill="none" xmlns="http://www.w3.org/2000/svg">
<path d="M18.062 14.3188L15.0641 6.75459L12.5362 11.1771L10.0084 6.75459L7.01054 14.3212H6.14416V15.4582H10.6585V14.3212H9.99029L10.6404 12.4422L12.5362 15.5476L14.4321 12.4422L15.0822 14.3212H14.414V15.4582H18.9465V14.3212L18.062 14.3188ZM24.5084 12.0084C24.5092 10.4312 24.1991 8.86934 23.5959 7.41206C22.9927 5.95477 22.1082 4.63066 20.993 3.51541C19.8778 2.40017 18.5536 1.51567 17.0964 0.91247C15.6391 0.309272 14.0772 -0.000792593 12.5 1.52151e-06C5.87349 1.52151e-06 0.491577 5.38071 0.491577 12.0084C0.491577 15.3313 1.84612 18.328 4.01266 20.4945C4.14833 20.6314 4.32164 20.7248 4.51055 20.7629C4.69945 20.801 4.89543 20.7821 5.07354 20.7085C5.25165 20.6349 5.40386 20.5101 5.5108 20.3497C5.61775 20.1894 5.67459 20.0009 5.67412 19.8082C5.67453 19.5448 5.57071 19.292 5.38533 19.105C3.50852 17.2205 2.45674 14.668 2.46116 12.0084C2.46116 6.46458 6.95616 1.95025 12.5 1.95025C18.0438 1.95025 22.5582 6.46458 22.5582 12.0084C22.5611 13.3299 22.3026 14.6388 21.7974 15.8599C21.2922 17.081 20.5504 18.19 19.6147 19.1231L11.1273 27.6092L12.5 29L21.0055 20.4945C22.1199 19.3808 23.0031 18.0576 23.6043 16.6012C24.2054 15.1449 24.5127 13.584 24.5084 12.0084Z" fill="#DA1E2A"/>
</svg>
