<svg width="24" height="20" viewBox="0 0 24 20" fill="none" xmlns="http://www.w3.org/2000/svg">
<path d="M21.92 5.07981L12 11.2306L2.07998 5.07981V2.6195L12 8.77029L21.92 2.6195V5.07981ZM21.92 0.15918H2.07998C0.703576 0.15918 -0.400024 1.25402 -0.400024 2.6195V17.3814C-0.400024 18.0339 -0.13874 18.6597 0.326351 19.1211C0.791441 19.5825 1.42224 19.8417 2.07998 19.8417H21.92C22.5777 19.8417 23.2085 19.5825 23.6736 19.1211C24.1387 18.6597 24.4 18.0339 24.4 17.3814V2.6195C24.4 1.96698 24.1387 1.34119 23.6736 0.87979C23.2085 0.418391 22.5777 0.15918 21.92 0.15918Z" fill="#C59C7E"/>
</svg>
