<svg width="16" height="16" viewBox="0 0 16 16" fill="none" xmlns="http://www.w3.org/2000/svg">
<path d="M2.94666 13.7194C2.85417 13.7193 2.76272 13.6999 2.67813 13.6625C2.59354 13.625 2.51767 13.5704 2.45533 13.5021C2.39186 13.4344 2.34343 13.354 2.31321 13.2662C2.283 13.1784 2.27168 13.0852 2.27999 12.9928L2.44333 11.1968L9.98866 3.6541L12.3467 6.01143L4.80333 13.5534L3.00733 13.7168C2.98716 13.7186 2.96691 13.7195 2.94666 13.7194ZM12.8173 5.5401L10.46 3.18277L11.874 1.76877C11.9359 1.70678 12.0094 1.65761 12.0904 1.62406C12.1713 1.59051 12.258 1.57324 12.3457 1.57324C12.4333 1.57324 12.52 1.59051 12.601 1.62406C12.6819 1.65761 12.7554 1.70678 12.8173 1.76877L14.2313 3.18277C14.2933 3.24468 14.3425 3.31821 14.376 3.39914C14.4096 3.48007 14.4269 3.56682 14.4269 3.65443C14.4269 3.74204 14.4096 3.82879 14.376 3.90973C14.3425 3.99066 14.2933 4.06418 14.2313 4.1261L12.818 5.53943L12.8173 5.5401Z" fill="#146492"/>
</svg>
