<svg width="20" height="21" viewBox="0 0 20 21" fill="none" xmlns="http://www.w3.org/2000/svg">
<path d="M17.8571 0.4375H2.14286C0.959821 0.4375 0 1.40332 0 2.59375V18.4062C0 19.5967 0.959821 20.5625 2.14286 20.5625H17.8571C19.0402 20.5625 20 19.5967 20 18.4062V2.59375C20 1.40332 19.0402 0.4375 17.8571 0.4375ZM10.7143 13.375H8.57143V15.5312C8.57143 15.9266 8.25 16.25 7.85714 16.25H6.42857C6.03571 16.25 5.71429 15.9266 5.71429 15.5312V5.46875C5.71429 5.07344 6.03571 4.75 6.42857 4.75H10.7143C13.0759 4.75 15 6.68613 15 9.0625C15 11.4389 13.0759 13.375 10.7143 13.375ZM10.7143 7.625H8.57143V10.5H10.7143C11.5 10.5 12.1429 9.85312 12.1429 9.0625C12.1429 8.27187 11.5 7.625 10.7143 7.625Z" fill="#C4C4C4"/>
</svg>
