<svg width="17" height="4" viewBox="0 0 17 4" fill="none" xmlns="http://www.w3.org/2000/svg">
<rect width="17" height="4" fill="#E5E5E5"/>
<rect x="-78" y="-47" width="298" height="99" fill="white"/>
<path d="M-58.057 2.99999H-59.623C-59.797 2.99999 -59.947 2.95499 -60.073 2.86499C-60.193 2.76899 -60.307 2.63098 -60.415 2.45098L-63.826 -2.27401C-63.982 -2.50801 -64.15 -2.67001 -64.33 -2.76002C-64.51 -2.85601 -64.756 -2.90401 -65.068 -2.90401H-66.616V2.99999H-68.353V-9.89702H-66.616V-4.24502H-65.275C-65.005 -4.24502 -64.777 -4.28702 -64.591 -4.37102C-64.399 -4.45502 -64.21 -4.62001 -64.024 -4.86601L-60.649 -9.40201C-60.559 -9.54602 -60.451 -9.66302 -60.325 -9.75302C-60.193 -9.84902 -60.04 -9.89702 -59.866 -9.89702H-58.399L-62.296 -4.59601C-62.59 -4.18201 -62.968 -3.89701 -63.43 -3.74101C-63.112 -3.65701 -62.845 -3.52201 -62.629 -3.33602C-62.407 -3.15602 -62.197 -2.90401 -61.999 -2.58001L-58.057 2.99999Z" fill="#545454"/>
<path d="M-53.4974 -6.26101C-52.8314 -6.26101 -52.2314 -6.15001 -51.6974 -5.92801C-51.1634 -5.70601 -50.7074 -5.39101 -50.3294 -4.98301C-49.9514 -4.57501 -49.6634 -4.08001 -49.4654 -3.49801C-49.2614 -2.92201 -49.1594 -2.27702 -49.1594 -1.56301C-49.1594 -0.843015 -49.2614 -0.195015 -49.4654 0.380985C-49.6634 0.956985 -49.9514 1.44899 -50.3294 1.85699C-50.7074 2.26499 -51.1634 2.57999 -51.6974 2.80199C-52.2314 3.01799 -52.8314 3.12599 -53.4974 3.12599C-54.1694 3.12599 -54.7754 3.01799 -55.3154 2.80199C-55.8494 2.57999 -56.3054 2.26499 -56.6834 1.85699C-57.0614 1.44899 -57.3524 0.956985 -57.5564 0.380985C-57.7544 -0.195015 -57.8534 -0.843015 -57.8534 -1.56301C-57.8534 -2.27702 -57.7544 -2.92201 -57.5564 -3.49801C-57.3524 -4.08001 -57.0614 -4.57501 -56.6834 -4.98301C-56.3054 -5.39101 -55.8494 -5.70601 -55.3154 -5.92801C-54.7754 -6.15001 -54.1694 -6.26101 -53.4974 -6.26101ZM-53.4974 1.87499C-52.5974 1.87499 -51.9254 1.57499 -51.4814 0.974985C-51.0374 0.368985 -50.8154 -0.474015 -50.8154 -1.55402C-50.8154 -2.64002 -51.0374 -3.48601 -51.4814 -4.09201C-51.9254 -4.69801 -52.5974 -5.00102 -53.4974 -5.00102C-53.9534 -5.00102 -54.3524 -4.92302 -54.6944 -4.76701C-55.0304 -4.61101 -55.3124 -4.38601 -55.5404 -4.09201C-55.7624 -3.79801 -55.9304 -3.43501 -56.0444 -3.00302C-56.1524 -2.57701 -56.2064 -2.09402 -56.2064 -1.55402C-56.2064 -0.474015 -55.9844 0.368985 -55.5404 0.974985C-55.0904 1.57499 -54.4094 1.87499 -53.4974 1.87499Z" fill="#545454"/>
<path d="M-36.9665 -6.14401V2.99999H-38.4155V-3.05701C-38.4155 -3.22501 -38.4065 -3.41101 -38.3885 -3.61501C-38.3645 -3.82501 -38.3345 -4.02001 -38.2985 -4.20001L-41.4665 1.35299C-41.5145 1.44299 -41.5775 1.51498 -41.6555 1.56898C-41.7335 1.62299 -41.8235 1.64999 -41.9255 1.64999H-42.1055C-42.2075 1.64999 -42.3005 1.62299 -42.3845 1.56898C-42.4625 1.51498 -42.5255 1.44299 -42.5735 1.35299L-45.7955 -4.21801C-45.7655 -4.03801 -45.7385 -3.84001 -45.7145 -3.62401C-45.6905 -3.41401 -45.6785 -3.22501 -45.6785 -3.05701V2.99999H-47.1275V-6.14401H-45.8405C-45.7265 -6.14401 -45.6155 -6.11702 -45.5075 -6.06302C-45.3995 -6.01502 -45.3065 -5.92202 -45.2285 -5.78402L-42.3845 -1.03201C-42.2465 -0.756015 -42.1235 -0.465015 -42.0155 -0.159015C-41.9135 -0.477015 -41.7935 -0.768015 -41.6555 -1.03201L-38.8655 -5.78402C-38.7875 -5.92801 -38.6945 -6.02401 -38.5865 -6.07201C-38.4785 -6.12001 -38.3675 -6.14401 -38.2535 -6.14401H-36.9665Z" fill="#545454"/>
<path d="M-26.8401 -6.11701V2.99999H-28.4511V-1.26602H-32.8251V2.99999H-34.4361V-6.11701H-32.8251V-2.48101H-28.4511V-6.11701H-26.8401Z" fill="#545454"/>
<path d="M-19.3525 -1.10401C-20.0905 -1.08001 -20.7205 -1.02002 -21.2425 -0.924015C-21.7585 -0.834015 -22.1815 -0.714014 -22.5115 -0.564014C-22.8355 -0.414014 -23.0725 -0.237014 -23.2225 -0.0330143C-23.3665 0.170986 -23.4385 0.398986 -23.4385 0.650986C-23.4385 0.890986 -23.3995 1.09798 -23.3215 1.27199C-23.2435 1.44599 -23.1385 1.58999 -23.0065 1.70399C-22.8685 1.81199 -22.7095 1.89299 -22.5295 1.94699C-22.3435 1.99499 -22.1455 2.01899 -21.9355 2.01899C-21.6535 2.01899 -21.3955 1.99199 -21.1615 1.93799C-20.9275 1.87799 -20.7085 1.79399 -20.5045 1.68599C-20.2945 1.57799 -20.0965 1.44899 -19.9105 1.29899C-19.7185 1.14899 -19.5325 0.977985 -19.3525 0.785985V-1.10401ZM-24.5275 -4.83002C-24.0235 -5.31602 -23.4805 -5.67901 -22.8985 -5.91901C-22.3165 -6.15901 -21.6715 -6.27901 -20.9635 -6.27901C-20.4535 -6.27901 -20.0005 -6.19501 -19.6045 -6.02701C-19.2085 -5.85901 -18.8755 -5.62501 -18.6055 -5.32502C-18.3355 -5.02501 -18.1315 -4.66202 -17.9935 -4.23601C-17.8555 -3.81001 -17.7865 -3.34201 -17.7865 -2.83201V2.99999H-18.4975C-18.6535 2.99999 -18.7735 2.97599 -18.8575 2.92799C-18.9415 2.87399 -19.0075 2.77199 -19.0555 2.62199L-19.2355 1.75799C-19.4755 1.97999 -19.7095 2.17798 -19.9375 2.35198C-20.1655 2.51998 -20.4055 2.66399 -20.6575 2.78399C-20.9095 2.89799 -21.1795 2.98499 -21.4675 3.04499C-21.7495 3.11099 -22.0645 3.14399 -22.4125 3.14399C-22.7665 3.14399 -23.0995 3.09599 -23.4115 2.99999C-23.7235 2.89799 -23.9965 2.74799 -24.2305 2.54999C-24.4585 2.35199 -24.6415 2.10299 -24.7795 1.80299C-24.9115 1.49699 -24.9775 1.13699 -24.9775 0.722985C-24.9775 0.362985 -24.8785 0.0179855 -24.6805 -0.312015C-24.4825 -0.648015 -24.1615 -0.945014 -23.7175 -1.20301C-23.2735 -1.46101 -22.6945 -1.67101 -21.9805 -1.83301C-21.2665 -2.00101 -20.3905 -2.09701 -19.3525 -2.12101V-2.83201C-19.3525 -3.54001 -19.5055 -4.07401 -19.8115 -4.43401C-20.1175 -4.80001 -20.5645 -4.98301 -21.1525 -4.98301C-21.5485 -4.98301 -21.8815 -4.93201 -22.1515 -4.83002C-22.4155 -4.73401 -22.6465 -4.62301 -22.8445 -4.49701C-23.0365 -4.37701 -23.2045 -4.26602 -23.3485 -4.16402C-23.4865 -4.06802 -23.6245 -4.02001 -23.7625 -4.02001C-23.8705 -4.02001 -23.9635 -4.04702 -24.0415 -4.10102C-24.1195 -4.16102 -24.1855 -4.23301 -24.2395 -4.31701L-24.5275 -4.83002Z" fill="#545454"/>
<path d="M-7.99678 -4.89301H-11.4978V2.99999H-13.0998V-4.89301H-16.6008V-6.11701H-7.99678V-4.89301Z" fill="#545454"/>
<path d="M-7.47759 2.00998C-7.47759 1.85398 -7.45059 1.70698 -7.39659 1.56898C-7.33659 1.43098 -7.25859 1.31099 -7.16259 1.20899C-7.06059 1.10699 -6.94059 1.02599 -6.80259 0.965985C-6.66459 0.905985 -6.51759 0.875985 -6.36159 0.875985C-6.20559 0.875985 -6.05859 0.905985 -5.92059 0.965985C-5.78259 1.02599 -5.66259 1.10699 -5.56059 1.20899C-5.45859 1.31099 -5.37759 1.43098 -5.31759 1.56898C-5.25759 1.70698 -5.22759 1.85398 -5.22759 2.00998C-5.22759 2.17198 -5.25759 2.32199 -5.31759 2.45999C-5.37759 2.59199 -5.45859 2.70899 -5.56059 2.81099C-5.66259 2.91299 -5.78259 2.99099 -5.92059 3.04499C-6.05859 3.10499 -6.20559 3.13499 -6.36159 3.13499C-6.51759 3.13499 -6.66459 3.10499 -6.80259 3.04499C-6.94059 2.99099 -7.06059 2.91299 -7.16259 2.81099C-7.25859 2.70899 -7.33659 2.59199 -7.39659 2.45999C-7.45059 2.32199 -7.47759 2.17198 -7.47759 2.00998Z" fill="#545454"/>
<path d="M-3.22369 2.00998C-3.22369 1.85398 -3.19668 1.70698 -3.14268 1.56898C-3.08268 1.43098 -3.00468 1.31099 -2.90868 1.20899C-2.80668 1.10699 -2.68668 1.02599 -2.54868 0.965985C-2.41068 0.905985 -2.26368 0.875985 -2.10768 0.875985C-1.95168 0.875985 -1.80469 0.905985 -1.66669 0.965985C-1.52869 1.02599 -1.40869 1.10699 -1.30669 1.20899C-1.20469 1.31099 -1.12368 1.43098 -1.06368 1.56898C-1.00368 1.70698 -0.973686 1.85398 -0.973686 2.00998C-0.973686 2.17198 -1.00368 2.32199 -1.06368 2.45999C-1.12368 2.59199 -1.20469 2.70899 -1.30669 2.81099C-1.40869 2.91299 -1.52869 2.99099 -1.66669 3.04499C-1.80469 3.10499 -1.95168 3.13499 -2.10768 3.13499C-2.26368 3.13499 -2.41068 3.10499 -2.54868 3.04499C-2.68668 2.99099 -2.80668 2.91299 -2.90868 2.81099C-3.00468 2.70899 -3.08268 2.59199 -3.14268 2.45999C-3.19668 2.32199 -3.22369 2.17198 -3.22369 2.00998Z" fill="#545454"/>
<path d="M1.03022 2.00998C1.03022 1.85398 1.05722 1.70698 1.11122 1.56898C1.17122 1.43098 1.24922 1.31099 1.34522 1.20899C1.44722 1.10699 1.56722 1.02599 1.70522 0.965985C1.84322 0.905985 1.99022 0.875985 2.14622 0.875985C2.30222 0.875985 2.44922 0.905985 2.58722 0.965985C2.72522 1.02599 2.84522 1.10699 2.94722 1.20899C3.04922 1.31099 3.13022 1.43098 3.19022 1.56898C3.25022 1.70698 3.28022 1.85398 3.28022 2.00998C3.28022 2.17198 3.25022 2.32199 3.19022 2.45999C3.13022 2.59199 3.04922 2.70899 2.94722 2.81099C2.84522 2.91299 2.72522 2.99099 2.58722 3.04499C2.44922 3.10499 2.30222 3.13499 2.14622 3.13499C1.99022 3.13499 1.84322 3.10499 1.70522 3.04499C1.56722 2.99099 1.44722 2.91299 1.34522 2.81099C1.24922 2.70899 1.17122 2.59199 1.11122 2.45999C1.05722 2.32199 1.03022 2.17198 1.03022 2.00998Z" fill="#545454"/>
<path d="M5.28413 2.00998C5.28413 1.85398 5.31113 1.70698 5.36513 1.56898C5.42513 1.43098 5.50313 1.31099 5.59913 1.20899C5.70113 1.10699 5.82113 1.02599 5.95913 0.965985C6.09713 0.905985 6.24413 0.875985 6.40013 0.875985C6.55613 0.875985 6.70313 0.905985 6.84113 0.965985C6.97913 1.02599 7.09913 1.10699 7.20113 1.20899C7.30313 1.31099 7.38413 1.43098 7.44413 1.56898C7.50413 1.70698 7.53413 1.85398 7.53413 2.00998C7.53413 2.17198 7.50413 2.32199 7.44413 2.45999C7.38413 2.59199 7.30313 2.70899 7.20113 2.81099C7.09913 2.91299 6.97913 2.99099 6.84113 3.04499C6.70313 3.10499 6.55613 3.13499 6.40013 3.13499C6.24413 3.13499 6.09713 3.10499 5.95913 3.04499C5.82113 2.99099 5.70113 2.91299 5.59913 2.81099C5.50313 2.70899 5.42513 2.59199 5.36513 2.45999C5.31113 2.32199 5.28413 2.17198 5.28413 2.00998Z" fill="#545454"/>
<path d="M9.53803 2.00998C9.53803 1.85398 9.56503 1.70698 9.61903 1.56898C9.67903 1.43098 9.75703 1.31099 9.85303 1.20899C9.95503 1.10699 10.075 1.02599 10.213 0.965985C10.351 0.905985 10.498 0.875985 10.654 0.875985C10.81 0.875985 10.957 0.905985 11.095 0.965985C11.233 1.02599 11.353 1.10699 11.455 1.20899C11.557 1.31099 11.638 1.43098 11.698 1.56898C11.758 1.70698 11.788 1.85398 11.788 2.00998C11.788 2.17198 11.758 2.32199 11.698 2.45999C11.638 2.59199 11.557 2.70899 11.455 2.81099C11.353 2.91299 11.233 2.99099 11.095 3.04499C10.957 3.10499 10.81 3.13499 10.654 3.13499C10.498 3.13499 10.351 3.10499 10.213 3.04499C10.075 2.99099 9.95503 2.91299 9.85303 2.81099C9.75703 2.70899 9.67903 2.59199 9.61903 2.45999C9.56503 2.32199 9.53803 2.17198 9.53803 2.00998Z" fill="#545454"/>
<path d="M13.7919 2.00998C13.7919 1.85398 13.8189 1.70698 13.8729 1.56898C13.9329 1.43098 14.0109 1.31099 14.1069 1.20899C14.2089 1.10699 14.3289 1.02599 14.4669 0.965985C14.6049 0.905985 14.7519 0.875985 14.9079 0.875985C15.0639 0.875985 15.2109 0.905985 15.3489 0.965985C15.4869 1.02599 15.6069 1.10699 15.7089 1.20899C15.8109 1.31099 15.8919 1.43098 15.9519 1.56898C16.0119 1.70698 16.0419 1.85398 16.0419 2.00998C16.0419 2.17198 16.0119 2.32199 15.9519 2.45999C15.8919 2.59199 15.8109 2.70899 15.7089 2.81099C15.6069 2.91299 15.4869 2.99099 15.3489 3.04499C15.2109 3.10499 15.0639 3.13499 14.9079 3.13499C14.7519 3.13499 14.6049 3.10499 14.4669 3.04499C14.3289 2.99099 14.2089 2.91299 14.1069 2.81099C14.0109 2.70899 13.9329 2.59199 13.8729 2.45999C13.8189 2.32199 13.7919 2.17198 13.7919 2.00998Z" fill="#545454"/>
<path d="M18.0458 2.00998C18.0458 1.85398 18.0728 1.70698 18.1268 1.56898C18.1868 1.43098 18.2648 1.31099 18.3608 1.20899C18.4628 1.10699 18.5828 1.02599 18.7208 0.965985C18.8588 0.905985 19.0058 0.875985 19.1618 0.875985C19.3178 0.875985 19.4648 0.905985 19.6028 0.965985C19.7408 1.02599 19.8608 1.10699 19.9628 1.20899C20.0648 1.31099 20.1458 1.43098 20.2058 1.56898C20.2658 1.70698 20.2958 1.85398 20.2958 2.00998C20.2958 2.17198 20.2658 2.32199 20.2058 2.45999C20.1458 2.59199 20.0648 2.70899 19.9628 2.81099C19.8608 2.91299 19.7408 2.99099 19.6028 3.04499C19.4648 3.10499 19.3178 3.13499 19.1618 3.13499C19.0058 3.13499 18.8588 3.10499 18.7208 3.04499C18.5828 2.99099 18.4628 2.91299 18.3608 2.81099C18.2648 2.70899 18.1868 2.59199 18.1268 2.45999C18.0728 2.32199 18.0458 2.17198 18.0458 2.00998Z" fill="#545454"/>
<path d="M22.2998 2.00998C22.2998 1.85398 22.3268 1.70698 22.3808 1.56898C22.4408 1.43098 22.5188 1.31099 22.6148 1.20899C22.7168 1.10699 22.8368 1.02599 22.9748 0.965985C23.1128 0.905985 23.2598 0.875985 23.4158 0.875985C23.5718 0.875985 23.7188 0.905985 23.8568 0.965985C23.9948 1.02599 24.1148 1.10699 24.2168 1.20899C24.3188 1.31099 24.3998 1.43098 24.4598 1.56898C24.5198 1.70698 24.5498 1.85398 24.5498 2.00998C24.5498 2.17198 24.5198 2.32199 24.4598 2.45999C24.3998 2.59199 24.3188 2.70899 24.2168 2.81099C24.1148 2.91299 23.9948 2.99099 23.8568 3.04499C23.7188 3.10499 23.5718 3.13499 23.4158 3.13499C23.2598 3.13499 23.1128 3.10499 22.9748 3.04499C22.8368 2.99099 22.7168 2.91299 22.6148 2.81099C22.5188 2.70899 22.4408 2.59199 22.3808 2.45999C22.3268 2.32199 22.2998 2.17198 22.2998 2.00998Z" fill="#545454"/>
<path d="M26.5537 2.00998C26.5537 1.85398 26.5807 1.70698 26.6347 1.56898C26.6947 1.43098 26.7727 1.31099 26.8687 1.20899C26.9707 1.10699 27.0907 1.02599 27.2287 0.965985C27.3667 0.905985 27.5137 0.875985 27.6697 0.875985C27.8257 0.875985 27.9727 0.905985 28.1107 0.965985C28.2487 1.02599 28.3687 1.10699 28.4707 1.20899C28.5727 1.31099 28.6537 1.43098 28.7137 1.56898C28.7737 1.70698 28.8037 1.85398 28.8037 2.00998C28.8037 2.17198 28.7737 2.32199 28.7137 2.45999C28.6537 2.59199 28.5727 2.70899 28.4707 2.81099C28.3687 2.91299 28.2487 2.99099 28.1107 3.04499C27.9727 3.10499 27.8257 3.13499 27.6697 3.13499C27.5137 3.13499 27.3667 3.10499 27.2287 3.04499C27.0907 2.99099 26.9707 2.91299 26.8687 2.81099C26.7727 2.70899 26.6947 2.59199 26.6347 2.45999C26.5807 2.32199 26.5537 2.17198 26.5537 2.00998Z" fill="#545454"/>
<path d="M30.8076 2.00998C30.8076 1.85398 30.8346 1.70698 30.8886 1.56898C30.9486 1.43098 31.0266 1.31099 31.1226 1.20899C31.2246 1.10699 31.3446 1.02599 31.4826 0.965985C31.6206 0.905985 31.7676 0.875985 31.9236 0.875985C32.0796 0.875985 32.2266 0.905985 32.3646 0.965985C32.5026 1.02599 32.6226 1.10699 32.7246 1.20899C32.8266 1.31099 32.9076 1.43098 32.9676 1.56898C33.0276 1.70698 33.0576 1.85398 33.0576 2.00998C33.0576 2.17198 33.0276 2.32199 32.9676 2.45999C32.9076 2.59199 32.8266 2.70899 32.7246 2.81099C32.6226 2.91299 32.5026 2.99099 32.3646 3.04499C32.2266 3.10499 32.0796 3.13499 31.9236 3.13499C31.7676 3.13499 31.6206 3.10499 31.4826 3.04499C31.3446 2.99099 31.2246 2.91299 31.1226 2.81099C31.0266 2.70899 30.9486 2.59199 30.8886 2.45999C30.8346 2.32199 30.8076 2.17198 30.8076 2.00998Z" fill="#545454"/>
<path d="M35.0615 2.00998C35.0615 1.85398 35.0885 1.70698 35.1425 1.56898C35.2025 1.43098 35.2805 1.31099 35.3765 1.20899C35.4785 1.10699 35.5985 1.02599 35.7365 0.965985C35.8745 0.905985 36.0215 0.875985 36.1775 0.875985C36.3335 0.875985 36.4805 0.905985 36.6185 0.965985C36.7565 1.02599 36.8765 1.10699 36.9785 1.20899C37.0805 1.31099 37.1615 1.43098 37.2215 1.56898C37.2815 1.70698 37.3115 1.85398 37.3115 2.00998C37.3115 2.17198 37.2815 2.32199 37.2215 2.45999C37.1615 2.59199 37.0805 2.70899 36.9785 2.81099C36.8765 2.91299 36.7565 2.99099 36.6185 3.04499C36.4805 3.10499 36.3335 3.13499 36.1775 3.13499C36.0215 3.13499 35.8745 3.10499 35.7365 3.04499C35.5985 2.99099 35.4785 2.91299 35.3765 2.81099C35.2805 2.70899 35.2025 2.59199 35.1425 2.45999C35.0885 2.32199 35.0615 2.17198 35.0615 2.00998Z" fill="#545454"/>
<path d="M39.3154 2.00998C39.3154 1.85398 39.3424 1.70698 39.3964 1.56898C39.4564 1.43098 39.5344 1.31099 39.6304 1.20899C39.7324 1.10699 39.8524 1.02599 39.9904 0.965985C40.1284 0.905985 40.2754 0.875985 40.4314 0.875985C40.5874 0.875985 40.7344 0.905985 40.8724 0.965985C41.0104 1.02599 41.1304 1.10699 41.2324 1.20899C41.3344 1.31099 41.4154 1.43098 41.4754 1.56898C41.5354 1.70698 41.5654 1.85398 41.5654 2.00998C41.5654 2.17198 41.5354 2.32199 41.4754 2.45999C41.4154 2.59199 41.3344 2.70899 41.2324 2.81099C41.1304 2.91299 41.0104 2.99099 40.8724 3.04499C40.7344 3.10499 40.5874 3.13499 40.4314 3.13499C40.2754 3.13499 40.1284 3.10499 39.9904 3.04499C39.8524 2.99099 39.7324 2.91299 39.6304 2.81099C39.5344 2.70899 39.4564 2.59199 39.3964 2.45999C39.3424 2.32199 39.3154 2.17198 39.3154 2.00998Z" fill="#545454"/>
<path d="M43.5693 2.00998C43.5693 1.85398 43.5963 1.70698 43.6503 1.56898C43.7103 1.43098 43.7883 1.31099 43.8843 1.20899C43.9863 1.10699 44.1063 1.02599 44.2443 0.965985C44.3823 0.905985 44.5293 0.875985 44.6853 0.875985C44.8413 0.875985 44.9883 0.905985 45.1263 0.965985C45.2643 1.02599 45.3843 1.10699 45.4863 1.20899C45.5883 1.31099 45.6693 1.43098 45.7293 1.56898C45.7893 1.70698 45.8193 1.85398 45.8193 2.00998C45.8193 2.17198 45.7893 2.32199 45.7293 2.45999C45.6693 2.59199 45.5883 2.70899 45.4863 2.81099C45.3843 2.91299 45.2643 2.99099 45.1263 3.04499C44.9883 3.10499 44.8413 3.13499 44.6853 3.13499C44.5293 3.13499 44.3823 3.10499 44.2443 3.04499C44.1063 2.99099 43.9863 2.91299 43.8843 2.81099C43.7883 2.70899 43.7103 2.59199 43.6503 2.45999C43.5963 2.32199 43.5693 2.17198 43.5693 2.00998Z" fill="#545454"/>
<path d="M47.8232 2.00998C47.8232 1.85398 47.8502 1.70698 47.9042 1.56898C47.9642 1.43098 48.0422 1.31099 48.1382 1.20899C48.2402 1.10699 48.3602 1.02599 48.4982 0.965985C48.6362 0.905985 48.7832 0.875985 48.9392 0.875985C49.0952 0.875985 49.2422 0.905985 49.3802 0.965985C49.5182 1.02599 49.6382 1.10699 49.7402 1.20899C49.8422 1.31099 49.9232 1.43098 49.9832 1.56898C50.0432 1.70698 50.0732 1.85398 50.0732 2.00998C50.0732 2.17198 50.0432 2.32199 49.9832 2.45999C49.9232 2.59199 49.8422 2.70899 49.7402 2.81099C49.6382 2.91299 49.5182 2.99099 49.3802 3.04499C49.2422 3.10499 49.0952 3.13499 48.9392 3.13499C48.7832 3.13499 48.6362 3.10499 48.4982 3.04499C48.3602 2.99099 48.2402 2.91299 48.1382 2.81099C48.0422 2.70899 47.9642 2.59199 47.9042 2.45999C47.8502 2.32199 47.8232 2.17198 47.8232 2.00998Z" fill="#545454"/>
<path d="M52.0771 2.00998C52.0771 1.85398 52.1041 1.70698 52.1581 1.56898C52.2181 1.43098 52.2961 1.31099 52.3921 1.20899C52.4941 1.10699 52.6141 1.02599 52.7521 0.965985C52.8901 0.905985 53.0371 0.875985 53.1931 0.875985C53.3491 0.875985 53.4961 0.905985 53.6341 0.965985C53.7721 1.02599 53.8921 1.10699 53.9941 1.20899C54.0961 1.31099 54.1771 1.43098 54.2371 1.56898C54.2971 1.70698 54.3271 1.85398 54.3271 2.00998C54.3271 2.17198 54.2971 2.32199 54.2371 2.45999C54.1771 2.59199 54.0961 2.70899 53.9941 2.81099C53.8921 2.91299 53.7721 2.99099 53.6341 3.04499C53.4961 3.10499 53.3491 3.13499 53.1931 3.13499C53.0371 3.13499 52.8901 3.10499 52.7521 3.04499C52.6141 2.99099 52.4941 2.91299 52.3921 2.81099C52.2961 2.70899 52.2181 2.59199 52.1581 2.45999C52.1041 2.32199 52.0771 2.17198 52.0771 2.00998Z" fill="#545454"/>
<path d="M56.331 2.00998C56.331 1.85398 56.358 1.70698 56.412 1.56898C56.472 1.43098 56.55 1.31099 56.646 1.20899C56.748 1.10699 56.868 1.02599 57.006 0.965985C57.144 0.905985 57.291 0.875985 57.447 0.875985C57.603 0.875985 57.75 0.905985 57.888 0.965985C58.026 1.02599 58.146 1.10699 58.248 1.20899C58.35 1.31099 58.431 1.43098 58.491 1.56898C58.551 1.70698 58.581 1.85398 58.581 2.00998C58.581 2.17198 58.551 2.32199 58.491 2.45999C58.431 2.59199 58.35 2.70899 58.248 2.81099C58.146 2.91299 58.026 2.99099 57.888 3.04499C57.75 3.10499 57.603 3.13499 57.447 3.13499C57.291 3.13499 57.144 3.10499 57.006 3.04499C56.868 2.99099 56.748 2.91299 56.646 2.81099C56.55 2.70899 56.472 2.59199 56.412 2.45999C56.358 2.32199 56.331 2.17198 56.331 2.00998Z" fill="#545454"/>
<path d="M60.5849 2.00998C60.5849 1.85398 60.6119 1.70698 60.6659 1.56898C60.7259 1.43098 60.8039 1.31099 60.8999 1.20899C61.0019 1.10699 61.1219 1.02599 61.2599 0.965985C61.3979 0.905985 61.5449 0.875985 61.7009 0.875985C61.8569 0.875985 62.0039 0.905985 62.1419 0.965985C62.2799 1.02599 62.3999 1.10699 62.5019 1.20899C62.6039 1.31099 62.6849 1.43098 62.7449 1.56898C62.8049 1.70698 62.8349 1.85398 62.8349 2.00998C62.8349 2.17198 62.8049 2.32199 62.7449 2.45999C62.6849 2.59199 62.6039 2.70899 62.5019 2.81099C62.3999 2.91299 62.2799 2.99099 62.1419 3.04499C62.0039 3.10499 61.8569 3.13499 61.7009 3.13499C61.5449 3.13499 61.3979 3.10499 61.2599 3.04499C61.1219 2.99099 61.0019 2.91299 60.8999 2.81099C60.8039 2.70899 60.7259 2.59199 60.6659 2.45999C60.6119 2.32199 60.5849 2.17198 60.5849 2.00998Z" fill="#545454"/>
<path d="M64.8388 2.00998C64.8388 1.85398 64.8658 1.70698 64.9198 1.56898C64.9798 1.43098 65.0578 1.31099 65.1538 1.20899C65.2558 1.10699 65.3758 1.02599 65.5138 0.965985C65.6518 0.905985 65.7988 0.875985 65.9548 0.875985C66.1108 0.875985 66.2578 0.905985 66.3958 0.965985C66.5338 1.02599 66.6538 1.10699 66.7558 1.20899C66.8578 1.31099 66.9388 1.43098 66.9988 1.56898C67.0588 1.70698 67.0888 1.85398 67.0888 2.00998C67.0888 2.17198 67.0588 2.32199 66.9988 2.45999C66.9388 2.59199 66.8578 2.70899 66.7558 2.81099C66.6538 2.91299 66.5338 2.99099 66.3958 3.04499C66.2578 3.10499 66.1108 3.13499 65.9548 3.13499C65.7988 3.13499 65.6518 3.10499 65.5138 3.04499C65.3758 2.99099 65.2558 2.91299 65.1538 2.81099C65.0578 2.70899 64.9798 2.59199 64.9198 2.45999C64.8658 2.32199 64.8388 2.17198 64.8388 2.00998Z" fill="#545454"/>
<path d="M69.0927 2.00998C69.0927 1.85398 69.1197 1.70698 69.1737 1.56898C69.2337 1.43098 69.3117 1.31099 69.4077 1.20899C69.5097 1.10699 69.6297 1.02599 69.7677 0.965985C69.9057 0.905985 70.0527 0.875985 70.2087 0.875985C70.3647 0.875985 70.5117 0.905985 70.6497 0.965985C70.7877 1.02599 70.9077 1.10699 71.0097 1.20899C71.1117 1.31099 71.1927 1.43098 71.2527 1.56898C71.3127 1.70698 71.3427 1.85398 71.3427 2.00998C71.3427 2.17198 71.3127 2.32199 71.2527 2.45999C71.1927 2.59199 71.1117 2.70899 71.0097 2.81099C70.9077 2.91299 70.7877 2.99099 70.6497 3.04499C70.5117 3.10499 70.3647 3.13499 70.2087 3.13499C70.0527 3.13499 69.9057 3.10499 69.7677 3.04499C69.6297 2.99099 69.5097 2.91299 69.4077 2.81099C69.3117 2.70899 69.2337 2.59199 69.1737 2.45999C69.1197 2.32199 69.0927 2.17198 69.0927 2.00998Z" fill="#545454"/>
<path d="M73.3466 2.00998C73.3466 1.85398 73.3736 1.70698 73.4276 1.56898C73.4876 1.43098 73.5656 1.31099 73.6616 1.20899C73.7636 1.10699 73.8836 1.02599 74.0216 0.965985C74.1596 0.905985 74.3066 0.875985 74.4626 0.875985C74.6186 0.875985 74.7656 0.905985 74.9036 0.965985C75.0416 1.02599 75.1616 1.10699 75.2636 1.20899C75.3656 1.31099 75.4466 1.43098 75.5066 1.56898C75.5666 1.70698 75.5966 1.85398 75.5966 2.00998C75.5966 2.17198 75.5666 2.32199 75.5066 2.45999C75.4466 2.59199 75.3656 2.70899 75.2636 2.81099C75.1616 2.91299 75.0416 2.99099 74.9036 3.04499C74.7656 3.10499 74.6186 3.13499 74.4626 3.13499C74.3066 3.13499 74.1596 3.10499 74.0216 3.04499C73.8836 2.99099 73.7636 2.91299 73.6616 2.81099C73.5656 2.70899 73.4876 2.59199 73.4276 2.45999C73.3736 2.32199 73.3466 2.17198 73.3466 2.00998Z" fill="#545454"/>
<path d="M77.6005 2.00998C77.6005 1.85398 77.6275 1.70698 77.6815 1.56898C77.7415 1.43098 77.8195 1.31099 77.9155 1.20899C78.0175 1.10699 78.1375 1.02599 78.2755 0.965985C78.4135 0.905985 78.5605 0.875985 78.7165 0.875985C78.8725 0.875985 79.0195 0.905985 79.1575 0.965985C79.2955 1.02599 79.4155 1.10699 79.5175 1.20899C79.6195 1.31099 79.7005 1.43098 79.7605 1.56898C79.8205 1.70698 79.8505 1.85398 79.8505 2.00998C79.8505 2.17198 79.8205 2.32199 79.7605 2.45999C79.7005 2.59199 79.6195 2.70899 79.5175 2.81099C79.4155 2.91299 79.2955 2.99099 79.1575 3.04499C79.0195 3.10499 78.8725 3.13499 78.7165 3.13499C78.5605 3.13499 78.4135 3.10499 78.2755 3.04499C78.1375 2.99099 78.0175 2.91299 77.9155 2.81099C77.8195 2.70899 77.7415 2.59199 77.6815 2.45999C77.6275 2.32199 77.6005 2.17198 77.6005 2.00998Z" fill="#545454"/>
<path d="M81.8544 2.00998C81.8544 1.85398 81.8814 1.70698 81.9354 1.56898C81.9954 1.43098 82.0734 1.31099 82.1694 1.20899C82.2714 1.10699 82.3914 1.02599 82.5294 0.965985C82.6674 0.905985 82.8144 0.875985 82.9704 0.875985C83.1264 0.875985 83.2734 0.905985 83.4114 0.965985C83.5494 1.02599 83.6694 1.10699 83.7714 1.20899C83.8734 1.31099 83.9544 1.43098 84.0144 1.56898C84.0744 1.70698 84.1044 1.85398 84.1044 2.00998C84.1044 2.17198 84.0744 2.32199 84.0144 2.45999C83.9544 2.59199 83.8734 2.70899 83.7714 2.81099C83.6694 2.91299 83.5494 2.99099 83.4114 3.04499C83.2734 3.10499 83.1264 3.13499 82.9704 3.13499C82.8144 3.13499 82.6674 3.10499 82.5294 3.04499C82.3914 2.99099 82.2714 2.91299 82.1694 2.81099C82.0734 2.70899 81.9954 2.59199 81.9354 2.45999C81.8814 2.32199 81.8544 2.17198 81.8544 2.00998Z" fill="#545454"/>
<path d="M86.1084 2.00998C86.1084 1.85398 86.1353 1.70698 86.1893 1.56898C86.2493 1.43098 86.3274 1.31099 86.4234 1.20899C86.5254 1.10699 86.6453 1.02599 86.7833 0.965985C86.9213 0.905985 87.0683 0.875985 87.2243 0.875985C87.3803 0.875985 87.5273 0.905985 87.6653 0.965985C87.8033 1.02599 87.9233 1.10699 88.0253 1.20899C88.1273 1.31099 88.2083 1.43098 88.2683 1.56898C88.3283 1.70698 88.3584 1.85398 88.3584 2.00998C88.3584 2.17198 88.3283 2.32199 88.2683 2.45999C88.2083 2.59199 88.1273 2.70899 88.0253 2.81099C87.9233 2.91299 87.8033 2.99099 87.6653 3.04499C87.5273 3.10499 87.3803 3.13499 87.2243 3.13499C87.0683 3.13499 86.9213 3.10499 86.7833 3.04499C86.6453 2.99099 86.5254 2.91299 86.4234 2.81099C86.3274 2.70899 86.2493 2.59199 86.1893 2.45999C86.1353 2.32199 86.1084 2.17198 86.1084 2.00998Z" fill="#545454"/>
<path d="M90.3623 2.00998C90.3623 1.85398 90.3893 1.70698 90.4433 1.56898C90.5033 1.43098 90.5813 1.31099 90.6773 1.20899C90.7793 1.10699 90.8992 1.02599 91.0372 0.965985C91.1752 0.905985 91.3223 0.875985 91.4783 0.875985C91.6343 0.875985 91.7813 0.905985 91.9193 0.965985C92.0573 1.02599 92.1773 1.10699 92.2793 1.20899C92.3813 1.31099 92.4622 1.43098 92.5222 1.56898C92.5822 1.70698 92.6123 1.85398 92.6123 2.00998C92.6123 2.17198 92.5822 2.32199 92.5222 2.45999C92.4622 2.59199 92.3813 2.70899 92.2793 2.81099C92.1773 2.91299 92.0573 2.99099 91.9193 3.04499C91.7813 3.10499 91.6343 3.13499 91.4783 3.13499C91.3223 3.13499 91.1752 3.10499 91.0372 3.04499C90.8992 2.99099 90.7793 2.91299 90.6773 2.81099C90.5813 2.70899 90.5033 2.59199 90.4433 2.45999C90.3893 2.32199 90.3623 2.17198 90.3623 2.00998Z" fill="#545454"/>
<path d="M94.6162 2.00998C94.6162 1.85398 94.6432 1.70698 94.6972 1.56898C94.7572 1.43098 94.8352 1.31099 94.9312 1.20899C95.0332 1.10699 95.1532 1.02599 95.2912 0.965985C95.4292 0.905985 95.5762 0.875985 95.7322 0.875985C95.8882 0.875985 96.0352 0.905985 96.1732 0.965985C96.3112 1.02599 96.4312 1.10699 96.5332 1.20899C96.6352 1.31099 96.7162 1.43098 96.7762 1.56898C96.8362 1.70698 96.8662 1.85398 96.8662 2.00998C96.8662 2.17198 96.8362 2.32199 96.7762 2.45999C96.7162 2.59199 96.6352 2.70899 96.5332 2.81099C96.4312 2.91299 96.3112 2.99099 96.1732 3.04499C96.0352 3.10499 95.8882 3.13499 95.7322 3.13499C95.5762 3.13499 95.4292 3.10499 95.2912 3.04499C95.1532 2.99099 95.0332 2.91299 94.9312 2.81099C94.8352 2.70899 94.7572 2.59199 94.6972 2.45999C94.6432 2.32199 94.6162 2.17198 94.6162 2.00998Z" fill="#545454"/>
<path d="M98.8701 2.00998C98.8701 1.85398 98.8971 1.70698 98.9511 1.56898C99.0111 1.43098 99.0891 1.31099 99.1851 1.20899C99.2871 1.10699 99.4071 1.02599 99.5451 0.965985C99.6831 0.905985 99.8301 0.875985 99.9861 0.875985C100.142 0.875985 100.289 0.905985 100.427 0.965985C100.565 1.02599 100.685 1.10699 100.787 1.20899C100.889 1.31099 100.97 1.43098 101.03 1.56898C101.09 1.70698 101.12 1.85398 101.12 2.00998C101.12 2.17198 101.09 2.32199 101.03 2.45999C100.97 2.59199 100.889 2.70899 100.787 2.81099C100.685 2.91299 100.565 2.99099 100.427 3.04499C100.289 3.10499 100.142 3.13499 99.9861 3.13499C99.8301 3.13499 99.6831 3.10499 99.5451 3.04499C99.4071 2.99099 99.2871 2.91299 99.1851 2.81099C99.0891 2.70899 99.0111 2.59199 98.9511 2.45999C98.8971 2.32199 98.8701 2.17198 98.8701 2.00998Z" fill="#545454"/>
<path d="M103.124 2.00998C103.124 1.85398 103.151 1.70698 103.205 1.56898C103.265 1.43098 103.343 1.31099 103.439 1.20899C103.541 1.10699 103.661 1.02599 103.799 0.965985C103.937 0.905985 104.084 0.875985 104.24 0.875985C104.396 0.875985 104.543 0.905985 104.681 0.965985C104.819 1.02599 104.939 1.10699 105.041 1.20899C105.143 1.31099 105.224 1.43098 105.284 1.56898C105.344 1.70698 105.374 1.85398 105.374 2.00998C105.374 2.17198 105.344 2.32199 105.284 2.45999C105.224 2.59199 105.143 2.70899 105.041 2.81099C104.939 2.91299 104.819 2.99099 104.681 3.04499C104.543 3.10499 104.396 3.13499 104.24 3.13499C104.084 3.13499 103.937 3.10499 103.799 3.04499C103.661 2.99099 103.541 2.91299 103.439 2.81099C103.343 2.70899 103.265 2.59199 103.205 2.45999C103.151 2.32199 103.124 2.17198 103.124 2.00998Z" fill="#545454"/>
<path d="M107.378 2.00998C107.378 1.85398 107.405 1.70698 107.459 1.56898C107.519 1.43098 107.597 1.31099 107.693 1.20899C107.795 1.10699 107.915 1.02599 108.053 0.965985C108.191 0.905985 108.338 0.875985 108.494 0.875985C108.65 0.875985 108.797 0.905985 108.935 0.965985C109.073 1.02599 109.193 1.10699 109.295 1.20899C109.397 1.31099 109.478 1.43098 109.538 1.56898C109.598 1.70698 109.628 1.85398 109.628 2.00998C109.628 2.17198 109.598 2.32199 109.538 2.45999C109.478 2.59199 109.397 2.70899 109.295 2.81099C109.193 2.91299 109.073 2.99099 108.935 3.04499C108.797 3.10499 108.65 3.13499 108.494 3.13499C108.338 3.13499 108.191 3.10499 108.053 3.04499C107.915 2.99099 107.795 2.91299 107.693 2.81099C107.597 2.70899 107.519 2.59199 107.459 2.45999C107.405 2.32199 107.378 2.17198 107.378 2.00998Z" fill="#545454"/>
<path d="M111.632 2.00998C111.632 1.85398 111.659 1.70698 111.713 1.56898C111.773 1.43098 111.851 1.31099 111.947 1.20899C112.049 1.10699 112.169 1.02599 112.307 0.965985C112.445 0.905985 112.592 0.875985 112.748 0.875985C112.904 0.875985 113.051 0.905985 113.189 0.965985C113.327 1.02599 113.447 1.10699 113.549 1.20899C113.651 1.31099 113.732 1.43098 113.792 1.56898C113.852 1.70698 113.882 1.85398 113.882 2.00998C113.882 2.17198 113.852 2.32199 113.792 2.45999C113.732 2.59199 113.651 2.70899 113.549 2.81099C113.447 2.91299 113.327 2.99099 113.189 3.04499C113.051 3.10499 112.904 3.13499 112.748 3.13499C112.592 3.13499 112.445 3.10499 112.307 3.04499C112.169 2.99099 112.049 2.91299 111.947 2.81099C111.851 2.70899 111.773 2.59199 111.713 2.45999C111.659 2.32199 111.632 2.17198 111.632 2.00998Z" fill="#545454"/>
<path d="M115.886 2.00998C115.886 1.85398 115.913 1.70698 115.967 1.56898C116.027 1.43098 116.105 1.31099 116.201 1.20899C116.303 1.10699 116.423 1.02599 116.561 0.965985C116.699 0.905985 116.846 0.875985 117.002 0.875985C117.158 0.875985 117.305 0.905985 117.443 0.965985C117.581 1.02599 117.701 1.10699 117.803 1.20899C117.905 1.31099 117.986 1.43098 118.046 1.56898C118.106 1.70698 118.136 1.85398 118.136 2.00998C118.136 2.17198 118.106 2.32199 118.046 2.45999C117.986 2.59199 117.905 2.70899 117.803 2.81099C117.701 2.91299 117.581 2.99099 117.443 3.04499C117.305 3.10499 117.158 3.13499 117.002 3.13499C116.846 3.13499 116.699 3.10499 116.561 3.04499C116.423 2.99099 116.303 2.91299 116.201 2.81099C116.105 2.70899 116.027 2.59199 115.967 2.45999C115.913 2.32199 115.886 2.17198 115.886 2.00998Z" fill="#545454"/>
<path d="M120.14 2.00998C120.14 1.85398 120.167 1.70698 120.221 1.56898C120.281 1.43098 120.359 1.31099 120.455 1.20899C120.557 1.10699 120.677 1.02599 120.815 0.965985C120.953 0.905985 121.1 0.875985 121.256 0.875985C121.412 0.875985 121.559 0.905985 121.697 0.965985C121.835 1.02599 121.955 1.10699 122.057 1.20899C122.159 1.31099 122.24 1.43098 122.3 1.56898C122.36 1.70698 122.39 1.85398 122.39 2.00998C122.39 2.17198 122.36 2.32199 122.3 2.45999C122.24 2.59199 122.159 2.70899 122.057 2.81099C121.955 2.91299 121.835 2.99099 121.697 3.04499C121.559 3.10499 121.412 3.13499 121.256 3.13499C121.1 3.13499 120.953 3.10499 120.815 3.04499C120.677 2.99099 120.557 2.91299 120.455 2.81099C120.359 2.70899 120.281 2.59199 120.221 2.45999C120.167 2.32199 120.14 2.17198 120.14 2.00998Z" fill="#545454"/>
<path d="M124.394 2.00998C124.394 1.85398 124.421 1.70698 124.475 1.56898C124.535 1.43098 124.613 1.31099 124.709 1.20899C124.811 1.10699 124.93 1.02599 125.068 0.965985C125.206 0.905985 125.354 0.875985 125.51 0.875985C125.666 0.875985 125.813 0.905985 125.951 0.965985C126.089 1.02599 126.209 1.10699 126.311 1.20899C126.413 1.31099 126.493 1.43098 126.553 1.56898C126.613 1.70698 126.644 1.85398 126.644 2.00998C126.644 2.17198 126.613 2.32199 126.553 2.45999C126.493 2.59199 126.413 2.70899 126.311 2.81099C126.209 2.91299 126.089 2.99099 125.951 3.04499C125.813 3.10499 125.666 3.13499 125.51 3.13499C125.354 3.13499 125.206 3.10499 125.068 3.04499C124.93 2.99099 124.811 2.91299 124.709 2.81099C124.613 2.70899 124.535 2.59199 124.475 2.45999C124.421 2.32199 124.394 2.17198 124.394 2.00998Z" fill="#545454"/>
<path d="M128.647 2.00998C128.647 1.85398 128.674 1.70698 128.728 1.56898C128.788 1.43098 128.866 1.31099 128.962 1.20899C129.064 1.10699 129.184 1.02599 129.322 0.965985C129.46 0.905985 129.607 0.875985 129.763 0.875985C129.919 0.875985 130.066 0.905985 130.204 0.965985C130.342 1.02599 130.462 1.10699 130.564 1.20899C130.666 1.31099 130.747 1.43098 130.807 1.56898C130.867 1.70698 130.897 1.85398 130.897 2.00998C130.897 2.17198 130.867 2.32199 130.807 2.45999C130.747 2.59199 130.666 2.70899 130.564 2.81099C130.462 2.91299 130.342 2.99099 130.204 3.04499C130.066 3.10499 129.919 3.13499 129.763 3.13499C129.607 3.13499 129.46 3.10499 129.322 3.04499C129.184 2.99099 129.064 2.91299 128.962 2.81099C128.866 2.70899 128.788 2.59199 128.728 2.45999C128.674 2.32199 128.647 2.17198 128.647 2.00998Z" fill="#545454"/>
<path d="M132.901 2.00998C132.901 1.85398 132.928 1.70698 132.982 1.56898C133.042 1.43098 133.12 1.31099 133.216 1.20899C133.318 1.10699 133.438 1.02599 133.576 0.965985C133.714 0.905985 133.861 0.875985 134.017 0.875985C134.173 0.875985 134.32 0.905985 134.458 0.965985C134.596 1.02599 134.716 1.10699 134.818 1.20899C134.92 1.31099 135.001 1.43098 135.061 1.56898C135.121 1.70698 135.151 1.85398 135.151 2.00998C135.151 2.17198 135.121 2.32199 135.061 2.45999C135.001 2.59199 134.92 2.70899 134.818 2.81099C134.716 2.91299 134.596 2.99099 134.458 3.04499C134.32 3.10499 134.173 3.13499 134.017 3.13499C133.861 3.13499 133.714 3.10499 133.576 3.04499C133.438 2.99099 133.318 2.91299 133.216 2.81099C133.12 2.70899 133.042 2.59199 132.982 2.45999C132.928 2.32199 132.901 2.17198 132.901 2.00998Z" fill="#545454"/>
<path d="M137.155 2.00998C137.155 1.85398 137.182 1.70698 137.236 1.56898C137.296 1.43098 137.374 1.31099 137.47 1.20899C137.572 1.10699 137.692 1.02599 137.83 0.965985C137.968 0.905985 138.115 0.875985 138.271 0.875985C138.427 0.875985 138.574 0.905985 138.712 0.965985C138.85 1.02599 138.97 1.10699 139.072 1.20899C139.174 1.31099 139.255 1.43098 139.315 1.56898C139.375 1.70698 139.405 1.85398 139.405 2.00998C139.405 2.17198 139.375 2.32199 139.315 2.45999C139.255 2.59199 139.174 2.70899 139.072 2.81099C138.97 2.91299 138.85 2.99099 138.712 3.04499C138.574 3.10499 138.427 3.13499 138.271 3.13499C138.115 3.13499 137.968 3.10499 137.83 3.04499C137.692 2.99099 137.572 2.91299 137.47 2.81099C137.374 2.70899 137.296 2.59199 137.236 2.45999C137.182 2.32199 137.155 2.17198 137.155 2.00998Z" fill="#545454"/>
<path d="M141.409 2.00998C141.409 1.85398 141.436 1.70698 141.49 1.56898C141.55 1.43098 141.628 1.31099 141.724 1.20899C141.826 1.10699 141.946 1.02599 142.084 0.965985C142.222 0.905985 142.369 0.875985 142.525 0.875985C142.681 0.875985 142.828 0.905985 142.966 0.965985C143.104 1.02599 143.224 1.10699 143.326 1.20899C143.428 1.31099 143.509 1.43098 143.569 1.56898C143.629 1.70698 143.659 1.85398 143.659 2.00998C143.659 2.17198 143.629 2.32199 143.569 2.45999C143.509 2.59199 143.428 2.70899 143.326 2.81099C143.224 2.91299 143.104 2.99099 142.966 3.04499C142.828 3.10499 142.681 3.13499 142.525 3.13499C142.369 3.13499 142.222 3.10499 142.084 3.04499C141.946 2.99099 141.826 2.91299 141.724 2.81099C141.628 2.70899 141.55 2.59199 141.49 2.45999C141.436 2.32199 141.409 2.17198 141.409 2.00998Z" fill="#545454"/>
<path d="M145.663 2.00998C145.663 1.85398 145.69 1.70698 145.744 1.56898C145.804 1.43098 145.882 1.31099 145.978 1.20899C146.08 1.10699 146.2 1.02599 146.338 0.965985C146.476 0.905985 146.623 0.875985 146.779 0.875985C146.935 0.875985 147.082 0.905985 147.22 0.965985C147.358 1.02599 147.478 1.10699 147.58 1.20899C147.682 1.31099 147.763 1.43098 147.823 1.56898C147.883 1.70698 147.913 1.85398 147.913 2.00998C147.913 2.17198 147.883 2.32199 147.823 2.45999C147.763 2.59199 147.682 2.70899 147.58 2.81099C147.478 2.91299 147.358 2.99099 147.22 3.04499C147.082 3.10499 146.935 3.13499 146.779 3.13499C146.623 3.13499 146.476 3.10499 146.338 3.04499C146.2 2.99099 146.08 2.91299 145.978 2.81099C145.882 2.70899 145.804 2.59199 145.744 2.45999C145.69 2.32199 145.663 2.17198 145.663 2.00998Z" fill="#545454"/>
<path d="M149.917 2.00998C149.917 1.85398 149.944 1.70698 149.998 1.56898C150.058 1.43098 150.136 1.31099 150.232 1.20899C150.334 1.10699 150.454 1.02599 150.592 0.965985C150.73 0.905985 150.877 0.875985 151.033 0.875985C151.189 0.875985 151.336 0.905985 151.474 0.965985C151.612 1.02599 151.732 1.10699 151.834 1.20899C151.936 1.31099 152.017 1.43098 152.077 1.56898C152.137 1.70698 152.167 1.85398 152.167 2.00998C152.167 2.17198 152.137 2.32199 152.077 2.45999C152.017 2.59199 151.936 2.70899 151.834 2.81099C151.732 2.91299 151.612 2.99099 151.474 3.04499C151.336 3.10499 151.189 3.13499 151.033 3.13499C150.877 3.13499 150.73 3.10499 150.592 3.04499C150.454 2.99099 150.334 2.91299 150.232 2.81099C150.136 2.70899 150.058 2.59199 149.998 2.45999C149.944 2.32199 149.917 2.17198 149.917 2.00998Z" fill="#545454"/>
<path d="M154.171 2.00998C154.171 1.85398 154.198 1.70698 154.252 1.56898C154.312 1.43098 154.39 1.31099 154.486 1.20899C154.588 1.10699 154.708 1.02599 154.846 0.965985C154.984 0.905985 155.131 0.875985 155.287 0.875985C155.443 0.875985 155.59 0.905985 155.728 0.965985C155.866 1.02599 155.986 1.10699 156.088 1.20899C156.19 1.31099 156.271 1.43098 156.331 1.56898C156.391 1.70698 156.421 1.85398 156.421 2.00998C156.421 2.17198 156.391 2.32199 156.331 2.45999C156.271 2.59199 156.19 2.70899 156.088 2.81099C155.986 2.91299 155.866 2.99099 155.728 3.04499C155.59 3.10499 155.443 3.13499 155.287 3.13499C155.131 3.13499 154.984 3.10499 154.846 3.04499C154.708 2.99099 154.588 2.91299 154.486 2.81099C154.39 2.70899 154.312 2.59199 154.252 2.45999C154.198 2.32199 154.171 2.17198 154.171 2.00998Z" fill="#545454"/>
<path d="M158.425 2.00998C158.425 1.85398 158.452 1.70698 158.506 1.56898C158.566 1.43098 158.644 1.31099 158.74 1.20899C158.842 1.10699 158.962 1.02599 159.1 0.965985C159.238 0.905985 159.385 0.875985 159.541 0.875985C159.697 0.875985 159.844 0.905985 159.982 0.965985C160.12 1.02599 160.24 1.10699 160.342 1.20899C160.444 1.31099 160.525 1.43098 160.585 1.56898C160.645 1.70698 160.675 1.85398 160.675 2.00998C160.675 2.17198 160.645 2.32199 160.585 2.45999C160.525 2.59199 160.444 2.70899 160.342 2.81099C160.24 2.91299 160.12 2.99099 159.982 3.04499C159.844 3.10499 159.697 3.13499 159.541 3.13499C159.385 3.13499 159.238 3.10499 159.1 3.04499C158.962 2.99099 158.842 2.91299 158.74 2.81099C158.644 2.70899 158.566 2.59199 158.506 2.45999C158.452 2.32199 158.425 2.17198 158.425 2.00998Z" fill="#545454"/>
<path d="M162.679 2.00998C162.679 1.85398 162.706 1.70698 162.76 1.56898C162.82 1.43098 162.898 1.31099 162.994 1.20899C163.096 1.10699 163.216 1.02599 163.354 0.965985C163.492 0.905985 163.639 0.875985 163.795 0.875985C163.951 0.875985 164.098 0.905985 164.236 0.965985C164.374 1.02599 164.494 1.10699 164.596 1.20899C164.698 1.31099 164.779 1.43098 164.839 1.56898C164.899 1.70698 164.929 1.85398 164.929 2.00998C164.929 2.17198 164.899 2.32199 164.839 2.45999C164.779 2.59199 164.698 2.70899 164.596 2.81099C164.494 2.91299 164.374 2.99099 164.236 3.04499C164.098 3.10499 163.951 3.13499 163.795 3.13499C163.639 3.13499 163.492 3.10499 163.354 3.04499C163.216 2.99099 163.096 2.91299 162.994 2.81099C162.898 2.70899 162.82 2.59199 162.76 2.45999C162.706 2.32199 162.679 2.17198 162.679 2.00998Z" fill="#545454"/>
<path d="M166.933 2.00998C166.933 1.85398 166.96 1.70698 167.014 1.56898C167.074 1.43098 167.152 1.31099 167.248 1.20899C167.35 1.10699 167.47 1.02599 167.608 0.965985C167.746 0.905985 167.893 0.875985 168.049 0.875985C168.205 0.875985 168.352 0.905985 168.49 0.965985C168.628 1.02599 168.748 1.10699 168.85 1.20899C168.952 1.31099 169.033 1.43098 169.093 1.56898C169.153 1.70698 169.183 1.85398 169.183 2.00998C169.183 2.17198 169.153 2.32199 169.093 2.45999C169.033 2.59199 168.952 2.70899 168.85 2.81099C168.748 2.91299 168.628 2.99099 168.49 3.04499C168.352 3.10499 168.205 3.13499 168.049 3.13499C167.893 3.13499 167.746 3.10499 167.608 3.04499C167.47 2.99099 167.35 2.91299 167.248 2.81099C167.152 2.70899 167.074 2.59199 167.014 2.45999C166.96 2.32199 166.933 2.17198 166.933 2.00998Z" fill="#545454"/>
<path d="M171.186 2.00998C171.186 1.85398 171.213 1.70698 171.267 1.56898C171.327 1.43098 171.405 1.31099 171.501 1.20899C171.603 1.10699 171.723 1.02599 171.861 0.965985C171.999 0.905985 172.146 0.875985 172.302 0.875985C172.458 0.875985 172.605 0.905985 172.743 0.965985C172.881 1.02599 173.001 1.10699 173.103 1.20899C173.205 1.31099 173.286 1.43098 173.346 1.56898C173.406 1.70698 173.436 1.85398 173.436 2.00998C173.436 2.17198 173.406 2.32199 173.346 2.45999C173.286 2.59199 173.205 2.70899 173.103 2.81099C173.001 2.91299 172.881 2.99099 172.743 3.04499C172.605 3.10499 172.458 3.13499 172.302 3.13499C172.146 3.13499 171.999 3.10499 171.861 3.04499C171.723 2.99099 171.603 2.91299 171.501 2.81099C171.405 2.70899 171.327 2.59199 171.267 2.45999C171.213 2.32199 171.186 2.17198 171.186 2.00998Z" fill="#545454"/>
<path d="M175.44 2.00998C175.44 1.85398 175.467 1.70698 175.521 1.56898C175.581 1.43098 175.659 1.31099 175.755 1.20899C175.857 1.10699 175.977 1.02599 176.115 0.965985C176.253 0.905985 176.4 0.875985 176.556 0.875985C176.712 0.875985 176.859 0.905985 176.997 0.965985C177.135 1.02599 177.255 1.10699 177.357 1.20899C177.459 1.31099 177.54 1.43098 177.6 1.56898C177.66 1.70698 177.69 1.85398 177.69 2.00998C177.69 2.17198 177.66 2.32199 177.6 2.45999C177.54 2.59199 177.459 2.70899 177.357 2.81099C177.255 2.91299 177.135 2.99099 176.997 3.04499C176.859 3.10499 176.712 3.13499 176.556 3.13499C176.4 3.13499 176.253 3.10499 176.115 3.04499C175.977 2.99099 175.857 2.91299 175.755 2.81099C175.659 2.70899 175.581 2.59199 175.521 2.45999C175.467 2.32199 175.44 2.17198 175.44 2.00998Z" fill="#545454"/>
<path d="M179.694 2.00998C179.694 1.85398 179.721 1.70698 179.775 1.56898C179.835 1.43098 179.913 1.31099 180.009 1.20899C180.111 1.10699 180.231 1.02599 180.369 0.965985C180.507 0.905985 180.654 0.875985 180.81 0.875985C180.966 0.875985 181.113 0.905985 181.251 0.965985C181.389 1.02599 181.509 1.10699 181.611 1.20899C181.713 1.31099 181.794 1.43098 181.854 1.56898C181.914 1.70698 181.944 1.85398 181.944 2.00998C181.944 2.17198 181.914 2.32199 181.854 2.45999C181.794 2.59199 181.713 2.70899 181.611 2.81099C181.509 2.91299 181.389 2.99099 181.251 3.04499C181.113 3.10499 180.966 3.13499 180.81 3.13499C180.654 3.13499 180.507 3.10499 180.369 3.04499C180.231 2.99099 180.111 2.91299 180.009 2.81099C179.913 2.70899 179.835 2.59199 179.775 2.45999C179.721 2.32199 179.694 2.17198 179.694 2.00998Z" fill="#545454"/>
<path d="M183.948 2.00998C183.948 1.85398 183.975 1.70698 184.029 1.56898C184.089 1.43098 184.167 1.31099 184.263 1.20899C184.365 1.10699 184.485 1.02599 184.623 0.965985C184.761 0.905985 184.908 0.875985 185.064 0.875985C185.22 0.875985 185.367 0.905985 185.505 0.965985C185.643 1.02599 185.763 1.10699 185.865 1.20899C185.967 1.31099 186.048 1.43098 186.108 1.56898C186.168 1.70698 186.198 1.85398 186.198 2.00998C186.198 2.17198 186.168 2.32199 186.108 2.45999C186.048 2.59199 185.967 2.70899 185.865 2.81099C185.763 2.91299 185.643 2.99099 185.505 3.04499C185.367 3.10499 185.22 3.13499 185.064 3.13499C184.908 3.13499 184.761 3.10499 184.623 3.04499C184.485 2.99099 184.365 2.91299 184.263 2.81099C184.167 2.70899 184.089 2.59199 184.029 2.45999C183.975 2.32199 183.948 2.17198 183.948 2.00998Z" fill="#545454"/>
<path d="M188.202 2.00998C188.202 1.85398 188.229 1.70698 188.283 1.56898C188.343 1.43098 188.421 1.31099 188.517 1.20899C188.619 1.10699 188.739 1.02599 188.877 0.965985C189.015 0.905985 189.162 0.875985 189.318 0.875985C189.474 0.875985 189.621 0.905985 189.759 0.965985C189.897 1.02599 190.017 1.10699 190.119 1.20899C190.221 1.31099 190.302 1.43098 190.362 1.56898C190.422 1.70698 190.452 1.85398 190.452 2.00998C190.452 2.17198 190.422 2.32199 190.362 2.45999C190.302 2.59199 190.221 2.70899 190.119 2.81099C190.017 2.91299 189.897 2.99099 189.759 3.04499C189.621 3.10499 189.474 3.13499 189.318 3.13499C189.162 3.13499 189.015 3.10499 188.877 3.04499C188.739 2.99099 188.619 2.91299 188.517 2.81099C188.421 2.70899 188.343 2.59199 188.283 2.45999C188.229 2.32199 188.202 2.17198 188.202 2.00998Z" fill="#545454"/>
<path d="M192.456 2.00998C192.456 1.85398 192.483 1.70698 192.537 1.56898C192.597 1.43098 192.675 1.31099 192.771 1.20899C192.873 1.10699 192.993 1.02599 193.131 0.965985C193.269 0.905985 193.416 0.875985 193.572 0.875985C193.728 0.875985 193.875 0.905985 194.013 0.965985C194.151 1.02599 194.271 1.10699 194.373 1.20899C194.475 1.31099 194.556 1.43098 194.616 1.56898C194.676 1.70698 194.706 1.85398 194.706 2.00998C194.706 2.17198 194.676 2.32199 194.616 2.45999C194.556 2.59199 194.475 2.70899 194.373 2.81099C194.271 2.91299 194.151 2.99099 194.013 3.04499C193.875 3.10499 193.728 3.13499 193.572 3.13499C193.416 3.13499 193.269 3.10499 193.131 3.04499C192.993 2.99099 192.873 2.91299 192.771 2.81099C192.675 2.70899 192.597 2.59199 192.537 2.45999C192.483 2.32199 192.456 2.17198 192.456 2.00998Z" fill="#545454"/>
<path d="M196.71 2.00998C196.71 1.85398 196.737 1.70698 196.791 1.56898C196.851 1.43098 196.929 1.31099 197.025 1.20899C197.127 1.10699 197.247 1.02599 197.385 0.965985C197.523 0.905985 197.67 0.875985 197.826 0.875985C197.982 0.875985 198.129 0.905985 198.267 0.965985C198.405 1.02599 198.525 1.10699 198.627 1.20899C198.729 1.31099 198.81 1.43098 198.87 1.56898C198.93 1.70698 198.96 1.85398 198.96 2.00998C198.96 2.17198 198.93 2.32199 198.87 2.45999C198.81 2.59199 198.729 2.70899 198.627 2.81099C198.525 2.91299 198.405 2.99099 198.267 3.04499C198.129 3.10499 197.982 3.13499 197.826 3.13499C197.67 3.13499 197.523 3.10499 197.385 3.04499C197.247 2.99099 197.127 2.91299 197.025 2.81099C196.929 2.70899 196.851 2.59199 196.791 2.45999C196.737 2.32199 196.71 2.17198 196.71 2.00998Z" fill="#545454"/>
<path d="M200.964 2.00998C200.964 1.85398 200.991 1.70698 201.045 1.56898C201.105 1.43098 201.183 1.31099 201.279 1.20899C201.381 1.10699 201.501 1.02599 201.639 0.965985C201.777 0.905985 201.924 0.875985 202.08 0.875985C202.236 0.875985 202.383 0.905985 202.521 0.965985C202.659 1.02599 202.779 1.10699 202.881 1.20899C202.983 1.31099 203.064 1.43098 203.124 1.56898C203.184 1.70698 203.214 1.85398 203.214 2.00998C203.214 2.17198 203.184 2.32199 203.124 2.45999C203.064 2.59199 202.983 2.70899 202.881 2.81099C202.779 2.91299 202.659 2.99099 202.521 3.04499C202.383 3.10499 202.236 3.13499 202.08 3.13499C201.924 3.13499 201.777 3.10499 201.639 3.04499C201.501 2.99099 201.381 2.91299 201.279 2.81099C201.183 2.70899 201.105 2.59199 201.045 2.45999C200.991 2.32199 200.964 2.17198 200.964 2.00998Z" fill="#545454"/>
<path d="M205.218 2.00998C205.218 1.85398 205.245 1.70698 205.299 1.56898C205.359 1.43098 205.437 1.31099 205.533 1.20899C205.635 1.10699 205.755 1.02599 205.893 0.965985C206.031 0.905985 206.178 0.875985 206.334 0.875985C206.49 0.875985 206.637 0.905985 206.775 0.965985C206.913 1.02599 207.033 1.10699 207.135 1.20899C207.237 1.31099 207.318 1.43098 207.378 1.56898C207.438 1.70698 207.468 1.85398 207.468 2.00998C207.468 2.17198 207.438 2.32199 207.378 2.45999C207.318 2.59199 207.237 2.70899 207.135 2.81099C207.033 2.91299 206.913 2.99099 206.775 3.04499C206.637 3.10499 206.49 3.13499 206.334 3.13499C206.178 3.13499 206.031 3.10499 205.893 3.04499C205.755 2.99099 205.635 2.91299 205.533 2.81099C205.437 2.70899 205.359 2.59199 205.299 2.45999C205.245 2.32199 205.218 2.17198 205.218 2.00998Z" fill="#545454"/>
<path d="M209.472 2.00998C209.472 1.85398 209.499 1.70698 209.553 1.56898C209.613 1.43098 209.691 1.31099 209.787 1.20899C209.889 1.10699 210.009 1.02599 210.147 0.965985C210.285 0.905985 210.432 0.875985 210.588 0.875985C210.744 0.875985 210.891 0.905985 211.029 0.965985C211.167 1.02599 211.287 1.10699 211.389 1.20899C211.491 1.31099 211.572 1.43098 211.632 1.56898C211.692 1.70698 211.722 1.85398 211.722 2.00998C211.722 2.17198 211.692 2.32199 211.632 2.45999C211.572 2.59199 211.491 2.70899 211.389 2.81099C211.287 2.91299 211.167 2.99099 211.029 3.04499C210.891 3.10499 210.744 3.13499 210.588 3.13499C210.432 3.13499 210.285 3.10499 210.147 3.04499C210.009 2.99099 209.889 2.91299 209.787 2.81099C209.691 2.70899 209.613 2.59199 209.553 2.45999C209.499 2.32199 209.472 2.17198 209.472 2.00998Z" fill="#545454"/>
<path d="M213.726 2.00998C213.726 1.85398 213.753 1.70698 213.807 1.56898C213.867 1.43098 213.945 1.31099 214.041 1.20899C214.143 1.10699 214.263 1.02599 214.401 0.965985C214.539 0.905985 214.686 0.875985 214.842 0.875985C214.998 0.875985 215.145 0.905985 215.283 0.965985C215.421 1.02599 215.541 1.10699 215.643 1.20899C215.745 1.31099 215.826 1.43098 215.886 1.56898C215.946 1.70698 215.976 1.85398 215.976 2.00998C215.976 2.17198 215.946 2.32199 215.886 2.45999C215.826 2.59199 215.745 2.70899 215.643 2.81099C215.541 2.91299 215.421 2.99099 215.283 3.04499C215.145 3.10499 214.998 3.13499 214.842 3.13499C214.686 3.13499 214.539 3.10499 214.401 3.04499C214.263 2.99099 214.143 2.91299 214.041 2.81099C213.945 2.70899 213.867 2.59199 213.807 2.45999C213.753 2.32199 213.726 2.17198 213.726 2.00998Z" fill="#545454"/>
<path d="M217.979 2.00998C217.979 1.85398 218.006 1.70698 218.06 1.56898C218.12 1.43098 218.198 1.31099 218.294 1.20899C218.396 1.10699 218.516 1.02599 218.654 0.965985C218.792 0.905985 218.939 0.875985 219.095 0.875985C219.251 0.875985 219.398 0.905985 219.536 0.965985C219.674 1.02599 219.794 1.10699 219.896 1.20899C219.998 1.31099 220.079 1.43098 220.139 1.56898C220.199 1.70698 220.229 1.85398 220.229 2.00998C220.229 2.17198 220.199 2.32199 220.139 2.45999C220.079 2.59199 219.998 2.70899 219.896 2.81099C219.794 2.91299 219.674 2.99099 219.536 3.04499C219.398 3.10499 219.251 3.13499 219.095 3.13499C218.939 3.13499 218.792 3.10499 218.654 3.04499C218.516 2.99099 218.396 2.91299 218.294 2.81099C218.198 2.70899 218.12 2.59199 218.06 2.45999C218.006 2.32199 217.979 2.17198 217.979 2.00998Z" fill="#545454"/>
<path d="M222.233 2.00998C222.233 1.85398 222.26 1.70698 222.314 1.56898C222.374 1.43098 222.452 1.31099 222.548 1.20899C222.65 1.10699 222.77 1.02599 222.908 0.965985C223.046 0.905985 223.193 0.875985 223.349 0.875985C223.505 0.875985 223.652 0.905985 223.79 0.965985C223.928 1.02599 224.048 1.10699 224.15 1.20899C224.252 1.31099 224.333 1.43098 224.393 1.56898C224.453 1.70698 224.483 1.85398 224.483 2.00998C224.483 2.17198 224.453 2.32199 224.393 2.45999C224.333 2.59199 224.252 2.70899 224.15 2.81099C224.048 2.91299 223.928 2.99099 223.79 3.04499C223.652 3.10499 223.505 3.13499 223.349 3.13499C223.193 3.13499 223.046 3.10499 222.908 3.04499C222.77 2.99099 222.65 2.91299 222.548 2.81099C222.452 2.70899 222.374 2.59199 222.314 2.45999C222.26 2.32199 222.233 2.17198 222.233 2.00998Z" fill="#545454"/>
<path d="M226.487 2.00998C226.487 1.85398 226.514 1.70698 226.568 1.56898C226.628 1.43098 226.706 1.31099 226.802 1.20899C226.904 1.10699 227.024 1.02599 227.162 0.965985C227.3 0.905985 227.447 0.875985 227.603 0.875985C227.759 0.875985 227.906 0.905985 228.044 0.965985C228.182 1.02599 228.302 1.10699 228.404 1.20899C228.506 1.31099 228.587 1.43098 228.647 1.56898C228.707 1.70698 228.737 1.85398 228.737 2.00998C228.737 2.17198 228.707 2.32199 228.647 2.45999C228.587 2.59199 228.506 2.70899 228.404 2.81099C228.302 2.91299 228.182 2.99099 228.044 3.04499C227.906 3.10499 227.759 3.13499 227.603 3.13499C227.447 3.13499 227.3 3.10499 227.162 3.04499C227.024 2.99099 226.904 2.91299 226.802 2.81099C226.706 2.70899 226.628 2.59199 226.568 2.45999C226.514 2.32199 226.487 2.17198 226.487 2.00998Z" fill="#545454"/>
<path d="M230.741 2.00998C230.741 1.85398 230.768 1.70698 230.822 1.56898C230.882 1.43098 230.96 1.31099 231.056 1.20899C231.158 1.10699 231.278 1.02599 231.416 0.965985C231.554 0.905985 231.701 0.875985 231.857 0.875985C232.013 0.875985 232.16 0.905985 232.298 0.965985C232.436 1.02599 232.556 1.10699 232.658 1.20899C232.76 1.31099 232.841 1.43098 232.901 1.56898C232.961 1.70698 232.991 1.85398 232.991 2.00998C232.991 2.17198 232.961 2.32199 232.901 2.45999C232.841 2.59199 232.76 2.70899 232.658 2.81099C232.556 2.91299 232.436 2.99099 232.298 3.04499C232.16 3.10499 232.013 3.13499 231.857 3.13499C231.701 3.13499 231.554 3.10499 231.416 3.04499C231.278 2.99099 231.158 2.91299 231.056 2.81099C230.96 2.70899 230.882 2.59199 230.822 2.45999C230.768 2.32199 230.741 2.17198 230.741 2.00998Z" fill="#545454"/>
<path d="M234.995 2.00998C234.995 1.85398 235.022 1.70698 235.076 1.56898C235.136 1.43098 235.214 1.31099 235.31 1.20899C235.412 1.10699 235.532 1.02599 235.67 0.965985C235.808 0.905985 235.955 0.875985 236.111 0.875985C236.267 0.875985 236.414 0.905985 236.552 0.965985C236.69 1.02599 236.81 1.10699 236.912 1.20899C237.014 1.31099 237.095 1.43098 237.155 1.56898C237.215 1.70698 237.245 1.85398 237.245 2.00998C237.245 2.17198 237.215 2.32199 237.155 2.45999C237.095 2.59199 237.014 2.70899 236.912 2.81099C236.81 2.91299 236.69 2.99099 236.552 3.04499C236.414 3.10499 236.267 3.13499 236.111 3.13499C235.955 3.13499 235.808 3.10499 235.67 3.04499C235.532 2.99099 235.412 2.91299 235.31 2.81099C235.214 2.70899 235.136 2.59199 235.076 2.45999C235.022 2.32199 234.995 2.17198 234.995 2.00998Z" fill="#545454"/>
<path d="M239.249 2.00998C239.249 1.85398 239.276 1.70698 239.33 1.56898C239.39 1.43098 239.468 1.31099 239.564 1.20899C239.666 1.10699 239.786 1.02599 239.924 0.965985C240.062 0.905985 240.209 0.875985 240.365 0.875985C240.521 0.875985 240.668 0.905985 240.806 0.965985C240.944 1.02599 241.064 1.10699 241.166 1.20899C241.268 1.31099 241.349 1.43098 241.409 1.56898C241.469 1.70698 241.499 1.85398 241.499 2.00998C241.499 2.17198 241.469 2.32199 241.409 2.45999C241.349 2.59199 241.268 2.70899 241.166 2.81099C241.064 2.91299 240.944 2.99099 240.806 3.04499C240.668 3.10499 240.521 3.13499 240.365 3.13499C240.209 3.13499 240.062 3.10499 239.924 3.04499C239.786 2.99099 239.666 2.91299 239.564 2.81099C239.468 2.70899 239.39 2.59199 239.33 2.45999C239.276 2.32199 239.249 2.17198 239.249 2.00998Z" fill="#545454"/>
<path d="M243.503 2.00998C243.503 1.85398 243.53 1.70698 243.584 1.56898C243.644 1.43098 243.722 1.31099 243.818 1.20899C243.92 1.10699 244.04 1.02599 244.178 0.965985C244.316 0.905985 244.463 0.875985 244.619 0.875985C244.775 0.875985 244.922 0.905985 245.06 0.965985C245.198 1.02599 245.318 1.10699 245.42 1.20899C245.522 1.31099 245.603 1.43098 245.663 1.56898C245.723 1.70698 245.753 1.85398 245.753 2.00998C245.753 2.17198 245.723 2.32199 245.663 2.45999C245.603 2.59199 245.522 2.70899 245.42 2.81099C245.318 2.91299 245.198 2.99099 245.06 3.04499C244.922 3.10499 244.775 3.13499 244.619 3.13499C244.463 3.13499 244.316 3.10499 244.178 3.04499C244.04 2.99099 243.92 2.91299 243.818 2.81099C243.722 2.70899 243.644 2.59199 243.584 2.45999C243.53 2.32199 243.503 2.17198 243.503 2.00998Z" fill="#545454"/>
<path d="M247.757 2.00998C247.757 1.85398 247.784 1.70698 247.838 1.56898C247.898 1.43098 247.976 1.31099 248.072 1.20899C248.174 1.10699 248.294 1.02599 248.432 0.965985C248.57 0.905985 248.717 0.875985 248.873 0.875985C249.029 0.875985 249.176 0.905985 249.314 0.965985C249.452 1.02599 249.572 1.10699 249.674 1.20899C249.776 1.31099 249.857 1.43098 249.917 1.56898C249.977 1.70698 250.007 1.85398 250.007 2.00998C250.007 2.17198 249.977 2.32199 249.917 2.45999C249.857 2.59199 249.776 2.70899 249.674 2.81099C249.572 2.91299 249.452 2.99099 249.314 3.04499C249.176 3.10499 249.029 3.13499 248.873 3.13499C248.717 3.13499 248.57 3.10499 248.432 3.04499C248.294 2.99099 248.174 2.91299 248.072 2.81099C247.976 2.70899 247.898 2.59199 247.838 2.45999C247.784 2.32199 247.757 2.17198 247.757 2.00998Z" fill="#545454"/>
<path d="M252.011 2.00998C252.011 1.85398 252.038 1.70698 252.092 1.56898C252.152 1.43098 252.23 1.31099 252.326 1.20899C252.428 1.10699 252.548 1.02599 252.686 0.965985C252.824 0.905985 252.971 0.875985 253.127 0.875985C253.283 0.875985 253.43 0.905985 253.568 0.965985C253.706 1.02599 253.826 1.10699 253.928 1.20899C254.03 1.31099 254.111 1.43098 254.171 1.56898C254.231 1.70698 254.261 1.85398 254.261 2.00998C254.261 2.17198 254.231 2.32199 254.171 2.45999C254.111 2.59199 254.03 2.70899 253.928 2.81099C253.826 2.91299 253.706 2.99099 253.568 3.04499C253.43 3.10499 253.283 3.13499 253.127 3.13499C252.971 3.13499 252.824 3.10499 252.686 3.04499C252.548 2.99099 252.428 2.91299 252.326 2.81099C252.23 2.70899 252.152 2.59199 252.092 2.45999C252.038 2.32199 252.011 2.17198 252.011 2.00998Z" fill="#545454"/>
<path d="M256.265 2.00998C256.265 1.85398 256.292 1.70698 256.346 1.56898C256.406 1.43098 256.484 1.31099 256.58 1.20899C256.682 1.10699 256.802 1.02599 256.94 0.965985C257.078 0.905985 257.225 0.875985 257.381 0.875985C257.537 0.875985 257.684 0.905985 257.822 0.965985C257.96 1.02599 258.08 1.10699 258.182 1.20899C258.284 1.31099 258.365 1.43098 258.425 1.56898C258.485 1.70698 258.515 1.85398 258.515 2.00998C258.515 2.17198 258.485 2.32199 258.425 2.45999C258.365 2.59199 258.284 2.70899 258.182 2.81099C258.08 2.91299 257.96 2.99099 257.822 3.04499C257.684 3.10499 257.537 3.13499 257.381 3.13499C257.225 3.13499 257.078 3.10499 256.94 3.04499C256.802 2.99099 256.682 2.91299 256.58 2.81099C256.484 2.70899 256.406 2.59199 256.346 2.45999C256.292 2.32199 256.265 2.17198 256.265 2.00998Z" fill="#545454"/>
<path d="M260.518 2.00998C260.518 1.85398 260.546 1.70698 260.6 1.56898C260.66 1.43098 260.737 1.31099 260.833 1.20899C260.935 1.10699 261.056 1.02599 261.194 0.965985C261.332 0.905985 261.478 0.875985 261.634 0.875985C261.79 0.875985 261.938 0.905985 262.076 0.965985C262.214 1.02599 262.334 1.10699 262.436 1.20899C262.538 1.31099 262.618 1.43098 262.678 1.56898C262.738 1.70698 262.768 1.85398 262.768 2.00998C262.768 2.17198 262.738 2.32199 262.678 2.45999C262.618 2.59199 262.538 2.70899 262.436 2.81099C262.334 2.91299 262.214 2.99099 262.076 3.04499C261.938 3.10499 261.79 3.13499 261.634 3.13499C261.478 3.13499 261.332 3.10499 261.194 3.04499C261.056 2.99099 260.935 2.91299 260.833 2.81099C260.737 2.70899 260.66 2.59199 260.6 2.45999C260.546 2.32199 260.518 2.17198 260.518 2.00998Z" fill="#545454"/>
<path d="M272.656 1.47899C272.83 1.47899 272.968 1.52999 273.07 1.63199C273.172 1.73399 273.223 1.86599 273.223 2.02799V2.99999H264.619V2.45098C264.619 2.33698 264.643 2.21999 264.691 2.09999C264.739 1.97999 264.814 1.86898 264.916 1.76698L269.047 -2.38202C269.389 -2.73002 269.701 -3.06301 269.983 -3.38101C270.265 -3.70501 270.505 -4.02901 270.703 -4.35301C270.901 -4.67702 271.054 -5.00401 271.162 -5.33401C271.27 -5.67001 271.324 -6.02702 271.324 -6.40502C271.324 -6.78302 271.264 -7.11301 271.144 -7.39502C271.024 -7.68302 270.859 -7.92002 270.649 -8.10602C270.445 -8.29202 270.202 -8.43002 269.92 -8.52002C269.638 -8.61601 269.335 -8.66401 269.011 -8.66401C268.681 -8.66401 268.378 -8.61601 268.102 -8.52002C267.826 -8.42402 267.58 -8.28901 267.364 -8.11501C267.154 -7.94701 266.977 -7.74601 266.833 -7.51202C266.689 -7.27802 266.587 -7.02002 266.527 -6.73801C266.455 -6.52801 266.356 -6.38702 266.23 -6.31502C266.11 -6.24902 265.939 -6.23101 265.717 -6.26101L264.88 -6.40502C264.964 -6.99301 265.126 -7.51201 265.366 -7.96202C265.612 -8.41802 265.918 -8.79901 266.284 -9.10501C266.656 -9.41101 267.079 -9.64201 267.553 -9.79801C268.027 -9.96002 268.54 -10.041 269.092 -10.041C269.638 -10.041 270.148 -9.96002 270.622 -9.79801C271.096 -9.63602 271.507 -9.39902 271.855 -9.08702C272.203 -8.78102 272.476 -8.40602 272.674 -7.96202C272.872 -7.51802 272.971 -7.01401 272.971 -6.45002C272.971 -5.97001 272.899 -5.52301 272.755 -5.10901C272.611 -4.70101 272.416 -4.31102 272.17 -3.93901C271.924 -3.56702 271.639 -3.20401 271.315 -2.85001C270.997 -2.49601 270.658 -2.13901 270.298 -1.77901L266.896 1.69499C267.136 1.62899 267.379 1.57799 267.625 1.54199C267.871 1.49999 268.108 1.47899 268.336 1.47899H272.656Z" fill="#545454"/>
</svg>
