<svg width="113" height="113" viewBox="0 0 113 113" fill="none" xmlns="http://www.w3.org/2000/svg">
<path d="M56.5 0.03125C25.3635 0.03125 0.03125 25.3635 0.03125 56.5C0.03125 87.6365 25.3635 112.969 56.5 112.969C87.6365 112.969 112.969 87.6365 112.969 56.5C112.969 25.3635 87.6365 0.03125 56.5 0.03125ZM57.043 26.0938C60.909 26.0938 64.6882 27.2402 67.9026 29.388C71.1171 31.5358 73.6225 34.5886 75.1019 38.1604C76.5814 41.7321 76.9685 45.6623 76.2143 49.454C75.46 53.2458 73.5984 56.7287 70.8647 59.4624C68.131 62.196 64.6481 64.0577 60.8564 64.8119C57.0647 65.5661 53.1344 65.179 49.5627 63.6996C45.991 62.2201 42.9382 59.7148 40.7903 56.5003C38.6425 53.2858 37.4961 49.5066 37.4961 45.6406C37.4961 40.4565 39.5555 35.4846 43.2212 31.8189C46.887 28.1531 51.8588 26.0938 57.043 26.0938ZM56.5 104.281C49.9096 104.284 43.3903 102.92 37.3539 100.275C31.3175 97.6301 25.8952 93.7621 21.4296 88.9152C23.8296 76.4867 45.3854 73.875 56.5 73.875C67.6146 73.875 89.1704 76.4867 91.5704 88.9125C87.1053 93.7603 81.6833 97.6291 75.6468 100.274C69.6103 102.92 63.0907 104.284 56.5 104.281Z" fill="#ECECEC"/>
</svg>
