<svg xmlns="http://www.w3.org/2000/svg">
    <symbol id="check-icon" viewBox="0 0 405.272 405.272">
        <path d="M393.401,124.425L179.603,338.208c-15.832,15.835-41.514,15.835-57.361,0L11.878,227.836 c-15.838-15.835-15.838-41.52,0-57.358c15.841-15.841,41.521-15.841,57.355-0.006l81.698,81.699L336.037,67.064 c15.841-15.841,41.523-15.829,57.358,0C409.23,82.902,409.23,108.578,393.401,124.425z"/>
    </symbol>
    <symbol id="choose-icon" viewBox="0 0 330 330">
        <path d="M165,0C74.019,0,0,74.019,0,165s74.019,165,165,165s165-74.019,165-165S255.981,0,165,0z M165,300
		c-74.44,0-135-60.561-135-135S90.56,30,165,30s135,60.561,135,135S239.439,300,165,300z"/>
        <path d="M226.872,106.664l-84.854,84.853l-38.89-38.891c-5.857-5.857-15.355-5.858-21.213-0.001
		c-5.858,5.858-5.858,15.355,0,21.213l49.496,49.498c2.813,2.813,6.628,4.394,10.606,4.394c0.001,0,0,0,0.001,0
		c3.978,0,7.793-1.581,10.606-4.393l95.461-95.459c5.858-5.858,5.858-15.355,0-21.213
		C242.227,100.807,232.73,100.806,226.872,106.664z"/>
    </symbol>
    <symbol id="copy-icon" viewBox="0 0 488.3 488.3">
        <path d="M314.25,85.4h-227c-21.3,0-38.6,17.3-38.6,38.6v325.7c0,21.3,17.3,38.6,38.6,38.6h227c21.3,0,38.6-17.3,38.6-38.6V124
		C352.75,102.7,335.45,85.4,314.25,85.4z M325.75,449.6c0,6.4-5.2,11.6-11.6,11.6h-227c-6.4,0-11.6-5.2-11.6-11.6V124
		c0-6.4,5.2-11.6,11.6-11.6h227c6.4,0,11.6,5.2,11.6,11.6V449.6z"/>
        <path d="M401.05,0h-227c-21.3,0-38.6,17.3-38.6,38.6c0,7.5,6,13.5,13.5,13.5s13.5-6,13.5-13.5c0-6.4,5.2-11.6,11.6-11.6h227
		c6.4,0,11.6,5.2,11.6,11.6v325.7c0,6.4-5.2,11.6-11.6,11.6c-7.5,0-13.5,6-13.5,13.5s6,13.5,13.5,13.5c21.3,0,38.6-17.3,38.6-38.6
		V38.6C439.65,17.3,422.35,0,401.05,0z"/>
    </symbol>
    <symbol id="edit-icon" viewBox="0 0 490.273 490.273">
        <path d="M313.548,152.387l-230.8,230.9c-6.7,6.7-6.7,17.6,0,24.3c3.3,3.3,7.7,5,12.1,5s8.8-1.7,12.1-5l230.8-230.8
		c6.7-6.7,6.7-17.6,0-24.3C331.148,145.687,320.248,145.687,313.548,152.387z"/>
        <path d="M431.148,191.887c4.4,0,8.8-1.7,12.1-5l25.2-25.2c29.1-29.1,29.1-76.4,0-105.4l-34.4-34.4
		c-14.1-14.1-32.8-21.8-52.7-21.8c-19.9,0-38.6,7.8-52.7,21.8l-25.2,25.2c-6.7,6.7-6.7,17.6,0,24.3l115.6,115.6
		C422.348,190.187,426.748,191.887,431.148,191.887z M352.948,45.987c7.6-7.6,17.7-11.8,28.5-11.8c10.7,0,20.9,4.2,28.5,11.8
		l34.4,34.4c15.7,15.7,15.7,41.2,0,56.9l-13.2,13.2l-91.4-91.4L352.948,45.987z"/>
        <path d="M162.848,467.187l243.5-243.5c6.7-6.7,6.7-17.6,0-24.3s-17.6-6.7-24.3,0l-239.3,239.5l-105.6,14.2l14.2-105.6
		l228.6-228.6c6.7-6.7,6.7-17.6,0-24.3c-6.7-6.7-17.6-6.7-24.3,0l-232.6,232.8c-2.7,2.7-4.4,6.1-4.9,9.8l-18,133.6
		c-0.7,5.3,1.1,10.6,4.9,14.4c3.2,3.2,7.6,5,12.1,5c0.8,0,1.5-0.1,2.3-0.2l133.6-18
		C156.748,471.587,160.248,469.887,162.848,467.187z"/>
    </symbol>
    <symbol id="trash-icon" viewBox="0 0 458.5 458.5">
        <path d="M382.078,57.069h-89.78C289.128,25.075,262.064,0,229.249,0S169.37,25.075,166.2,57.069H76.421
		c-26.938,0-48.854,21.916-48.854,48.854c0,26.125,20.613,47.524,46.429,48.793V399.5c0,32.533,26.467,59,59,59h192.508
		c32.533,0,59-26.467,59-59V154.717c25.816-1.269,46.429-22.668,46.429-48.793C430.933,78.985,409.017,57.069,382.078,57.069z
		 M229.249,30c16.244,0,29.807,11.673,32.76,27.069h-65.52C199.442,41.673,213.005,30,229.249,30z M354.503,399.501
		c0,15.991-13.009,29-29,29H132.995c-15.991,0-29-13.009-29-29V154.778c12.244,0,240.932,0,250.508,0V399.501z M382.078,124.778
		c-3.127,0-302.998,0-305.657,0c-10.396,0-18.854-8.458-18.854-18.854S66.025,87.07,76.421,87.07h305.657
		c10.396,0,18.854,8.458,18.854,18.854S392.475,124.778,382.078,124.778z"/>
        <path d="M229.249,392.323c8.284,0,15-6.716,15-15V203.618c0-8.284-6.715-15-15-15c-8.284,0-15,6.716-15,15v173.705
		C214.249,385.607,220.965,392.323,229.249,392.323z"/>
        <path d="M306.671,392.323c8.284,0,15-6.716,15-15V203.618c0-8.284-6.716-15-15-15s-15,6.716-15,15v173.705
		C291.671,385.607,298.387,392.323,306.671,392.323z"/>
        <path d="M151.828,392.323c8.284,0,15-6.716,15-15V203.618c0-8.284-6.716-15-15-15c-8.284,0-15,6.716-15,15v173.705
		C136.828,385.607,143.544,392.323,151.828,392.323z"/>
    </symbol>
</svg>