<svg width="17" height="17" viewBox="0 0 17 17" fill="none" xmlns="http://www.w3.org/2000/svg">
<path d="M8.15964 2.42955C6.65204 2.43204 5.19312 2.96347 4.03714 3.93122V1.66455H2.88255V6.26872H7.48672V5.10705H4.46214C5.26019 4.32731 6.28458 3.82019 7.38853 3.65835C8.49248 3.49652 9.61933 3.68827 10.6076 4.20614C11.5959 4.72401 12.3949 5.54142 12.8901 6.54123C13.3853 7.54105 13.5514 8.67197 13.3645 9.77195C13.1775 10.8719 12.6472 11.8845 11.8495 12.6646C11.0518 13.4447 10.0276 13.9523 8.92374 14.1146C7.81987 14.2769 6.69294 14.0857 5.70443 13.5682C4.71592 13.0508 3.91656 12.2337 3.42089 11.2341L2.38672 11.7512C2.89808 12.7815 3.67555 13.6565 4.63862 14.2854C5.6017 14.9143 6.71538 15.2744 7.86436 15.3283C9.01334 15.3822 10.1558 15.128 11.1736 14.5921C12.1914 14.0561 13.0473 13.2579 13.653 12.28C14.2586 11.3021 14.5918 10.1801 14.6181 9.03014C14.6444 7.8802 14.3629 6.74412 13.8027 5.73954C13.2425 4.73495 12.4239 3.89836 11.4317 3.3164C10.4396 2.73444 9.30988 2.42826 8.15964 2.42955V2.42955Z" fill="white"/>
</svg>
