<svg width="11" height="10" viewBox="0 0 11 10" fill="none" xmlns="http://www.w3.org/2000/svg">
<path d="M10.43 0.856V10H8.981V3.943C8.981 3.775 8.99 3.589 9.008 3.385C9.032 3.175 9.062 2.98 9.098 2.8L5.93 8.353C5.882 8.443 5.819 8.515 5.741 8.569C5.663 8.623 5.573 8.65 5.471 8.65H5.291C5.189 8.65 5.096 8.623 5.012 8.569C4.934 8.515 4.871 8.443 4.823 8.353L1.601 2.782C1.631 2.962 1.658 3.16 1.682 3.376C1.706 3.586 1.718 3.775 1.718 3.943V10H0.269V0.856H1.556C1.67 0.856 1.781 0.883 1.889 0.936999C1.997 0.984999 2.09 1.078 2.168 1.216L5.012 5.968C5.15 6.244 5.273 6.535 5.381 6.841C5.483 6.523 5.603 6.232 5.741 5.968L8.531 1.216C8.609 1.072 8.702 0.976 8.81 0.928C8.918 0.88 9.029 0.856 9.143 0.856H10.43Z" fill="#44494C"/>
</svg>
