<svg width="14" height="15" viewBox="0 0 14 15" fill="none" xmlns="http://www.w3.org/2000/svg">
<path d="M6.498 4.217C6.498 4.721 6.42 5.174 6.264 5.576C6.108 5.972 5.898 6.308 5.634 6.584C5.376 6.854 5.073 7.061 4.725 7.205C4.383 7.349 4.02 7.421 3.636 7.421C3.234 7.421 2.859 7.349 2.511 7.205C2.163 7.061 1.86 6.854 1.602 6.584C1.35 6.308 1.152 5.972 1.008 5.576C0.864 5.174 0.792 4.721 0.792 4.217C0.792 3.701 0.864 3.242 1.008 2.84C1.152 2.438 1.35 2.099 1.602 1.823C1.86 1.547 2.163 1.337 2.511 1.193C2.859 1.049 3.234 0.977 3.636 0.977C4.044 0.977 4.422 1.049 4.77 1.193C5.118 1.337 5.421 1.547 5.679 1.823C5.937 2.099 6.138 2.438 6.282 2.84C6.426 3.242 6.498 3.701 6.498 4.217ZM5.256 4.217C5.256 3.821 5.214 3.485 5.13 3.209C5.046 2.933 4.929 2.708 4.779 2.534C4.635 2.354 4.464 2.225 4.266 2.147C4.068 2.069 3.858 2.03 3.636 2.03C3.414 2.03 3.207 2.069 3.015 2.147C2.823 2.225 2.655 2.354 2.511 2.534C2.367 2.708 2.253 2.933 2.169 3.209C2.085 3.485 2.043 3.821 2.043 4.217C2.043 4.607 2.085 4.94 2.169 5.216C2.253 5.486 2.367 5.708 2.511 5.882C2.655 6.05 2.823 6.173 3.015 6.251C3.207 6.323 3.414 6.359 3.636 6.359C3.858 6.359 4.068 6.323 4.266 6.251C4.464 6.173 4.635 6.05 4.779 5.882C4.929 5.708 5.046 5.486 5.13 5.216C5.214 4.94 5.256 4.607 5.256 4.217ZM11.061 1.373C11.121 1.301 11.19 1.238 11.268 1.184C11.352 1.13 11.463 1.103 11.601 1.103H12.762L3.33 13.739C3.276 13.817 3.207 13.88 3.123 13.928C3.039 13.976 2.937 14 2.817 14H1.638L11.061 1.373ZM13.635 10.958C13.635 11.462 13.557 11.912 13.401 12.308C13.245 12.704 13.035 13.04 12.771 13.316C12.513 13.586 12.21 13.793 11.862 13.937C11.52 14.081 11.157 14.153 10.773 14.153C10.365 14.153 9.987 14.081 9.639 13.937C9.297 13.793 8.997 13.586 8.739 13.316C8.487 13.04 8.289 12.704 8.145 12.308C8.001 11.912 7.929 11.462 7.929 10.958C7.929 10.442 8.001 9.983 8.145 9.581C8.289 9.173 8.487 8.831 8.739 8.555C8.997 8.279 9.297 8.069 9.639 7.925C9.987 7.781 10.365 7.709 10.773 7.709C11.175 7.709 11.55 7.781 11.898 7.925C12.252 8.069 12.555 8.279 12.807 8.555C13.065 8.831 13.266 9.173 13.41 9.581C13.56 9.983 13.635 10.442 13.635 10.958ZM12.393 10.958C12.393 10.562 12.351 10.226 12.267 9.95C12.183 9.668 12.066 9.44 11.916 9.266C11.772 9.092 11.601 8.966 11.403 8.888C11.205 8.81 10.995 8.771 10.773 8.771C10.551 8.771 10.341 8.81 10.143 8.888C9.951 8.966 9.783 9.092 9.639 9.266C9.495 9.44 9.381 9.668 9.297 9.95C9.219 10.226 9.18 10.562 9.18 10.958C9.18 11.348 9.219 11.678 9.297 11.948C9.381 12.218 9.495 12.44 9.639 12.614C9.783 12.782 9.951 12.905 10.143 12.983C10.341 13.055 10.551 13.091 10.773 13.091C10.995 13.091 11.205 13.055 11.403 12.983C11.601 12.905 11.772 12.782 11.916 12.614C12.066 12.44 12.183 12.218 12.267 11.948C12.351 11.678 12.393 11.348 12.393 10.958Z" fill="#44494C"/>
</svg>
