<svg width="12" height="13" viewBox="0 0 12 13" fill="none" xmlns="http://www.w3.org/2000/svg">
<path d="M2.484 13C2.364 13 2.262 12.964 2.178 12.892C2.106 12.808 2.07 12.706 2.07 12.586V10.282H0.684C0.564 10.282 0.462 10.246 0.378 10.174C0.306 10.09 0.27 9.988 0.27 9.868V9.454C0.27 9.334 0.306 9.238 0.378 9.166C0.462 9.082 0.564 9.04 0.684 9.04H2.07V8.014H0.684C0.564 8.014 0.462 7.978 0.378 7.906C0.306 7.822 0.27 7.72 0.27 7.6V6.988C0.27 6.868 0.306 6.772 0.378 6.7C0.462 6.616 0.564 6.574 0.684 6.574H2.07V0.831999C2.07 0.699999 2.106 0.597999 2.178 0.526C2.262 0.441999 2.364 0.399999 2.484 0.399999H7.056C8.412 0.399999 9.48 0.729999 10.26 1.39C11.04 2.05 11.43 3.004 11.43 4.252C11.43 5.476 11.04 6.412 10.26 7.06C9.492 7.696 8.424 8.014 7.056 8.014H3.87V9.04H7.344C7.464 9.04 7.56 9.082 7.632 9.166C7.716 9.238 7.758 9.334 7.758 9.454V9.868C7.758 9.988 7.716 10.09 7.632 10.174C7.56 10.246 7.464 10.282 7.344 10.282H3.87V12.586C3.87 12.706 3.828 12.808 3.744 12.892C3.66 12.964 3.558 13 3.438 13H2.484ZM6.966 6.574C7.842 6.574 8.502 6.376 8.946 5.98C9.402 5.584 9.63 5.008 9.63 4.252C9.63 3.496 9.408 2.92 8.964 2.524C8.52 2.116 7.854 1.912 6.966 1.912H3.852V6.574H6.966Z" fill="#545454"/>
</svg>
