<svg width="18" height="15" viewBox="0 0 18 15" fill="none" xmlns="http://www.w3.org/2000/svg">
<path d="M10.52 5.829V15H8.936V9.186C8.936 9.006 8.945 8.802 8.963 8.574C8.987 8.346 9.02 8.136 9.062 7.944L6.002 13.362C5.948 13.464 5.879 13.545 5.795 13.605C5.711 13.659 5.612 13.686 5.498 13.686H5.3C5.192 13.686 5.093 13.659 5.003 13.605C4.919 13.545 4.85 13.464 4.796 13.362L1.691 7.926C1.727 8.118 1.757 8.331 1.781 8.565C1.805 8.793 1.817 9 1.817 9.186V15H0.233V5.829H1.655C1.775 5.829 1.895 5.856 2.015 5.91C2.135 5.964 2.237 6.069 2.321 6.225L4.994 10.743C5.072 10.887 5.144 11.04 5.21 11.202C5.276 11.364 5.339 11.526 5.399 11.688C5.459 11.526 5.519 11.364 5.579 11.202C5.645 11.04 5.717 10.887 5.795 10.743L8.432 6.225C8.516 6.063 8.618 5.958 8.738 5.91C8.858 5.856 8.978 5.829 9.098 5.829H10.52ZM16.6221 5.73C16.7601 5.73 16.8651 5.769 16.9371 5.847C17.0091 5.919 17.0451 6.018 17.0451 6.144V6.9H12.3741V6.477C12.3741 6.393 12.3891 6.306 12.4191 6.216C12.4551 6.126 12.5121 6.039 12.5901 5.955L14.5521 4.02C14.8521 3.732 15.1011 3.429 15.2991 3.111C15.5031 2.793 15.6051 2.481 15.6051 2.175C15.6051 1.887 15.5211 1.665 15.3531 1.509C15.1911 1.353 14.9841 1.275 14.7321 1.275C14.4741 1.275 14.2641 1.344 14.1021 1.482C13.9461 1.614 13.8291 1.797 13.7511 2.031C13.6851 2.145 13.6101 2.226 13.5261 2.274C13.4481 2.316 13.3221 2.322 13.1481 2.292L12.4461 2.175C12.4881 1.851 12.5751 1.569 12.7071 1.329C12.8451 1.083 13.0161 0.881999 13.2201 0.725999C13.4241 0.564 13.6581 0.444 13.9221 0.366C14.1921 0.281999 14.4831 0.239999 14.7951 0.239999C15.1191 0.239999 15.4101 0.287999 15.6681 0.383999C15.9261 0.473999 16.1451 0.602999 16.3251 0.770999C16.5051 0.933 16.6431 1.131 16.7391 1.365C16.8411 1.599 16.8921 1.854 16.8921 2.13C16.8921 2.37 16.8531 2.595 16.7751 2.805C16.7031 3.009 16.6041 3.204 16.4781 3.39C16.3521 3.576 16.2081 3.759 16.0461 3.939C15.8841 4.113 15.7161 4.29 15.5421 4.47L14.1741 5.865C14.3181 5.823 14.4621 5.79 14.6061 5.766C14.7501 5.742 14.8851 5.73 15.0111 5.73H16.6221Z" fill="#545454"/>
</svg>
