<svg width="726" height="143" viewBox="0 0 726 143" fill="none" xmlns="http://www.w3.org/2000/svg">
<path d="M238.87 108.962H198.098V48.69L232.71 18.5818L266.492 47.456V85.2983C266.492 86.3693 267.36 87.2386 268.433 87.2386C269.505 87.2386 270.373 86.3693 270.373 85.2983V50.7726L282.999 61.5645C283.365 61.8763 283.813 62.0289 284.259 62.0289C284.806 62.0289 285.351 61.7974 285.735 61.3498C286.432 60.5349 286.335 59.3112 285.52 58.614L233.96 14.5459C233.228 13.9199 232.15 13.9263 231.426 14.5563L180.943 58.4691C180.135 59.1728 180.049 60.3978 180.753 61.2062C181.457 62.0147 182.68 62.0988 183.49 61.3964L194.217 52.0648V110.901C194.217 111.972 195.085 112.841 196.158 112.841H238.87C239.942 112.841 240.81 111.972 240.81 110.901C240.81 109.83 239.942 108.962 238.87 108.962Z" fill="#BDBDBD"/>
<path d="M285.228 129.445L240.874 79.0834C241.416 73.7942 240.012 69.5152 236.74 66.6953C232.759 63.2661 229.1 63.9181 223.564 64.9012C222.838 65.0305 222.07 65.1676 221.25 65.3047C219.161 65.6553 217.399 63.596 215.484 61.0736C214.129 59.2872 212.957 57.7466 211.126 58.2278C209.344 58.6987 208.929 60.7321 208.679 62.6C207.576 70.8734 208.103 82.3677 213.217 87.5354C217.4 91.7782 223.177 92.3732 226.087 92.3732C226.446 92.3732 226.741 92.3628 227.003 92.3512L277.84 136.833C279.415 138.387 281.367 139.277 283.201 139.275C283.215 139.275 283.231 139.275 283.245 139.275C284.509 139.266 285.648 138.808 286.457 137.986C288.499 135.903 287.956 132.162 285.228 129.445ZM212.472 63.5235C214.319 65.9554 217.379 69.8903 221.887 69.1323C222.722 68.9939 223.504 68.8542 224.242 68.7235C229.725 67.7469 231.748 67.5167 234.206 69.6368C236.529 71.6392 237.459 74.7346 237.007 78.8221L226.843 88.4719C225.051 88.5495 219.581 88.4628 215.977 84.8099C212.204 80.9927 211.518 71.1929 212.472 63.5235ZM238.737 82.5294L242.77 87.1085L235.365 94.5114L230.551 90.2997L238.737 82.5294ZM283.687 135.267C283.607 135.347 283.419 135.387 283.202 135.393C282.602 135.393 281.557 135.047 280.48 133.991L238.292 97.0726L245.34 90.0267L282.36 132.059C282.391 132.094 282.423 132.129 282.457 132.161C283.787 133.467 284.012 134.937 283.687 135.267Z" fill="#BDBDBD"/>
<path d="M440.48 66.0783H427.513C424.105 66.0783 421.331 63.3065 421.331 59.8999C421.331 57.1508 422.838 51.1627 424.167 45.8788C425.29 41.4158 426.351 37.1998 426.747 34.2405C427.173 31.0867 426.186 27.9542 423.97 25.4195C421.39 22.4673 417.483 20.7051 413.52 20.7051C409.553 20.7051 405.642 22.4687 403.062 25.4223C400.847 27.957 399.864 31.0895 400.29 34.2391C400.695 37.2509 401.824 41.5393 403.016 46.0791C404.387 51.289 405.94 57.1948 405.94 59.8999C405.94 63.3065 403.167 66.0783 399.759 66.0783H386.553C385.376 66.0783 384.423 67.0312 384.423 68.2083V121.926C384.423 123.101 385.376 124.056 386.553 124.056H440.479C441.656 124.056 442.609 123.101 442.609 121.926V68.2083C442.61 67.0326 441.657 66.0783 440.48 66.0783ZM399.76 70.3383C405.518 70.3383 410.202 65.6552 410.202 59.8999C410.202 56.6439 408.713 50.9852 407.137 44.9942C406.028 40.7796 404.882 36.4202 404.512 33.6683C404.179 31.2131 405.284 29.3529 406.27 28.2254C408.026 26.2147 410.804 24.9651 413.519 24.9651C416.229 24.9651 419.006 26.2133 420.762 28.2226C421.749 29.3515 422.857 31.2131 422.524 33.6711C422.159 36.3932 421.079 40.6873 420.035 44.8394C418.51 50.9 417.071 56.6226 417.071 59.8999C417.071 65.6552 421.755 70.3383 427.513 70.3383H438.35V81.714H388.684V70.3383H399.76V70.3383ZM388.684 119.796V85.974H438.35V119.796H388.684Z" fill="#BDBDBD"/>
<path d="M420.15 33.8199C420.15 30.1634 417.176 27.1885 413.519 27.1885C409.863 27.1885 406.888 30.1634 406.888 33.8199C406.888 37.4764 409.863 40.4513 413.519 40.4513C417.176 40.4513 420.15 37.4764 420.15 33.8199ZM411.148 33.8199C411.148 32.5121 412.211 31.4485 413.519 31.4485C414.827 31.4485 415.89 32.5121 415.89 33.8199C415.89 35.1277 414.827 36.1913 413.519 36.1913C412.211 36.1913 411.148 35.1277 411.148 33.8199Z" fill="#BDBDBD"/>
<path d="M502.727 36.3376L491.158 27.6202C490.789 27.3419 490.34 27.1914 489.877 27.1914H481.119V20.0743C481.119 18.8972 480.165 17.9443 478.989 17.9443H463.474C462.298 17.9443 461.344 18.8972 461.344 20.0743V27.1914H441.017C439.84 27.1914 438.887 28.1442 438.887 29.3214V45.9254C438.887 47.1026 439.84 48.0554 441.017 48.0554H461.344V121.925C461.344 123.101 462.298 124.055 463.474 124.055H478.989C480.165 124.055 481.119 123.101 481.119 121.925V48.0554H501.446C502.622 48.0554 503.576 47.1026 503.576 45.9254V38.0388C503.576 37.3699 503.262 36.7409 502.727 36.3376ZM465.604 22.2043H476.859V27.1914H465.604V22.2043ZM476.859 119.795H465.604V48.0554H476.859V119.795ZM499.316 43.7954H443.147V31.4514H489.165L499.316 39.1009V43.7954Z" fill="#BDBDBD"/>
<path d="M725.592 77.1739L716.131 63.5594C714.724 61.5403 712.844 59.8902 710.654 58.7503C708.464 57.6105 706.029 57.015 703.556 57.0148H679.148V38.2516C679.148 37.6544 678.909 37.0817 678.484 36.6595C678.059 36.2372 677.482 36 676.881 36H595.267C594.666 36 594.089 36.2372 593.664 36.6595C593.239 37.0817 593 37.6544 593 38.2516V108.801C593 109.398 593.239 109.971 593.664 110.393C594.089 110.816 594.666 111.053 595.267 111.053H613.993C614.357 113.804 615.716 116.331 617.817 118.161C619.918 119.991 622.617 121 625.411 121C628.206 121 630.905 119.991 633.005 118.161C635.106 116.331 636.465 113.804 636.83 111.053H687.43C687.841 113.764 689.218 116.239 691.31 118.028C693.403 119.817 696.072 120.801 698.833 120.801C701.594 120.801 704.264 119.817 706.356 118.028C708.449 116.239 709.825 113.764 710.236 111.053H723.733C724.334 111.053 724.911 110.816 725.336 110.393C725.761 109.971 726 109.398 726 108.801V78.4498C726.001 77.9927 725.859 77.5466 725.592 77.1739ZM703.556 61.5179C705.296 61.5168 707.009 61.9357 708.55 62.7385C710.09 63.5413 711.41 64.7039 712.398 66.1262L719.637 76.5285H679.148V61.5179H703.556ZM625.404 116.306C624.015 116.312 622.655 115.909 621.498 115.146C620.34 114.384 619.437 113.297 618.902 112.024C618.367 110.751 618.224 109.349 618.493 107.996C618.761 106.642 619.428 105.398 620.409 104.422C621.39 103.446 622.641 102.78 624.003 102.511C625.366 102.241 626.778 102.38 628.061 102.908C629.343 103.437 630.439 104.332 631.21 105.48C631.98 106.628 632.389 107.977 632.386 109.357C632.382 111.196 631.646 112.959 630.338 114.261C629.029 115.563 627.256 116.299 625.404 116.306ZM625.404 97.8885C622.825 97.8803 620.318 98.7282 618.281 100.297C616.243 101.867 614.793 104.067 614.159 106.55H597.534V40.5032H674.614V106.55H636.557C635.93 104.081 634.493 101.89 632.474 100.322C630.454 98.7538 627.967 97.8977 625.404 97.8885ZM698.795 116.306C697.408 116.306 696.051 115.898 694.898 115.132C693.744 114.366 692.845 113.277 692.315 112.003C691.785 110.73 691.647 109.329 691.919 107.977C692.19 106.626 692.86 105.385 693.842 104.411C694.824 103.438 696.075 102.776 697.437 102.509C698.798 102.242 700.208 102.382 701.49 102.911C702.771 103.441 703.865 104.336 704.634 105.483C705.402 106.63 705.811 107.978 705.808 109.357C705.804 111.201 705.064 112.969 703.749 114.272C702.434 115.575 700.653 116.306 698.795 116.306ZM709.98 106.55C709.359 104.071 707.922 101.871 705.897 100.298C703.871 98.725 701.374 97.8705 698.803 97.8705C696.232 97.8705 693.735 98.725 691.709 100.298C689.684 101.871 688.247 104.071 687.626 106.55H679.148V81.0317H721.466V106.55H709.98Z" fill="#BDBDBD"/>
<mask id="path-7-inside-1_531_1932" fill="white">
<path fill-rule="evenodd" clip-rule="evenodd" d="M28.459 86.2227C27.3544 86.2227 26.459 87.1181 26.459 88.2227V94.5675V100.086V136.043C26.459 137.148 27.3544 138.043 28.459 138.043H44.1953C45.2999 138.043 46.1953 137.148 46.1953 136.043V102.086H49.4848V136.043C49.4848 137.148 50.3802 138.043 51.4848 138.043H68.3176C69.4222 138.043 70.3176 137.148 70.3176 136.043V94.5675C70.3176 94.5616 70.3176 94.5557 70.3175 94.5498V88.2227C70.3175 87.1181 69.4221 86.2227 68.3175 86.2227H28.459Z"/>
</mask>
<path d="M46.1953 102.086V99.0862H43.1953V102.086H46.1953ZM49.4848 102.086H52.4848V99.0862H49.4848V102.086ZM70.3175 94.5498H67.3175V94.5625L67.3176 94.5751L70.3175 94.5498ZM29.459 88.2227C29.459 88.7749 29.0113 89.2227 28.459 89.2227V83.2227C25.6976 83.2227 23.459 85.4612 23.459 88.2227H29.459ZM29.459 94.5675V88.2227H23.459V94.5675H29.459ZM23.459 94.5675V100.086H29.459V94.5675H23.459ZM23.459 100.086V136.043H29.459V100.086H23.459ZM23.459 136.043C23.459 138.804 25.6976 141.043 28.459 141.043V135.043C29.0113 135.043 29.459 135.491 29.459 136.043H23.459ZM28.459 141.043H44.1953V135.043H28.459V141.043ZM44.1953 141.043C46.9568 141.043 49.1953 138.804 49.1953 136.043H43.1953C43.1953 135.491 43.6431 135.043 44.1953 135.043V141.043ZM49.1953 136.043V102.086H43.1953V136.043H49.1953ZM49.4848 99.0862H46.1953V105.086H49.4848V99.0862ZM46.4848 102.086V136.043H52.4848V102.086H46.4848ZM46.4848 136.043C46.4848 138.804 48.7234 141.043 51.4848 141.043V135.043C52.0371 135.043 52.4848 135.491 52.4848 136.043H46.4848ZM51.4848 141.043H68.3176V135.043H51.4848V141.043ZM68.3176 141.043C71.079 141.043 73.3176 138.804 73.3176 136.043H67.3176C67.3176 135.491 67.7653 135.043 68.3176 135.043V141.043ZM73.3176 136.043V94.5675H67.3176V136.043H73.3176ZM73.3176 94.5675C73.3176 94.5525 73.3176 94.5382 73.3174 94.5245L67.3176 94.5751C67.3176 94.5732 67.3176 94.5707 67.3176 94.5675H73.3176ZM67.3175 88.2227V94.5498H73.3175V88.2227H67.3175ZM68.3175 89.2227C67.7653 89.2227 67.3175 88.7749 67.3175 88.2227H73.3175C73.3175 85.4612 71.079 83.2227 68.3175 83.2227V89.2227ZM28.459 89.2227H68.3175V83.2227H28.459V89.2227Z" fill="#BDBDBD" mask="url(#path-7-inside-1_531_1932)"/>
<path d="M48.4365 31.9384C54.7878 31.9384 59.9365 26.824 59.9365 20.5151C59.9365 14.2062 54.7878 9.0918 48.4365 9.0918C42.0852 9.0918 36.9365 14.2062 36.9365 20.5151C36.9365 26.824 42.0852 31.9384 48.4365 31.9384Z" stroke="#BDBDBD" stroke-width="3.5" stroke-miterlimit="10"/>
<path d="M92.3399 122.275H60.1794C58.6398 122.275 57.4424 121.203 57.4424 119.825V102.059C57.4424 100.68 58.6398 99.6084 60.1794 99.6084H92.3399C93.8795 99.6084 95.077 100.68 95.077 102.059V119.825C95.077 121.203 93.8795 122.275 92.3399 122.275Z" fill="white" stroke="#BDBDBD" stroke-width="3.5" stroke-miterlimit="10"/>
<line x1="95.0771" y1="109.243" x2="57.4425" y2="109.243" stroke="#BDBDBD" stroke-width="3.5"/>
<path d="M17.7955 46.4682C17.8345 45.5247 18.3128 44.6563 19.1119 44.1533C21.8683 42.4182 28.6878 38.4422 34.7142 37.4731C42.4836 36.2237 51.9179 36.2239 59.1323 37.4731C64.7639 38.4483 73.2274 42.4687 76.6702 44.186C77.627 44.6633 78.2361 45.6269 78.2802 46.6952L80.0917 90.5718C80.1621 92.2758 78.7997 93.6956 77.0943 93.6956H18.9721C17.2667 93.6956 15.9043 92.2758 15.9747 90.5718L17.7955 46.4682Z" fill="white" stroke="#BDBDBD" stroke-width="3.5" stroke-linejoin="round"/>
<path d="M28 93L28 53" stroke="#BDBDBD" stroke-width="3.5" stroke-linejoin="round"/>
<path d="M40 93L39.5446 37" stroke="#BDBDBD" stroke-width="3.5" stroke-linejoin="round"/>
<path d="M57.0176 92.2969L57.0176 37.1617" stroke="#BDBDBD" stroke-width="3.5" stroke-linejoin="round"/>
<path d="M68.0371 93.7773L68.0371 52.2218" stroke="#BDBDBD" stroke-width="3.5"/>
<rect x="70.4863" y="94.6816" width="12" height="4.96664" stroke="#BDBDBD" stroke-width="3.5" stroke-linejoin="round"/>
<line x1="15.8457" y1="84.0615" x2="28.8457" y2="84.0615" stroke="#BDBDBD" stroke-width="3.5"/>
<line x1="67.0918" y1="84.0615" x2="80.0918" y2="84.0615" stroke="#BDBDBD" stroke-width="3.5"/>
</svg>
